%TF.GenerationSoftware,KiCad,Pcbnew,(6.0.7-1)-1*%
%TF.CreationDate,2022-10-09T23:16:26+02:00*%
%TF.ProjectId,Power_Management_Module,506f7765-725f-44d6-916e-6167656d656e,rev?*%
%TF.SameCoordinates,Original*%
%TF.FileFunction,Legend,Top*%
%TF.FilePolarity,Positive*%
%FSLAX46Y46*%
G04 Gerber Fmt 4.6, Leading zero omitted, Abs format (unit mm)*
G04 Created by KiCad (PCBNEW (6.0.7-1)-1) date 2022-10-09 23:16:26*
%MOMM*%
%LPD*%
G01*
G04 APERTURE LIST*
G04 Aperture macros list*
%AMRoundRect*
0 Rectangle with rounded corners*
0 $1 Rounding radius*
0 $2 $3 $4 $5 $6 $7 $8 $9 X,Y pos of 4 corners*
0 Add a 4 corners polygon primitive as box body*
4,1,4,$2,$3,$4,$5,$6,$7,$8,$9,$2,$3,0*
0 Add four circle primitives for the rounded corners*
1,1,$1+$1,$2,$3*
1,1,$1+$1,$4,$5*
1,1,$1+$1,$6,$7*
1,1,$1+$1,$8,$9*
0 Add four rect primitives between the rounded corners*
20,1,$1+$1,$2,$3,$4,$5,0*
20,1,$1+$1,$4,$5,$6,$7,0*
20,1,$1+$1,$6,$7,$8,$9,0*
20,1,$1+$1,$8,$9,$2,$3,0*%
%AMFreePoly0*
4,1,22,0.500000,-0.750000,0.000000,-0.750000,0.000000,-0.745033,-0.079941,-0.743568,-0.215256,-0.701293,-0.333266,-0.622738,-0.424486,-0.514219,-0.481581,-0.384460,-0.499164,-0.250000,-0.500000,-0.250000,-0.500000,0.250000,-0.499164,0.250000,-0.499963,0.256109,-0.478152,0.396186,-0.417904,0.524511,-0.324060,0.630769,-0.204165,0.706417,-0.067858,0.745374,0.000000,0.744959,0.000000,0.750000,
0.500000,0.750000,0.500000,-0.750000,0.500000,-0.750000,$1*%
%AMFreePoly1*
4,1,20,0.000000,0.744959,0.073905,0.744508,0.209726,0.703889,0.328688,0.626782,0.421226,0.519385,0.479903,0.390333,0.500000,0.250000,0.500000,-0.250000,0.499851,-0.262216,0.476331,-0.402017,0.414519,-0.529596,0.319384,-0.634700,0.198574,-0.708877,0.061801,-0.746166,0.000000,-0.745033,0.000000,-0.750000,-0.500000,-0.750000,-0.500000,0.750000,0.000000,0.750000,0.000000,0.744959,
0.000000,0.744959,$1*%
G04 Aperture macros list end*
%ADD10C,0.150000*%
%ADD11C,0.120000*%
%ADD12RoundRect,0.250000X0.325000X0.650000X-0.325000X0.650000X-0.325000X-0.650000X0.325000X-0.650000X0*%
%ADD13RoundRect,0.250000X-0.262500X-0.450000X0.262500X-0.450000X0.262500X0.450000X-0.262500X0.450000X0*%
%ADD14RoundRect,0.135000X0.135000X0.185000X-0.135000X0.185000X-0.135000X-0.185000X0.135000X-0.185000X0*%
%ADD15C,0.990600*%
%ADD16C,0.787400*%
%ADD17R,1.700000X1.700000*%
%ADD18O,1.700000X1.700000*%
%ADD19RoundRect,0.250001X-0.849999X0.462499X-0.849999X-0.462499X0.849999X-0.462499X0.849999X0.462499X0*%
%ADD20RoundRect,0.225000X0.250000X-0.225000X0.250000X0.225000X-0.250000X0.225000X-0.250000X-0.225000X0*%
%ADD21RoundRect,0.225000X-0.225000X-0.250000X0.225000X-0.250000X0.225000X0.250000X-0.225000X0.250000X0*%
%ADD22RoundRect,0.135000X0.185000X-0.135000X0.185000X0.135000X-0.185000X0.135000X-0.185000X-0.135000X0*%
%ADD23RoundRect,0.135000X-0.135000X-0.185000X0.135000X-0.185000X0.135000X0.185000X-0.135000X0.185000X0*%
%ADD24R,1.500000X2.500000*%
%ADD25RoundRect,0.135000X-0.185000X0.135000X-0.185000X-0.135000X0.185000X-0.135000X0.185000X0.135000X0*%
%ADD26RoundRect,0.250000X-0.312500X-0.625000X0.312500X-0.625000X0.312500X0.625000X-0.312500X0.625000X0*%
%ADD27RoundRect,0.150000X-0.825000X-0.150000X0.825000X-0.150000X0.825000X0.150000X-0.825000X0.150000X0*%
%ADD28RoundRect,0.200000X-0.275000X0.200000X-0.275000X-0.200000X0.275000X-0.200000X0.275000X0.200000X0*%
%ADD29RoundRect,0.150000X-0.150000X0.825000X-0.150000X-0.825000X0.150000X-0.825000X0.150000X0.825000X0*%
%ADD30RoundRect,0.225000X0.225000X0.250000X-0.225000X0.250000X-0.225000X-0.250000X0.225000X-0.250000X0*%
%ADD31R,1.000000X1.700000*%
%ADD32R,1.560000X0.650000*%
%ADD33RoundRect,0.100000X0.637500X0.100000X-0.637500X0.100000X-0.637500X-0.100000X0.637500X-0.100000X0*%
%ADD34RoundRect,0.150000X0.150000X-0.587500X0.150000X0.587500X-0.150000X0.587500X-0.150000X-0.587500X0*%
%ADD35RoundRect,0.150000X-0.587500X-0.150000X0.587500X-0.150000X0.587500X0.150000X-0.587500X0.150000X0*%
%ADD36RoundRect,0.075000X-0.650000X-0.075000X0.650000X-0.075000X0.650000X0.075000X-0.650000X0.075000X0*%
%ADD37R,0.650000X0.400000*%
%ADD38RoundRect,0.218750X0.218750X0.256250X-0.218750X0.256250X-0.218750X-0.256250X0.218750X-0.256250X0*%
%ADD39RoundRect,0.250000X-0.325000X-0.650000X0.325000X-0.650000X0.325000X0.650000X-0.325000X0.650000X0*%
%ADD40RoundRect,0.200000X-0.200000X-0.275000X0.200000X-0.275000X0.200000X0.275000X-0.200000X0.275000X0*%
%ADD41RoundRect,0.250000X-0.362500X-1.425000X0.362500X-1.425000X0.362500X1.425000X-0.362500X1.425000X0*%
%ADD42RoundRect,0.200000X0.275000X-0.200000X0.275000X0.200000X-0.275000X0.200000X-0.275000X-0.200000X0*%
%ADD43RoundRect,0.150000X0.825000X0.150000X-0.825000X0.150000X-0.825000X-0.150000X0.825000X-0.150000X0*%
%ADD44R,0.600000X0.450000*%
%ADD45RoundRect,0.218750X0.256250X-0.218750X0.256250X0.218750X-0.256250X0.218750X-0.256250X-0.218750X0*%
%ADD46FreePoly0,270.000000*%
%ADD47FreePoly1,270.000000*%
%ADD48R,2.000000X2.000000*%
%ADD49RoundRect,0.140000X-0.140000X-0.170000X0.140000X-0.170000X0.140000X0.170000X-0.140000X0.170000X0*%
%ADD50RoundRect,0.150000X0.587500X0.150000X-0.587500X0.150000X-0.587500X-0.150000X0.587500X-0.150000X0*%
%ADD51C,1.524000*%
%ADD52FreePoly0,90.000000*%
%ADD53FreePoly1,90.000000*%
%ADD54RoundRect,0.140000X0.170000X-0.140000X0.170000X0.140000X-0.170000X0.140000X-0.170000X-0.140000X0*%
%ADD55FreePoly0,0.000000*%
%ADD56FreePoly1,0.000000*%
%ADD57R,4.600000X1.100000*%
%ADD58R,9.400000X10.800000*%
%ADD59RoundRect,0.249999X0.450001X1.425001X-0.450001X1.425001X-0.450001X-1.425001X0.450001X-1.425001X0*%
%ADD60RoundRect,0.250000X0.625000X-0.312500X0.625000X0.312500X-0.625000X0.312500X-0.625000X-0.312500X0*%
%ADD61RoundRect,0.200000X0.200000X0.275000X-0.200000X0.275000X-0.200000X-0.275000X0.200000X-0.275000X0*%
G04 APERTURE END LIST*
D10*
X143352380Y-94738095D02*
X143352380Y-94119047D01*
X143733333Y-94452380D01*
X143733333Y-94309523D01*
X143780952Y-94214285D01*
X143828571Y-94166666D01*
X143923809Y-94119047D01*
X144161904Y-94119047D01*
X144257142Y-94166666D01*
X144304761Y-94214285D01*
X144352380Y-94309523D01*
X144352380Y-94595238D01*
X144304761Y-94690476D01*
X144257142Y-94738095D01*
X143352380Y-93833333D02*
X144352380Y-93500000D01*
X143352380Y-93166666D01*
X143352380Y-92928571D02*
X143352380Y-92309523D01*
X143733333Y-92642857D01*
X143733333Y-92500000D01*
X143780952Y-92404761D01*
X143828571Y-92357142D01*
X143923809Y-92309523D01*
X144161904Y-92309523D01*
X144257142Y-92357142D01*
X144304761Y-92404761D01*
X144352380Y-92500000D01*
X144352380Y-92785714D01*
X144304761Y-92880952D01*
X144257142Y-92928571D01*
X106752380Y-106338095D02*
X106752380Y-105719047D01*
X107133333Y-106052380D01*
X107133333Y-105909523D01*
X107180952Y-105814285D01*
X107228571Y-105766666D01*
X107323809Y-105719047D01*
X107561904Y-105719047D01*
X107657142Y-105766666D01*
X107704761Y-105814285D01*
X107752380Y-105909523D01*
X107752380Y-106195238D01*
X107704761Y-106290476D01*
X107657142Y-106338095D01*
X106752380Y-105433333D02*
X107752380Y-105100000D01*
X106752380Y-104766666D01*
X106752380Y-104528571D02*
X106752380Y-103909523D01*
X107133333Y-104242857D01*
X107133333Y-104100000D01*
X107180952Y-104004761D01*
X107228571Y-103957142D01*
X107323809Y-103909523D01*
X107561904Y-103909523D01*
X107657142Y-103957142D01*
X107704761Y-104004761D01*
X107752380Y-104100000D01*
X107752380Y-104385714D01*
X107704761Y-104480952D01*
X107657142Y-104528571D01*
X159252380Y-56361904D02*
X159252380Y-55790476D01*
X160252380Y-56076190D02*
X159252380Y-56076190D01*
X159252380Y-55552380D02*
X160252380Y-54885714D01*
X159252380Y-54885714D02*
X160252380Y-55552380D01*
X111985714Y-110904761D02*
X112128571Y-110952380D01*
X112366666Y-110952380D01*
X112461904Y-110904761D01*
X112509523Y-110857142D01*
X112557142Y-110761904D01*
X112557142Y-110666666D01*
X112509523Y-110571428D01*
X112461904Y-110523809D01*
X112366666Y-110476190D01*
X112176190Y-110428571D01*
X112080952Y-110380952D01*
X112033333Y-110333333D01*
X111985714Y-110238095D01*
X111985714Y-110142857D01*
X112033333Y-110047619D01*
X112080952Y-110000000D01*
X112176190Y-109952380D01*
X112414285Y-109952380D01*
X112557142Y-110000000D01*
X112985714Y-110952380D02*
X112985714Y-109952380D01*
X113223809Y-109952380D01*
X113366666Y-110000000D01*
X113461904Y-110095238D01*
X113509523Y-110190476D01*
X113557142Y-110380952D01*
X113557142Y-110523809D01*
X113509523Y-110714285D01*
X113461904Y-110809523D01*
X113366666Y-110904761D01*
X113223809Y-110952380D01*
X112985714Y-110952380D01*
X113938095Y-110666666D02*
X114414285Y-110666666D01*
X113842857Y-110952380D02*
X114176190Y-109952380D01*
X114509523Y-110952380D01*
X143557142Y-91352380D02*
X143080952Y-91352380D01*
X143080952Y-90352380D01*
X143890476Y-90685714D02*
X143890476Y-91352380D01*
X143890476Y-90780952D02*
X143938095Y-90733333D01*
X144033333Y-90685714D01*
X144176190Y-90685714D01*
X144271428Y-90733333D01*
X144319047Y-90828571D01*
X144319047Y-91352380D01*
X107604761Y-109890476D02*
X107652380Y-109747619D01*
X107652380Y-109509523D01*
X107604761Y-109414285D01*
X107557142Y-109366666D01*
X107461904Y-109319047D01*
X107366666Y-109319047D01*
X107271428Y-109366666D01*
X107223809Y-109414285D01*
X107176190Y-109509523D01*
X107128571Y-109700000D01*
X107080952Y-109795238D01*
X107033333Y-109842857D01*
X106938095Y-109890476D01*
X106842857Y-109890476D01*
X106747619Y-109842857D01*
X106700000Y-109795238D01*
X106652380Y-109700000D01*
X106652380Y-109461904D01*
X106700000Y-109319047D01*
X107557142Y-108319047D02*
X107604761Y-108366666D01*
X107652380Y-108509523D01*
X107652380Y-108604761D01*
X107604761Y-108747619D01*
X107509523Y-108842857D01*
X107414285Y-108890476D01*
X107223809Y-108938095D01*
X107080952Y-108938095D01*
X106890476Y-108890476D01*
X106795238Y-108842857D01*
X106700000Y-108747619D01*
X106652380Y-108604761D01*
X106652380Y-108509523D01*
X106700000Y-108366666D01*
X106747619Y-108319047D01*
X107652380Y-107414285D02*
X107652380Y-107890476D01*
X106652380Y-107890476D01*
X143152380Y-82590476D02*
X143152380Y-83066666D01*
X143628571Y-83114285D01*
X143580952Y-83066666D01*
X143533333Y-82971428D01*
X143533333Y-82733333D01*
X143580952Y-82638095D01*
X143628571Y-82590476D01*
X143723809Y-82542857D01*
X143961904Y-82542857D01*
X144057142Y-82590476D01*
X144104761Y-82638095D01*
X144152380Y-82733333D01*
X144152380Y-82971428D01*
X144104761Y-83066666D01*
X144057142Y-83114285D01*
X143152380Y-82257142D02*
X144152380Y-81923809D01*
X143152380Y-81590476D01*
X142790476Y-96504761D02*
X142933333Y-96552380D01*
X143171428Y-96552380D01*
X143266666Y-96504761D01*
X143314285Y-96457142D01*
X143361904Y-96361904D01*
X143361904Y-96266666D01*
X143314285Y-96171428D01*
X143266666Y-96123809D01*
X143171428Y-96076190D01*
X142980952Y-96028571D01*
X142885714Y-95980952D01*
X142838095Y-95933333D01*
X142790476Y-95838095D01*
X142790476Y-95742857D01*
X142838095Y-95647619D01*
X142885714Y-95600000D01*
X142980952Y-95552380D01*
X143219047Y-95552380D01*
X143361904Y-95600000D01*
X143695238Y-95885714D02*
X143885714Y-96552380D01*
X144076190Y-96076190D01*
X144266666Y-96552380D01*
X144457142Y-95885714D01*
X142890476Y-85404761D02*
X143033333Y-85452380D01*
X143271428Y-85452380D01*
X143366666Y-85404761D01*
X143414285Y-85357142D01*
X143461904Y-85261904D01*
X143461904Y-85166666D01*
X143414285Y-85071428D01*
X143366666Y-85023809D01*
X143271428Y-84976190D01*
X143080952Y-84928571D01*
X142985714Y-84880952D01*
X142938095Y-84833333D01*
X142890476Y-84738095D01*
X142890476Y-84642857D01*
X142938095Y-84547619D01*
X142985714Y-84500000D01*
X143080952Y-84452380D01*
X143319047Y-84452380D01*
X143461904Y-84500000D01*
X143795238Y-84785714D02*
X143985714Y-85452380D01*
X144176190Y-84976190D01*
X144366666Y-85452380D01*
X144557142Y-84785714D01*
X162852380Y-55766666D02*
X162376190Y-56100000D01*
X162852380Y-56338095D02*
X161852380Y-56338095D01*
X161852380Y-55957142D01*
X161900000Y-55861904D01*
X161947619Y-55814285D01*
X162042857Y-55766666D01*
X162185714Y-55766666D01*
X162280952Y-55814285D01*
X162328571Y-55861904D01*
X162376190Y-55957142D01*
X162376190Y-56338095D01*
X161852380Y-55433333D02*
X162852380Y-54766666D01*
X161852380Y-54766666D02*
X162852380Y-55433333D01*
X143657142Y-80252380D02*
X143180952Y-80252380D01*
X143180952Y-79252380D01*
X143990476Y-79585714D02*
X143990476Y-80252380D01*
X143990476Y-79680952D02*
X144038095Y-79633333D01*
X144133333Y-79585714D01*
X144276190Y-79585714D01*
X144371428Y-79633333D01*
X144419047Y-79728571D01*
X144419047Y-80252380D01*
X112538095Y-112800000D02*
X112442857Y-112752380D01*
X112300000Y-112752380D01*
X112157142Y-112800000D01*
X112061904Y-112895238D01*
X112014285Y-112990476D01*
X111966666Y-113180952D01*
X111966666Y-113323809D01*
X112014285Y-113514285D01*
X112061904Y-113609523D01*
X112157142Y-113704761D01*
X112300000Y-113752380D01*
X112395238Y-113752380D01*
X112538095Y-113704761D01*
X112585714Y-113657142D01*
X112585714Y-113323809D01*
X112395238Y-113323809D01*
X113014285Y-113752380D02*
X113014285Y-112752380D01*
X113585714Y-113752380D01*
X113585714Y-112752380D01*
X114061904Y-113752380D02*
X114061904Y-112752380D01*
X114300000Y-112752380D01*
X114442857Y-112800000D01*
X114538095Y-112895238D01*
X114585714Y-112990476D01*
X114633333Y-113180952D01*
X114633333Y-113323809D01*
X114585714Y-113514285D01*
X114538095Y-113609523D01*
X114442857Y-113704761D01*
X114300000Y-113752380D01*
X114061904Y-113752380D01*
%TO.C,C18*%
X158662142Y-114677142D02*
X158614523Y-114724761D01*
X158471666Y-114772380D01*
X158376428Y-114772380D01*
X158233571Y-114724761D01*
X158138333Y-114629523D01*
X158090714Y-114534285D01*
X158043095Y-114343809D01*
X158043095Y-114200952D01*
X158090714Y-114010476D01*
X158138333Y-113915238D01*
X158233571Y-113820000D01*
X158376428Y-113772380D01*
X158471666Y-113772380D01*
X158614523Y-113820000D01*
X158662142Y-113867619D01*
X159614523Y-114772380D02*
X159043095Y-114772380D01*
X159328809Y-114772380D02*
X159328809Y-113772380D01*
X159233571Y-113915238D01*
X159138333Y-114010476D01*
X159043095Y-114058095D01*
X160185952Y-114200952D02*
X160090714Y-114153333D01*
X160043095Y-114105714D01*
X159995476Y-114010476D01*
X159995476Y-113962857D01*
X160043095Y-113867619D01*
X160090714Y-113820000D01*
X160185952Y-113772380D01*
X160376428Y-113772380D01*
X160471666Y-113820000D01*
X160519285Y-113867619D01*
X160566904Y-113962857D01*
X160566904Y-114010476D01*
X160519285Y-114105714D01*
X160471666Y-114153333D01*
X160376428Y-114200952D01*
X160185952Y-114200952D01*
X160090714Y-114248571D01*
X160043095Y-114296190D01*
X159995476Y-114391428D01*
X159995476Y-114581904D01*
X160043095Y-114677142D01*
X160090714Y-114724761D01*
X160185952Y-114772380D01*
X160376428Y-114772380D01*
X160471666Y-114724761D01*
X160519285Y-114677142D01*
X160566904Y-114581904D01*
X160566904Y-114391428D01*
X160519285Y-114296190D01*
X160471666Y-114248571D01*
X160376428Y-114200952D01*
%TO.C,R46*%
X108632142Y-69152380D02*
X108298809Y-68676190D01*
X108060714Y-69152380D02*
X108060714Y-68152380D01*
X108441666Y-68152380D01*
X108536904Y-68200000D01*
X108584523Y-68247619D01*
X108632142Y-68342857D01*
X108632142Y-68485714D01*
X108584523Y-68580952D01*
X108536904Y-68628571D01*
X108441666Y-68676190D01*
X108060714Y-68676190D01*
X109489285Y-68485714D02*
X109489285Y-69152380D01*
X109251190Y-68104761D02*
X109013095Y-68819047D01*
X109632142Y-68819047D01*
X110441666Y-68152380D02*
X110251190Y-68152380D01*
X110155952Y-68200000D01*
X110108333Y-68247619D01*
X110013095Y-68390476D01*
X109965476Y-68580952D01*
X109965476Y-68961904D01*
X110013095Y-69057142D01*
X110060714Y-69104761D01*
X110155952Y-69152380D01*
X110346428Y-69152380D01*
X110441666Y-69104761D01*
X110489285Y-69057142D01*
X110536904Y-68961904D01*
X110536904Y-68723809D01*
X110489285Y-68628571D01*
X110441666Y-68580952D01*
X110346428Y-68533333D01*
X110155952Y-68533333D01*
X110060714Y-68580952D01*
X110013095Y-68628571D01*
X109965476Y-68723809D01*
%TO.C,R26*%
X122907142Y-91072380D02*
X122573809Y-90596190D01*
X122335714Y-91072380D02*
X122335714Y-90072380D01*
X122716666Y-90072380D01*
X122811904Y-90120000D01*
X122859523Y-90167619D01*
X122907142Y-90262857D01*
X122907142Y-90405714D01*
X122859523Y-90500952D01*
X122811904Y-90548571D01*
X122716666Y-90596190D01*
X122335714Y-90596190D01*
X123288095Y-90167619D02*
X123335714Y-90120000D01*
X123430952Y-90072380D01*
X123669047Y-90072380D01*
X123764285Y-90120000D01*
X123811904Y-90167619D01*
X123859523Y-90262857D01*
X123859523Y-90358095D01*
X123811904Y-90500952D01*
X123240476Y-91072380D01*
X123859523Y-91072380D01*
X124716666Y-90072380D02*
X124526190Y-90072380D01*
X124430952Y-90120000D01*
X124383333Y-90167619D01*
X124288095Y-90310476D01*
X124240476Y-90500952D01*
X124240476Y-90881904D01*
X124288095Y-90977142D01*
X124335714Y-91024761D01*
X124430952Y-91072380D01*
X124621428Y-91072380D01*
X124716666Y-91024761D01*
X124764285Y-90977142D01*
X124811904Y-90881904D01*
X124811904Y-90643809D01*
X124764285Y-90548571D01*
X124716666Y-90500952D01*
X124621428Y-90453333D01*
X124430952Y-90453333D01*
X124335714Y-90500952D01*
X124288095Y-90548571D01*
X124240476Y-90643809D01*
%TO.C,J3*%
X125816666Y-124602380D02*
X125816666Y-125316666D01*
X125769047Y-125459523D01*
X125673809Y-125554761D01*
X125530952Y-125602380D01*
X125435714Y-125602380D01*
X126197619Y-124602380D02*
X126816666Y-124602380D01*
X126483333Y-124983333D01*
X126626190Y-124983333D01*
X126721428Y-125030952D01*
X126769047Y-125078571D01*
X126816666Y-125173809D01*
X126816666Y-125411904D01*
X126769047Y-125507142D01*
X126721428Y-125554761D01*
X126626190Y-125602380D01*
X126340476Y-125602380D01*
X126245238Y-125554761D01*
X126197619Y-125507142D01*
%TO.C,J8*%
X173639880Y-126150833D02*
X174354166Y-126150833D01*
X174497023Y-126198452D01*
X174592261Y-126293690D01*
X174639880Y-126436547D01*
X174639880Y-126531785D01*
X174068452Y-125531785D02*
X174020833Y-125627023D01*
X173973214Y-125674642D01*
X173877976Y-125722261D01*
X173830357Y-125722261D01*
X173735119Y-125674642D01*
X173687500Y-125627023D01*
X173639880Y-125531785D01*
X173639880Y-125341309D01*
X173687500Y-125246071D01*
X173735119Y-125198452D01*
X173830357Y-125150833D01*
X173877976Y-125150833D01*
X173973214Y-125198452D01*
X174020833Y-125246071D01*
X174068452Y-125341309D01*
X174068452Y-125531785D01*
X174116071Y-125627023D01*
X174163690Y-125674642D01*
X174258928Y-125722261D01*
X174449404Y-125722261D01*
X174544642Y-125674642D01*
X174592261Y-125627023D01*
X174639880Y-125531785D01*
X174639880Y-125341309D01*
X174592261Y-125246071D01*
X174544642Y-125198452D01*
X174449404Y-125150833D01*
X174258928Y-125150833D01*
X174163690Y-125198452D01*
X174116071Y-125246071D01*
X174068452Y-125341309D01*
%TO.C,C26*%
X158657142Y-84257142D02*
X158609523Y-84304761D01*
X158466666Y-84352380D01*
X158371428Y-84352380D01*
X158228571Y-84304761D01*
X158133333Y-84209523D01*
X158085714Y-84114285D01*
X158038095Y-83923809D01*
X158038095Y-83780952D01*
X158085714Y-83590476D01*
X158133333Y-83495238D01*
X158228571Y-83400000D01*
X158371428Y-83352380D01*
X158466666Y-83352380D01*
X158609523Y-83400000D01*
X158657142Y-83447619D01*
X159038095Y-83447619D02*
X159085714Y-83400000D01*
X159180952Y-83352380D01*
X159419047Y-83352380D01*
X159514285Y-83400000D01*
X159561904Y-83447619D01*
X159609523Y-83542857D01*
X159609523Y-83638095D01*
X159561904Y-83780952D01*
X158990476Y-84352380D01*
X159609523Y-84352380D01*
X160466666Y-83352380D02*
X160276190Y-83352380D01*
X160180952Y-83400000D01*
X160133333Y-83447619D01*
X160038095Y-83590476D01*
X159990476Y-83780952D01*
X159990476Y-84161904D01*
X160038095Y-84257142D01*
X160085714Y-84304761D01*
X160180952Y-84352380D01*
X160371428Y-84352380D01*
X160466666Y-84304761D01*
X160514285Y-84257142D01*
X160561904Y-84161904D01*
X160561904Y-83923809D01*
X160514285Y-83828571D01*
X160466666Y-83780952D01*
X160371428Y-83733333D01*
X160180952Y-83733333D01*
X160085714Y-83780952D01*
X160038095Y-83828571D01*
X159990476Y-83923809D01*
%TO.C,L2*%
X116802380Y-84466666D02*
X116802380Y-84942857D01*
X115802380Y-84942857D01*
X115897619Y-84180952D02*
X115850000Y-84133333D01*
X115802380Y-84038095D01*
X115802380Y-83800000D01*
X115850000Y-83704761D01*
X115897619Y-83657142D01*
X115992857Y-83609523D01*
X116088095Y-83609523D01*
X116230952Y-83657142D01*
X116802380Y-84228571D01*
X116802380Y-83609523D01*
%TO.C,C3*%
X137477142Y-60466666D02*
X137524761Y-60514285D01*
X137572380Y-60657142D01*
X137572380Y-60752380D01*
X137524761Y-60895238D01*
X137429523Y-60990476D01*
X137334285Y-61038095D01*
X137143809Y-61085714D01*
X137000952Y-61085714D01*
X136810476Y-61038095D01*
X136715238Y-60990476D01*
X136620000Y-60895238D01*
X136572380Y-60752380D01*
X136572380Y-60657142D01*
X136620000Y-60514285D01*
X136667619Y-60466666D01*
X136572380Y-60133333D02*
X136572380Y-59514285D01*
X136953333Y-59847619D01*
X136953333Y-59704761D01*
X137000952Y-59609523D01*
X137048571Y-59561904D01*
X137143809Y-59514285D01*
X137381904Y-59514285D01*
X137477142Y-59561904D01*
X137524761Y-59609523D01*
X137572380Y-59704761D01*
X137572380Y-59990476D01*
X137524761Y-60085714D01*
X137477142Y-60133333D01*
%TO.C,C2*%
X136913333Y-72027142D02*
X136865714Y-72074761D01*
X136722857Y-72122380D01*
X136627619Y-72122380D01*
X136484761Y-72074761D01*
X136389523Y-71979523D01*
X136341904Y-71884285D01*
X136294285Y-71693809D01*
X136294285Y-71550952D01*
X136341904Y-71360476D01*
X136389523Y-71265238D01*
X136484761Y-71170000D01*
X136627619Y-71122380D01*
X136722857Y-71122380D01*
X136865714Y-71170000D01*
X136913333Y-71217619D01*
X137294285Y-71217619D02*
X137341904Y-71170000D01*
X137437142Y-71122380D01*
X137675238Y-71122380D01*
X137770476Y-71170000D01*
X137818095Y-71217619D01*
X137865714Y-71312857D01*
X137865714Y-71408095D01*
X137818095Y-71550952D01*
X137246666Y-72122380D01*
X137865714Y-72122380D01*
%TO.C,C34*%
X152907142Y-95757142D02*
X152859523Y-95804761D01*
X152716666Y-95852380D01*
X152621428Y-95852380D01*
X152478571Y-95804761D01*
X152383333Y-95709523D01*
X152335714Y-95614285D01*
X152288095Y-95423809D01*
X152288095Y-95280952D01*
X152335714Y-95090476D01*
X152383333Y-94995238D01*
X152478571Y-94900000D01*
X152621428Y-94852380D01*
X152716666Y-94852380D01*
X152859523Y-94900000D01*
X152907142Y-94947619D01*
X153240476Y-94852380D02*
X153859523Y-94852380D01*
X153526190Y-95233333D01*
X153669047Y-95233333D01*
X153764285Y-95280952D01*
X153811904Y-95328571D01*
X153859523Y-95423809D01*
X153859523Y-95661904D01*
X153811904Y-95757142D01*
X153764285Y-95804761D01*
X153669047Y-95852380D01*
X153383333Y-95852380D01*
X153288095Y-95804761D01*
X153240476Y-95757142D01*
X154716666Y-95185714D02*
X154716666Y-95852380D01*
X154478571Y-94804761D02*
X154240476Y-95519047D01*
X154859523Y-95519047D01*
%TO.C,R35*%
X111082380Y-92692857D02*
X110606190Y-93026190D01*
X111082380Y-93264285D02*
X110082380Y-93264285D01*
X110082380Y-92883333D01*
X110130000Y-92788095D01*
X110177619Y-92740476D01*
X110272857Y-92692857D01*
X110415714Y-92692857D01*
X110510952Y-92740476D01*
X110558571Y-92788095D01*
X110606190Y-92883333D01*
X110606190Y-93264285D01*
X110082380Y-92359523D02*
X110082380Y-91740476D01*
X110463333Y-92073809D01*
X110463333Y-91930952D01*
X110510952Y-91835714D01*
X110558571Y-91788095D01*
X110653809Y-91740476D01*
X110891904Y-91740476D01*
X110987142Y-91788095D01*
X111034761Y-91835714D01*
X111082380Y-91930952D01*
X111082380Y-92216666D01*
X111034761Y-92311904D01*
X110987142Y-92359523D01*
X110082380Y-90835714D02*
X110082380Y-91311904D01*
X110558571Y-91359523D01*
X110510952Y-91311904D01*
X110463333Y-91216666D01*
X110463333Y-90978571D01*
X110510952Y-90883333D01*
X110558571Y-90835714D01*
X110653809Y-90788095D01*
X110891904Y-90788095D01*
X110987142Y-90835714D01*
X111034761Y-90883333D01*
X111082380Y-90978571D01*
X111082380Y-91216666D01*
X111034761Y-91311904D01*
X110987142Y-91359523D01*
%TO.C,R15*%
X141567142Y-137622380D02*
X141233809Y-137146190D01*
X140995714Y-137622380D02*
X140995714Y-136622380D01*
X141376666Y-136622380D01*
X141471904Y-136670000D01*
X141519523Y-136717619D01*
X141567142Y-136812857D01*
X141567142Y-136955714D01*
X141519523Y-137050952D01*
X141471904Y-137098571D01*
X141376666Y-137146190D01*
X140995714Y-137146190D01*
X142519523Y-137622380D02*
X141948095Y-137622380D01*
X142233809Y-137622380D02*
X142233809Y-136622380D01*
X142138571Y-136765238D01*
X142043333Y-136860476D01*
X141948095Y-136908095D01*
X143424285Y-136622380D02*
X142948095Y-136622380D01*
X142900476Y-137098571D01*
X142948095Y-137050952D01*
X143043333Y-137003333D01*
X143281428Y-137003333D01*
X143376666Y-137050952D01*
X143424285Y-137098571D01*
X143471904Y-137193809D01*
X143471904Y-137431904D01*
X143424285Y-137527142D01*
X143376666Y-137574761D01*
X143281428Y-137622380D01*
X143043333Y-137622380D01*
X142948095Y-137574761D01*
X142900476Y-137527142D01*
%TO.C,R21*%
X152207142Y-135032380D02*
X151873809Y-134556190D01*
X151635714Y-135032380D02*
X151635714Y-134032380D01*
X152016666Y-134032380D01*
X152111904Y-134080000D01*
X152159523Y-134127619D01*
X152207142Y-134222857D01*
X152207142Y-134365714D01*
X152159523Y-134460952D01*
X152111904Y-134508571D01*
X152016666Y-134556190D01*
X151635714Y-134556190D01*
X152588095Y-134127619D02*
X152635714Y-134080000D01*
X152730952Y-134032380D01*
X152969047Y-134032380D01*
X153064285Y-134080000D01*
X153111904Y-134127619D01*
X153159523Y-134222857D01*
X153159523Y-134318095D01*
X153111904Y-134460952D01*
X152540476Y-135032380D01*
X153159523Y-135032380D01*
X154111904Y-135032380D02*
X153540476Y-135032380D01*
X153826190Y-135032380D02*
X153826190Y-134032380D01*
X153730952Y-134175238D01*
X153635714Y-134270476D01*
X153540476Y-134318095D01*
%TO.C,J10*%
X145790476Y-98252380D02*
X145790476Y-98966666D01*
X145742857Y-99109523D01*
X145647619Y-99204761D01*
X145504761Y-99252380D01*
X145409523Y-99252380D01*
X146790476Y-99252380D02*
X146219047Y-99252380D01*
X146504761Y-99252380D02*
X146504761Y-98252380D01*
X146409523Y-98395238D01*
X146314285Y-98490476D01*
X146219047Y-98538095D01*
X147409523Y-98252380D02*
X147504761Y-98252380D01*
X147600000Y-98300000D01*
X147647619Y-98347619D01*
X147695238Y-98442857D01*
X147742857Y-98633333D01*
X147742857Y-98871428D01*
X147695238Y-99061904D01*
X147647619Y-99157142D01*
X147600000Y-99204761D01*
X147504761Y-99252380D01*
X147409523Y-99252380D01*
X147314285Y-99204761D01*
X147266666Y-99157142D01*
X147219047Y-99061904D01*
X147171428Y-98871428D01*
X147171428Y-98633333D01*
X147219047Y-98442857D01*
X147266666Y-98347619D01*
X147314285Y-98300000D01*
X147409523Y-98252380D01*
%TO.C,SW2*%
X146866666Y-51489761D02*
X147009523Y-51537380D01*
X147247619Y-51537380D01*
X147342857Y-51489761D01*
X147390476Y-51442142D01*
X147438095Y-51346904D01*
X147438095Y-51251666D01*
X147390476Y-51156428D01*
X147342857Y-51108809D01*
X147247619Y-51061190D01*
X147057142Y-51013571D01*
X146961904Y-50965952D01*
X146914285Y-50918333D01*
X146866666Y-50823095D01*
X146866666Y-50727857D01*
X146914285Y-50632619D01*
X146961904Y-50585000D01*
X147057142Y-50537380D01*
X147295238Y-50537380D01*
X147438095Y-50585000D01*
X147771428Y-50537380D02*
X148009523Y-51537380D01*
X148200000Y-50823095D01*
X148390476Y-51537380D01*
X148628571Y-50537380D01*
X148961904Y-50632619D02*
X149009523Y-50585000D01*
X149104761Y-50537380D01*
X149342857Y-50537380D01*
X149438095Y-50585000D01*
X149485714Y-50632619D01*
X149533333Y-50727857D01*
X149533333Y-50823095D01*
X149485714Y-50965952D01*
X148914285Y-51537380D01*
X149533333Y-51537380D01*
%TO.C,R33*%
X129582380Y-84942857D02*
X129106190Y-85276190D01*
X129582380Y-85514285D02*
X128582380Y-85514285D01*
X128582380Y-85133333D01*
X128630000Y-85038095D01*
X128677619Y-84990476D01*
X128772857Y-84942857D01*
X128915714Y-84942857D01*
X129010952Y-84990476D01*
X129058571Y-85038095D01*
X129106190Y-85133333D01*
X129106190Y-85514285D01*
X128582380Y-84609523D02*
X128582380Y-83990476D01*
X128963333Y-84323809D01*
X128963333Y-84180952D01*
X129010952Y-84085714D01*
X129058571Y-84038095D01*
X129153809Y-83990476D01*
X129391904Y-83990476D01*
X129487142Y-84038095D01*
X129534761Y-84085714D01*
X129582380Y-84180952D01*
X129582380Y-84466666D01*
X129534761Y-84561904D01*
X129487142Y-84609523D01*
X128582380Y-83657142D02*
X128582380Y-83038095D01*
X128963333Y-83371428D01*
X128963333Y-83228571D01*
X129010952Y-83133333D01*
X129058571Y-83085714D01*
X129153809Y-83038095D01*
X129391904Y-83038095D01*
X129487142Y-83085714D01*
X129534761Y-83133333D01*
X129582380Y-83228571D01*
X129582380Y-83514285D01*
X129534761Y-83609523D01*
X129487142Y-83657142D01*
%TO.C,R13*%
X120207142Y-109502380D02*
X119873809Y-109026190D01*
X119635714Y-109502380D02*
X119635714Y-108502380D01*
X120016666Y-108502380D01*
X120111904Y-108550000D01*
X120159523Y-108597619D01*
X120207142Y-108692857D01*
X120207142Y-108835714D01*
X120159523Y-108930952D01*
X120111904Y-108978571D01*
X120016666Y-109026190D01*
X119635714Y-109026190D01*
X121159523Y-109502380D02*
X120588095Y-109502380D01*
X120873809Y-109502380D02*
X120873809Y-108502380D01*
X120778571Y-108645238D01*
X120683333Y-108740476D01*
X120588095Y-108788095D01*
X121492857Y-108502380D02*
X122111904Y-108502380D01*
X121778571Y-108883333D01*
X121921428Y-108883333D01*
X122016666Y-108930952D01*
X122064285Y-108978571D01*
X122111904Y-109073809D01*
X122111904Y-109311904D01*
X122064285Y-109407142D01*
X122016666Y-109454761D01*
X121921428Y-109502380D01*
X121635714Y-109502380D01*
X121540476Y-109454761D01*
X121492857Y-109407142D01*
%TO.C,J37*%
X164082380Y-59359523D02*
X164796666Y-59359523D01*
X164939523Y-59407142D01*
X165034761Y-59502380D01*
X165082380Y-59645238D01*
X165082380Y-59740476D01*
X164082380Y-58978571D02*
X164082380Y-58359523D01*
X164463333Y-58692857D01*
X164463333Y-58550000D01*
X164510952Y-58454761D01*
X164558571Y-58407142D01*
X164653809Y-58359523D01*
X164891904Y-58359523D01*
X164987142Y-58407142D01*
X165034761Y-58454761D01*
X165082380Y-58550000D01*
X165082380Y-58835714D01*
X165034761Y-58930952D01*
X164987142Y-58978571D01*
X164082380Y-58026190D02*
X164082380Y-57359523D01*
X165082380Y-57788095D01*
%TO.C,C27*%
X158657142Y-80507142D02*
X158609523Y-80554761D01*
X158466666Y-80602380D01*
X158371428Y-80602380D01*
X158228571Y-80554761D01*
X158133333Y-80459523D01*
X158085714Y-80364285D01*
X158038095Y-80173809D01*
X158038095Y-80030952D01*
X158085714Y-79840476D01*
X158133333Y-79745238D01*
X158228571Y-79650000D01*
X158371428Y-79602380D01*
X158466666Y-79602380D01*
X158609523Y-79650000D01*
X158657142Y-79697619D01*
X159038095Y-79697619D02*
X159085714Y-79650000D01*
X159180952Y-79602380D01*
X159419047Y-79602380D01*
X159514285Y-79650000D01*
X159561904Y-79697619D01*
X159609523Y-79792857D01*
X159609523Y-79888095D01*
X159561904Y-80030952D01*
X158990476Y-80602380D01*
X159609523Y-80602380D01*
X159942857Y-79602380D02*
X160609523Y-79602380D01*
X160180952Y-80602380D01*
%TO.C,R41*%
X108657142Y-73432380D02*
X108323809Y-72956190D01*
X108085714Y-73432380D02*
X108085714Y-72432380D01*
X108466666Y-72432380D01*
X108561904Y-72480000D01*
X108609523Y-72527619D01*
X108657142Y-72622857D01*
X108657142Y-72765714D01*
X108609523Y-72860952D01*
X108561904Y-72908571D01*
X108466666Y-72956190D01*
X108085714Y-72956190D01*
X109514285Y-72765714D02*
X109514285Y-73432380D01*
X109276190Y-72384761D02*
X109038095Y-73099047D01*
X109657142Y-73099047D01*
X110561904Y-73432380D02*
X109990476Y-73432380D01*
X110276190Y-73432380D02*
X110276190Y-72432380D01*
X110180952Y-72575238D01*
X110085714Y-72670476D01*
X109990476Y-72718095D01*
%TO.C,U1*%
X151558095Y-66612380D02*
X151558095Y-67421904D01*
X151605714Y-67517142D01*
X151653333Y-67564761D01*
X151748571Y-67612380D01*
X151939047Y-67612380D01*
X152034285Y-67564761D01*
X152081904Y-67517142D01*
X152129523Y-67421904D01*
X152129523Y-66612380D01*
X153129523Y-67612380D02*
X152558095Y-67612380D01*
X152843809Y-67612380D02*
X152843809Y-66612380D01*
X152748571Y-66755238D01*
X152653333Y-66850476D01*
X152558095Y-66898095D01*
%TO.C,R12*%
X125332380Y-110892857D02*
X124856190Y-111226190D01*
X125332380Y-111464285D02*
X124332380Y-111464285D01*
X124332380Y-111083333D01*
X124380000Y-110988095D01*
X124427619Y-110940476D01*
X124522857Y-110892857D01*
X124665714Y-110892857D01*
X124760952Y-110940476D01*
X124808571Y-110988095D01*
X124856190Y-111083333D01*
X124856190Y-111464285D01*
X125332380Y-109940476D02*
X125332380Y-110511904D01*
X125332380Y-110226190D02*
X124332380Y-110226190D01*
X124475238Y-110321428D01*
X124570476Y-110416666D01*
X124618095Y-110511904D01*
X124427619Y-109559523D02*
X124380000Y-109511904D01*
X124332380Y-109416666D01*
X124332380Y-109178571D01*
X124380000Y-109083333D01*
X124427619Y-109035714D01*
X124522857Y-108988095D01*
X124618095Y-108988095D01*
X124760952Y-109035714D01*
X125332380Y-109607142D01*
X125332380Y-108988095D01*
%TO.C,C44*%
X117607142Y-97477142D02*
X117559523Y-97524761D01*
X117416666Y-97572380D01*
X117321428Y-97572380D01*
X117178571Y-97524761D01*
X117083333Y-97429523D01*
X117035714Y-97334285D01*
X116988095Y-97143809D01*
X116988095Y-97000952D01*
X117035714Y-96810476D01*
X117083333Y-96715238D01*
X117178571Y-96620000D01*
X117321428Y-96572380D01*
X117416666Y-96572380D01*
X117559523Y-96620000D01*
X117607142Y-96667619D01*
X118464285Y-96905714D02*
X118464285Y-97572380D01*
X118226190Y-96524761D02*
X117988095Y-97239047D01*
X118607142Y-97239047D01*
X119416666Y-96905714D02*
X119416666Y-97572380D01*
X119178571Y-96524761D02*
X118940476Y-97239047D01*
X119559523Y-97239047D01*
%TO.C,R5*%
X116633333Y-60102380D02*
X116300000Y-59626190D01*
X116061904Y-60102380D02*
X116061904Y-59102380D01*
X116442857Y-59102380D01*
X116538095Y-59150000D01*
X116585714Y-59197619D01*
X116633333Y-59292857D01*
X116633333Y-59435714D01*
X116585714Y-59530952D01*
X116538095Y-59578571D01*
X116442857Y-59626190D01*
X116061904Y-59626190D01*
X117538095Y-59102380D02*
X117061904Y-59102380D01*
X117014285Y-59578571D01*
X117061904Y-59530952D01*
X117157142Y-59483333D01*
X117395238Y-59483333D01*
X117490476Y-59530952D01*
X117538095Y-59578571D01*
X117585714Y-59673809D01*
X117585714Y-59911904D01*
X117538095Y-60007142D01*
X117490476Y-60054761D01*
X117395238Y-60102380D01*
X117157142Y-60102380D01*
X117061904Y-60054761D01*
X117014285Y-60007142D01*
%TO.C,R8*%
X137602380Y-103416666D02*
X137126190Y-103750000D01*
X137602380Y-103988095D02*
X136602380Y-103988095D01*
X136602380Y-103607142D01*
X136650000Y-103511904D01*
X136697619Y-103464285D01*
X136792857Y-103416666D01*
X136935714Y-103416666D01*
X137030952Y-103464285D01*
X137078571Y-103511904D01*
X137126190Y-103607142D01*
X137126190Y-103988095D01*
X137030952Y-102845238D02*
X136983333Y-102940476D01*
X136935714Y-102988095D01*
X136840476Y-103035714D01*
X136792857Y-103035714D01*
X136697619Y-102988095D01*
X136650000Y-102940476D01*
X136602380Y-102845238D01*
X136602380Y-102654761D01*
X136650000Y-102559523D01*
X136697619Y-102511904D01*
X136792857Y-102464285D01*
X136840476Y-102464285D01*
X136935714Y-102511904D01*
X136983333Y-102559523D01*
X137030952Y-102654761D01*
X137030952Y-102845238D01*
X137078571Y-102940476D01*
X137126190Y-102988095D01*
X137221428Y-103035714D01*
X137411904Y-103035714D01*
X137507142Y-102988095D01*
X137554761Y-102940476D01*
X137602380Y-102845238D01*
X137602380Y-102654761D01*
X137554761Y-102559523D01*
X137507142Y-102511904D01*
X137411904Y-102464285D01*
X137221428Y-102464285D01*
X137126190Y-102511904D01*
X137078571Y-102559523D01*
X137030952Y-102654761D01*
%TO.C,U6*%
X114988095Y-100902380D02*
X114988095Y-101711904D01*
X115035714Y-101807142D01*
X115083333Y-101854761D01*
X115178571Y-101902380D01*
X115369047Y-101902380D01*
X115464285Y-101854761D01*
X115511904Y-101807142D01*
X115559523Y-101711904D01*
X115559523Y-100902380D01*
X116464285Y-100902380D02*
X116273809Y-100902380D01*
X116178571Y-100950000D01*
X116130952Y-100997619D01*
X116035714Y-101140476D01*
X115988095Y-101330952D01*
X115988095Y-101711904D01*
X116035714Y-101807142D01*
X116083333Y-101854761D01*
X116178571Y-101902380D01*
X116369047Y-101902380D01*
X116464285Y-101854761D01*
X116511904Y-101807142D01*
X116559523Y-101711904D01*
X116559523Y-101473809D01*
X116511904Y-101378571D01*
X116464285Y-101330952D01*
X116369047Y-101283333D01*
X116178571Y-101283333D01*
X116083333Y-101330952D01*
X116035714Y-101378571D01*
X115988095Y-101473809D01*
%TO.C,C8*%
X135808333Y-111437142D02*
X135760714Y-111484761D01*
X135617857Y-111532380D01*
X135522619Y-111532380D01*
X135379761Y-111484761D01*
X135284523Y-111389523D01*
X135236904Y-111294285D01*
X135189285Y-111103809D01*
X135189285Y-110960952D01*
X135236904Y-110770476D01*
X135284523Y-110675238D01*
X135379761Y-110580000D01*
X135522619Y-110532380D01*
X135617857Y-110532380D01*
X135760714Y-110580000D01*
X135808333Y-110627619D01*
X136379761Y-110960952D02*
X136284523Y-110913333D01*
X136236904Y-110865714D01*
X136189285Y-110770476D01*
X136189285Y-110722857D01*
X136236904Y-110627619D01*
X136284523Y-110580000D01*
X136379761Y-110532380D01*
X136570238Y-110532380D01*
X136665476Y-110580000D01*
X136713095Y-110627619D01*
X136760714Y-110722857D01*
X136760714Y-110770476D01*
X136713095Y-110865714D01*
X136665476Y-110913333D01*
X136570238Y-110960952D01*
X136379761Y-110960952D01*
X136284523Y-111008571D01*
X136236904Y-111056190D01*
X136189285Y-111151428D01*
X136189285Y-111341904D01*
X136236904Y-111437142D01*
X136284523Y-111484761D01*
X136379761Y-111532380D01*
X136570238Y-111532380D01*
X136665476Y-111484761D01*
X136713095Y-111437142D01*
X136760714Y-111341904D01*
X136760714Y-111151428D01*
X136713095Y-111056190D01*
X136665476Y-111008571D01*
X136570238Y-110960952D01*
%TO.C,SW3*%
X179816666Y-57954761D02*
X179959523Y-58002380D01*
X180197619Y-58002380D01*
X180292857Y-57954761D01*
X180340476Y-57907142D01*
X180388095Y-57811904D01*
X180388095Y-57716666D01*
X180340476Y-57621428D01*
X180292857Y-57573809D01*
X180197619Y-57526190D01*
X180007142Y-57478571D01*
X179911904Y-57430952D01*
X179864285Y-57383333D01*
X179816666Y-57288095D01*
X179816666Y-57192857D01*
X179864285Y-57097619D01*
X179911904Y-57050000D01*
X180007142Y-57002380D01*
X180245238Y-57002380D01*
X180388095Y-57050000D01*
X180721428Y-57002380D02*
X180959523Y-58002380D01*
X181150000Y-57288095D01*
X181340476Y-58002380D01*
X181578571Y-57002380D01*
X181864285Y-57002380D02*
X182483333Y-57002380D01*
X182150000Y-57383333D01*
X182292857Y-57383333D01*
X182388095Y-57430952D01*
X182435714Y-57478571D01*
X182483333Y-57573809D01*
X182483333Y-57811904D01*
X182435714Y-57907142D01*
X182388095Y-57954761D01*
X182292857Y-58002380D01*
X182007142Y-58002380D01*
X181911904Y-57954761D01*
X181864285Y-57907142D01*
%TO.C,C36*%
X152907142Y-88007142D02*
X152859523Y-88054761D01*
X152716666Y-88102380D01*
X152621428Y-88102380D01*
X152478571Y-88054761D01*
X152383333Y-87959523D01*
X152335714Y-87864285D01*
X152288095Y-87673809D01*
X152288095Y-87530952D01*
X152335714Y-87340476D01*
X152383333Y-87245238D01*
X152478571Y-87150000D01*
X152621428Y-87102380D01*
X152716666Y-87102380D01*
X152859523Y-87150000D01*
X152907142Y-87197619D01*
X153240476Y-87102380D02*
X153859523Y-87102380D01*
X153526190Y-87483333D01*
X153669047Y-87483333D01*
X153764285Y-87530952D01*
X153811904Y-87578571D01*
X153859523Y-87673809D01*
X153859523Y-87911904D01*
X153811904Y-88007142D01*
X153764285Y-88054761D01*
X153669047Y-88102380D01*
X153383333Y-88102380D01*
X153288095Y-88054761D01*
X153240476Y-88007142D01*
X154716666Y-87102380D02*
X154526190Y-87102380D01*
X154430952Y-87150000D01*
X154383333Y-87197619D01*
X154288095Y-87340476D01*
X154240476Y-87530952D01*
X154240476Y-87911904D01*
X154288095Y-88007142D01*
X154335714Y-88054761D01*
X154430952Y-88102380D01*
X154621428Y-88102380D01*
X154716666Y-88054761D01*
X154764285Y-88007142D01*
X154811904Y-87911904D01*
X154811904Y-87673809D01*
X154764285Y-87578571D01*
X154716666Y-87530952D01*
X154621428Y-87483333D01*
X154430952Y-87483333D01*
X154335714Y-87530952D01*
X154288095Y-87578571D01*
X154240476Y-87673809D01*
%TO.C,C10*%
X102607142Y-75477142D02*
X102559523Y-75524761D01*
X102416666Y-75572380D01*
X102321428Y-75572380D01*
X102178571Y-75524761D01*
X102083333Y-75429523D01*
X102035714Y-75334285D01*
X101988095Y-75143809D01*
X101988095Y-75000952D01*
X102035714Y-74810476D01*
X102083333Y-74715238D01*
X102178571Y-74620000D01*
X102321428Y-74572380D01*
X102416666Y-74572380D01*
X102559523Y-74620000D01*
X102607142Y-74667619D01*
X103559523Y-75572380D02*
X102988095Y-75572380D01*
X103273809Y-75572380D02*
X103273809Y-74572380D01*
X103178571Y-74715238D01*
X103083333Y-74810476D01*
X102988095Y-74858095D01*
X104178571Y-74572380D02*
X104273809Y-74572380D01*
X104369047Y-74620000D01*
X104416666Y-74667619D01*
X104464285Y-74762857D01*
X104511904Y-74953333D01*
X104511904Y-75191428D01*
X104464285Y-75381904D01*
X104416666Y-75477142D01*
X104369047Y-75524761D01*
X104273809Y-75572380D01*
X104178571Y-75572380D01*
X104083333Y-75524761D01*
X104035714Y-75477142D01*
X103988095Y-75381904D01*
X103940476Y-75191428D01*
X103940476Y-74953333D01*
X103988095Y-74762857D01*
X104035714Y-74667619D01*
X104083333Y-74620000D01*
X104178571Y-74572380D01*
%TO.C,U3*%
X142038095Y-62152380D02*
X142038095Y-62961904D01*
X142085714Y-63057142D01*
X142133333Y-63104761D01*
X142228571Y-63152380D01*
X142419047Y-63152380D01*
X142514285Y-63104761D01*
X142561904Y-63057142D01*
X142609523Y-62961904D01*
X142609523Y-62152380D01*
X142990476Y-62152380D02*
X143609523Y-62152380D01*
X143276190Y-62533333D01*
X143419047Y-62533333D01*
X143514285Y-62580952D01*
X143561904Y-62628571D01*
X143609523Y-62723809D01*
X143609523Y-62961904D01*
X143561904Y-63057142D01*
X143514285Y-63104761D01*
X143419047Y-63152380D01*
X143133333Y-63152380D01*
X143038095Y-63104761D01*
X142990476Y-63057142D01*
%TO.C,U5*%
X118788095Y-118802380D02*
X118788095Y-119611904D01*
X118835714Y-119707142D01*
X118883333Y-119754761D01*
X118978571Y-119802380D01*
X119169047Y-119802380D01*
X119264285Y-119754761D01*
X119311904Y-119707142D01*
X119359523Y-119611904D01*
X119359523Y-118802380D01*
X120311904Y-118802380D02*
X119835714Y-118802380D01*
X119788095Y-119278571D01*
X119835714Y-119230952D01*
X119930952Y-119183333D01*
X120169047Y-119183333D01*
X120264285Y-119230952D01*
X120311904Y-119278571D01*
X120359523Y-119373809D01*
X120359523Y-119611904D01*
X120311904Y-119707142D01*
X120264285Y-119754761D01*
X120169047Y-119802380D01*
X119930952Y-119802380D01*
X119835714Y-119754761D01*
X119788095Y-119707142D01*
%TO.C,R28*%
X112807142Y-117302380D02*
X112473809Y-116826190D01*
X112235714Y-117302380D02*
X112235714Y-116302380D01*
X112616666Y-116302380D01*
X112711904Y-116350000D01*
X112759523Y-116397619D01*
X112807142Y-116492857D01*
X112807142Y-116635714D01*
X112759523Y-116730952D01*
X112711904Y-116778571D01*
X112616666Y-116826190D01*
X112235714Y-116826190D01*
X113188095Y-116397619D02*
X113235714Y-116350000D01*
X113330952Y-116302380D01*
X113569047Y-116302380D01*
X113664285Y-116350000D01*
X113711904Y-116397619D01*
X113759523Y-116492857D01*
X113759523Y-116588095D01*
X113711904Y-116730952D01*
X113140476Y-117302380D01*
X113759523Y-117302380D01*
X114330952Y-116730952D02*
X114235714Y-116683333D01*
X114188095Y-116635714D01*
X114140476Y-116540476D01*
X114140476Y-116492857D01*
X114188095Y-116397619D01*
X114235714Y-116350000D01*
X114330952Y-116302380D01*
X114521428Y-116302380D01*
X114616666Y-116350000D01*
X114664285Y-116397619D01*
X114711904Y-116492857D01*
X114711904Y-116540476D01*
X114664285Y-116635714D01*
X114616666Y-116683333D01*
X114521428Y-116730952D01*
X114330952Y-116730952D01*
X114235714Y-116778571D01*
X114188095Y-116826190D01*
X114140476Y-116921428D01*
X114140476Y-117111904D01*
X114188095Y-117207142D01*
X114235714Y-117254761D01*
X114330952Y-117302380D01*
X114521428Y-117302380D01*
X114616666Y-117254761D01*
X114664285Y-117207142D01*
X114711904Y-117111904D01*
X114711904Y-116921428D01*
X114664285Y-116826190D01*
X114616666Y-116778571D01*
X114521428Y-116730952D01*
%TO.C,Q13*%
X102978571Y-98997619D02*
X102883333Y-98950000D01*
X102788095Y-98854761D01*
X102645238Y-98711904D01*
X102550000Y-98664285D01*
X102454761Y-98664285D01*
X102502380Y-98902380D02*
X102407142Y-98854761D01*
X102311904Y-98759523D01*
X102264285Y-98569047D01*
X102264285Y-98235714D01*
X102311904Y-98045238D01*
X102407142Y-97950000D01*
X102502380Y-97902380D01*
X102692857Y-97902380D01*
X102788095Y-97950000D01*
X102883333Y-98045238D01*
X102930952Y-98235714D01*
X102930952Y-98569047D01*
X102883333Y-98759523D01*
X102788095Y-98854761D01*
X102692857Y-98902380D01*
X102502380Y-98902380D01*
X103883333Y-98902380D02*
X103311904Y-98902380D01*
X103597619Y-98902380D02*
X103597619Y-97902380D01*
X103502380Y-98045238D01*
X103407142Y-98140476D01*
X103311904Y-98188095D01*
X104216666Y-97902380D02*
X104835714Y-97902380D01*
X104502380Y-98283333D01*
X104645238Y-98283333D01*
X104740476Y-98330952D01*
X104788095Y-98378571D01*
X104835714Y-98473809D01*
X104835714Y-98711904D01*
X104788095Y-98807142D01*
X104740476Y-98854761D01*
X104645238Y-98902380D01*
X104359523Y-98902380D01*
X104264285Y-98854761D01*
X104216666Y-98807142D01*
%TO.C,L1*%
X116802380Y-96466666D02*
X116802380Y-96942857D01*
X115802380Y-96942857D01*
X116802380Y-95609523D02*
X116802380Y-96180952D01*
X116802380Y-95895238D02*
X115802380Y-95895238D01*
X115945238Y-95990476D01*
X116040476Y-96085714D01*
X116088095Y-96180952D01*
%TO.C,R27*%
X152207142Y-120632380D02*
X151873809Y-120156190D01*
X151635714Y-120632380D02*
X151635714Y-119632380D01*
X152016666Y-119632380D01*
X152111904Y-119680000D01*
X152159523Y-119727619D01*
X152207142Y-119822857D01*
X152207142Y-119965714D01*
X152159523Y-120060952D01*
X152111904Y-120108571D01*
X152016666Y-120156190D01*
X151635714Y-120156190D01*
X152588095Y-119727619D02*
X152635714Y-119680000D01*
X152730952Y-119632380D01*
X152969047Y-119632380D01*
X153064285Y-119680000D01*
X153111904Y-119727619D01*
X153159523Y-119822857D01*
X153159523Y-119918095D01*
X153111904Y-120060952D01*
X152540476Y-120632380D01*
X153159523Y-120632380D01*
X153492857Y-119632380D02*
X154159523Y-119632380D01*
X153730952Y-120632380D01*
%TO.C,C35*%
X152907142Y-91757142D02*
X152859523Y-91804761D01*
X152716666Y-91852380D01*
X152621428Y-91852380D01*
X152478571Y-91804761D01*
X152383333Y-91709523D01*
X152335714Y-91614285D01*
X152288095Y-91423809D01*
X152288095Y-91280952D01*
X152335714Y-91090476D01*
X152383333Y-90995238D01*
X152478571Y-90900000D01*
X152621428Y-90852380D01*
X152716666Y-90852380D01*
X152859523Y-90900000D01*
X152907142Y-90947619D01*
X153240476Y-90852380D02*
X153859523Y-90852380D01*
X153526190Y-91233333D01*
X153669047Y-91233333D01*
X153764285Y-91280952D01*
X153811904Y-91328571D01*
X153859523Y-91423809D01*
X153859523Y-91661904D01*
X153811904Y-91757142D01*
X153764285Y-91804761D01*
X153669047Y-91852380D01*
X153383333Y-91852380D01*
X153288095Y-91804761D01*
X153240476Y-91757142D01*
X154764285Y-90852380D02*
X154288095Y-90852380D01*
X154240476Y-91328571D01*
X154288095Y-91280952D01*
X154383333Y-91233333D01*
X154621428Y-91233333D01*
X154716666Y-91280952D01*
X154764285Y-91328571D01*
X154811904Y-91423809D01*
X154811904Y-91661904D01*
X154764285Y-91757142D01*
X154716666Y-91804761D01*
X154621428Y-91852380D01*
X154383333Y-91852380D01*
X154288095Y-91804761D01*
X154240476Y-91757142D01*
%TO.C,J12*%
X127380476Y-48627380D02*
X127380476Y-49341666D01*
X127332857Y-49484523D01*
X127237619Y-49579761D01*
X127094761Y-49627380D01*
X126999523Y-49627380D01*
X128380476Y-49627380D02*
X127809047Y-49627380D01*
X128094761Y-49627380D02*
X128094761Y-48627380D01*
X127999523Y-48770238D01*
X127904285Y-48865476D01*
X127809047Y-48913095D01*
X128761428Y-48722619D02*
X128809047Y-48675000D01*
X128904285Y-48627380D01*
X129142380Y-48627380D01*
X129237619Y-48675000D01*
X129285238Y-48722619D01*
X129332857Y-48817857D01*
X129332857Y-48913095D01*
X129285238Y-49055952D01*
X128713809Y-49627380D01*
X129332857Y-49627380D01*
%TO.C,Q5*%
X129054761Y-105097619D02*
X128959523Y-105050000D01*
X128864285Y-104954761D01*
X128721428Y-104811904D01*
X128626190Y-104764285D01*
X128530952Y-104764285D01*
X128578571Y-105002380D02*
X128483333Y-104954761D01*
X128388095Y-104859523D01*
X128340476Y-104669047D01*
X128340476Y-104335714D01*
X128388095Y-104145238D01*
X128483333Y-104050000D01*
X128578571Y-104002380D01*
X128769047Y-104002380D01*
X128864285Y-104050000D01*
X128959523Y-104145238D01*
X129007142Y-104335714D01*
X129007142Y-104669047D01*
X128959523Y-104859523D01*
X128864285Y-104954761D01*
X128769047Y-105002380D01*
X128578571Y-105002380D01*
X129911904Y-104002380D02*
X129435714Y-104002380D01*
X129388095Y-104478571D01*
X129435714Y-104430952D01*
X129530952Y-104383333D01*
X129769047Y-104383333D01*
X129864285Y-104430952D01*
X129911904Y-104478571D01*
X129959523Y-104573809D01*
X129959523Y-104811904D01*
X129911904Y-104907142D01*
X129864285Y-104954761D01*
X129769047Y-105002380D01*
X129530952Y-105002380D01*
X129435714Y-104954761D01*
X129388095Y-104907142D01*
%TO.C,C45*%
X131607142Y-79092857D02*
X131654761Y-79140476D01*
X131702380Y-79283333D01*
X131702380Y-79378571D01*
X131654761Y-79521428D01*
X131559523Y-79616666D01*
X131464285Y-79664285D01*
X131273809Y-79711904D01*
X131130952Y-79711904D01*
X130940476Y-79664285D01*
X130845238Y-79616666D01*
X130750000Y-79521428D01*
X130702380Y-79378571D01*
X130702380Y-79283333D01*
X130750000Y-79140476D01*
X130797619Y-79092857D01*
X131035714Y-78235714D02*
X131702380Y-78235714D01*
X130654761Y-78473809D02*
X131369047Y-78711904D01*
X131369047Y-78092857D01*
X130702380Y-77235714D02*
X130702380Y-77711904D01*
X131178571Y-77759523D01*
X131130952Y-77711904D01*
X131083333Y-77616666D01*
X131083333Y-77378571D01*
X131130952Y-77283333D01*
X131178571Y-77235714D01*
X131273809Y-77188095D01*
X131511904Y-77188095D01*
X131607142Y-77235714D01*
X131654761Y-77283333D01*
X131702380Y-77378571D01*
X131702380Y-77616666D01*
X131654761Y-77711904D01*
X131607142Y-77759523D01*
%TO.C,C32*%
X152907142Y-103257142D02*
X152859523Y-103304761D01*
X152716666Y-103352380D01*
X152621428Y-103352380D01*
X152478571Y-103304761D01*
X152383333Y-103209523D01*
X152335714Y-103114285D01*
X152288095Y-102923809D01*
X152288095Y-102780952D01*
X152335714Y-102590476D01*
X152383333Y-102495238D01*
X152478571Y-102400000D01*
X152621428Y-102352380D01*
X152716666Y-102352380D01*
X152859523Y-102400000D01*
X152907142Y-102447619D01*
X153240476Y-102352380D02*
X153859523Y-102352380D01*
X153526190Y-102733333D01*
X153669047Y-102733333D01*
X153764285Y-102780952D01*
X153811904Y-102828571D01*
X153859523Y-102923809D01*
X153859523Y-103161904D01*
X153811904Y-103257142D01*
X153764285Y-103304761D01*
X153669047Y-103352380D01*
X153383333Y-103352380D01*
X153288095Y-103304761D01*
X153240476Y-103257142D01*
X154240476Y-102447619D02*
X154288095Y-102400000D01*
X154383333Y-102352380D01*
X154621428Y-102352380D01*
X154716666Y-102400000D01*
X154764285Y-102447619D01*
X154811904Y-102542857D01*
X154811904Y-102638095D01*
X154764285Y-102780952D01*
X154192857Y-103352380D01*
X154811904Y-103352380D01*
%TO.C,R36*%
X133507142Y-76002380D02*
X133173809Y-75526190D01*
X132935714Y-76002380D02*
X132935714Y-75002380D01*
X133316666Y-75002380D01*
X133411904Y-75050000D01*
X133459523Y-75097619D01*
X133507142Y-75192857D01*
X133507142Y-75335714D01*
X133459523Y-75430952D01*
X133411904Y-75478571D01*
X133316666Y-75526190D01*
X132935714Y-75526190D01*
X133840476Y-75002380D02*
X134459523Y-75002380D01*
X134126190Y-75383333D01*
X134269047Y-75383333D01*
X134364285Y-75430952D01*
X134411904Y-75478571D01*
X134459523Y-75573809D01*
X134459523Y-75811904D01*
X134411904Y-75907142D01*
X134364285Y-75954761D01*
X134269047Y-76002380D01*
X133983333Y-76002380D01*
X133888095Y-75954761D01*
X133840476Y-75907142D01*
X135316666Y-75002380D02*
X135126190Y-75002380D01*
X135030952Y-75050000D01*
X134983333Y-75097619D01*
X134888095Y-75240476D01*
X134840476Y-75430952D01*
X134840476Y-75811904D01*
X134888095Y-75907142D01*
X134935714Y-75954761D01*
X135030952Y-76002380D01*
X135221428Y-76002380D01*
X135316666Y-75954761D01*
X135364285Y-75907142D01*
X135411904Y-75811904D01*
X135411904Y-75573809D01*
X135364285Y-75478571D01*
X135316666Y-75430952D01*
X135221428Y-75383333D01*
X135030952Y-75383333D01*
X134935714Y-75430952D01*
X134888095Y-75478571D01*
X134840476Y-75573809D01*
%TO.C,U8*%
X115288095Y-88302380D02*
X115288095Y-89111904D01*
X115335714Y-89207142D01*
X115383333Y-89254761D01*
X115478571Y-89302380D01*
X115669047Y-89302380D01*
X115764285Y-89254761D01*
X115811904Y-89207142D01*
X115859523Y-89111904D01*
X115859523Y-88302380D01*
X116478571Y-88730952D02*
X116383333Y-88683333D01*
X116335714Y-88635714D01*
X116288095Y-88540476D01*
X116288095Y-88492857D01*
X116335714Y-88397619D01*
X116383333Y-88350000D01*
X116478571Y-88302380D01*
X116669047Y-88302380D01*
X116764285Y-88350000D01*
X116811904Y-88397619D01*
X116859523Y-88492857D01*
X116859523Y-88540476D01*
X116811904Y-88635714D01*
X116764285Y-88683333D01*
X116669047Y-88730952D01*
X116478571Y-88730952D01*
X116383333Y-88778571D01*
X116335714Y-88826190D01*
X116288095Y-88921428D01*
X116288095Y-89111904D01*
X116335714Y-89207142D01*
X116383333Y-89254761D01*
X116478571Y-89302380D01*
X116669047Y-89302380D01*
X116764285Y-89254761D01*
X116811904Y-89207142D01*
X116859523Y-89111904D01*
X116859523Y-88921428D01*
X116811904Y-88826190D01*
X116764285Y-88778571D01*
X116669047Y-88730952D01*
%TO.C,C20*%
X158662142Y-107057142D02*
X158614523Y-107104761D01*
X158471666Y-107152380D01*
X158376428Y-107152380D01*
X158233571Y-107104761D01*
X158138333Y-107009523D01*
X158090714Y-106914285D01*
X158043095Y-106723809D01*
X158043095Y-106580952D01*
X158090714Y-106390476D01*
X158138333Y-106295238D01*
X158233571Y-106200000D01*
X158376428Y-106152380D01*
X158471666Y-106152380D01*
X158614523Y-106200000D01*
X158662142Y-106247619D01*
X159043095Y-106247619D02*
X159090714Y-106200000D01*
X159185952Y-106152380D01*
X159424047Y-106152380D01*
X159519285Y-106200000D01*
X159566904Y-106247619D01*
X159614523Y-106342857D01*
X159614523Y-106438095D01*
X159566904Y-106580952D01*
X158995476Y-107152380D01*
X159614523Y-107152380D01*
X160233571Y-106152380D02*
X160328809Y-106152380D01*
X160424047Y-106200000D01*
X160471666Y-106247619D01*
X160519285Y-106342857D01*
X160566904Y-106533333D01*
X160566904Y-106771428D01*
X160519285Y-106961904D01*
X160471666Y-107057142D01*
X160424047Y-107104761D01*
X160328809Y-107152380D01*
X160233571Y-107152380D01*
X160138333Y-107104761D01*
X160090714Y-107057142D01*
X160043095Y-106961904D01*
X159995476Y-106771428D01*
X159995476Y-106533333D01*
X160043095Y-106342857D01*
X160090714Y-106247619D01*
X160138333Y-106200000D01*
X160233571Y-106152380D01*
%TO.C,R7*%
X146383333Y-55832380D02*
X146050000Y-55356190D01*
X145811904Y-55832380D02*
X145811904Y-54832380D01*
X146192857Y-54832380D01*
X146288095Y-54880000D01*
X146335714Y-54927619D01*
X146383333Y-55022857D01*
X146383333Y-55165714D01*
X146335714Y-55260952D01*
X146288095Y-55308571D01*
X146192857Y-55356190D01*
X145811904Y-55356190D01*
X146716666Y-54832380D02*
X147383333Y-54832380D01*
X146954761Y-55832380D01*
%TO.C,C21*%
X158662142Y-103247142D02*
X158614523Y-103294761D01*
X158471666Y-103342380D01*
X158376428Y-103342380D01*
X158233571Y-103294761D01*
X158138333Y-103199523D01*
X158090714Y-103104285D01*
X158043095Y-102913809D01*
X158043095Y-102770952D01*
X158090714Y-102580476D01*
X158138333Y-102485238D01*
X158233571Y-102390000D01*
X158376428Y-102342380D01*
X158471666Y-102342380D01*
X158614523Y-102390000D01*
X158662142Y-102437619D01*
X159043095Y-102437619D02*
X159090714Y-102390000D01*
X159185952Y-102342380D01*
X159424047Y-102342380D01*
X159519285Y-102390000D01*
X159566904Y-102437619D01*
X159614523Y-102532857D01*
X159614523Y-102628095D01*
X159566904Y-102770952D01*
X158995476Y-103342380D01*
X159614523Y-103342380D01*
X160566904Y-103342380D02*
X159995476Y-103342380D01*
X160281190Y-103342380D02*
X160281190Y-102342380D01*
X160185952Y-102485238D01*
X160090714Y-102580476D01*
X159995476Y-102628095D01*
%TO.C,U7*%
X109288095Y-116002380D02*
X109288095Y-116811904D01*
X109335714Y-116907142D01*
X109383333Y-116954761D01*
X109478571Y-117002380D01*
X109669047Y-117002380D01*
X109764285Y-116954761D01*
X109811904Y-116907142D01*
X109859523Y-116811904D01*
X109859523Y-116002380D01*
X110240476Y-116002380D02*
X110907142Y-116002380D01*
X110478571Y-117002380D01*
%TO.C,Q8*%
X191947619Y-87895238D02*
X191900000Y-87990476D01*
X191804761Y-88085714D01*
X191661904Y-88228571D01*
X191614285Y-88323809D01*
X191614285Y-88419047D01*
X191852380Y-88371428D02*
X191804761Y-88466666D01*
X191709523Y-88561904D01*
X191519047Y-88609523D01*
X191185714Y-88609523D01*
X190995238Y-88561904D01*
X190900000Y-88466666D01*
X190852380Y-88371428D01*
X190852380Y-88180952D01*
X190900000Y-88085714D01*
X190995238Y-87990476D01*
X191185714Y-87942857D01*
X191519047Y-87942857D01*
X191709523Y-87990476D01*
X191804761Y-88085714D01*
X191852380Y-88180952D01*
X191852380Y-88371428D01*
X191280952Y-87371428D02*
X191233333Y-87466666D01*
X191185714Y-87514285D01*
X191090476Y-87561904D01*
X191042857Y-87561904D01*
X190947619Y-87514285D01*
X190900000Y-87466666D01*
X190852380Y-87371428D01*
X190852380Y-87180952D01*
X190900000Y-87085714D01*
X190947619Y-87038095D01*
X191042857Y-86990476D01*
X191090476Y-86990476D01*
X191185714Y-87038095D01*
X191233333Y-87085714D01*
X191280952Y-87180952D01*
X191280952Y-87371428D01*
X191328571Y-87466666D01*
X191376190Y-87514285D01*
X191471428Y-87561904D01*
X191661904Y-87561904D01*
X191757142Y-87514285D01*
X191804761Y-87466666D01*
X191852380Y-87371428D01*
X191852380Y-87180952D01*
X191804761Y-87085714D01*
X191757142Y-87038095D01*
X191661904Y-86990476D01*
X191471428Y-86990476D01*
X191376190Y-87038095D01*
X191328571Y-87085714D01*
X191280952Y-87180952D01*
%TO.C,C23*%
X158662142Y-95627142D02*
X158614523Y-95674761D01*
X158471666Y-95722380D01*
X158376428Y-95722380D01*
X158233571Y-95674761D01*
X158138333Y-95579523D01*
X158090714Y-95484285D01*
X158043095Y-95293809D01*
X158043095Y-95150952D01*
X158090714Y-94960476D01*
X158138333Y-94865238D01*
X158233571Y-94770000D01*
X158376428Y-94722380D01*
X158471666Y-94722380D01*
X158614523Y-94770000D01*
X158662142Y-94817619D01*
X159043095Y-94817619D02*
X159090714Y-94770000D01*
X159185952Y-94722380D01*
X159424047Y-94722380D01*
X159519285Y-94770000D01*
X159566904Y-94817619D01*
X159614523Y-94912857D01*
X159614523Y-95008095D01*
X159566904Y-95150952D01*
X158995476Y-95722380D01*
X159614523Y-95722380D01*
X159947857Y-94722380D02*
X160566904Y-94722380D01*
X160233571Y-95103333D01*
X160376428Y-95103333D01*
X160471666Y-95150952D01*
X160519285Y-95198571D01*
X160566904Y-95293809D01*
X160566904Y-95531904D01*
X160519285Y-95627142D01*
X160471666Y-95674761D01*
X160376428Y-95722380D01*
X160090714Y-95722380D01*
X159995476Y-95674761D01*
X159947857Y-95627142D01*
%TO.C,D2*%
X135224404Y-114632380D02*
X135224404Y-113632380D01*
X135462500Y-113632380D01*
X135605357Y-113680000D01*
X135700595Y-113775238D01*
X135748214Y-113870476D01*
X135795833Y-114060952D01*
X135795833Y-114203809D01*
X135748214Y-114394285D01*
X135700595Y-114489523D01*
X135605357Y-114584761D01*
X135462500Y-114632380D01*
X135224404Y-114632380D01*
X136176785Y-113727619D02*
X136224404Y-113680000D01*
X136319642Y-113632380D01*
X136557738Y-113632380D01*
X136652976Y-113680000D01*
X136700595Y-113727619D01*
X136748214Y-113822857D01*
X136748214Y-113918095D01*
X136700595Y-114060952D01*
X136129166Y-114632380D01*
X136748214Y-114632380D01*
%TO.C,C7*%
X133433333Y-109457142D02*
X133385714Y-109504761D01*
X133242857Y-109552380D01*
X133147619Y-109552380D01*
X133004761Y-109504761D01*
X132909523Y-109409523D01*
X132861904Y-109314285D01*
X132814285Y-109123809D01*
X132814285Y-108980952D01*
X132861904Y-108790476D01*
X132909523Y-108695238D01*
X133004761Y-108600000D01*
X133147619Y-108552380D01*
X133242857Y-108552380D01*
X133385714Y-108600000D01*
X133433333Y-108647619D01*
X133766666Y-108552380D02*
X134433333Y-108552380D01*
X134004761Y-109552380D01*
%TO.C,C16*%
X158662142Y-118487142D02*
X158614523Y-118534761D01*
X158471666Y-118582380D01*
X158376428Y-118582380D01*
X158233571Y-118534761D01*
X158138333Y-118439523D01*
X158090714Y-118344285D01*
X158043095Y-118153809D01*
X158043095Y-118010952D01*
X158090714Y-117820476D01*
X158138333Y-117725238D01*
X158233571Y-117630000D01*
X158376428Y-117582380D01*
X158471666Y-117582380D01*
X158614523Y-117630000D01*
X158662142Y-117677619D01*
X159614523Y-118582380D02*
X159043095Y-118582380D01*
X159328809Y-118582380D02*
X159328809Y-117582380D01*
X159233571Y-117725238D01*
X159138333Y-117820476D01*
X159043095Y-117868095D01*
X160471666Y-117582380D02*
X160281190Y-117582380D01*
X160185952Y-117630000D01*
X160138333Y-117677619D01*
X160043095Y-117820476D01*
X159995476Y-118010952D01*
X159995476Y-118391904D01*
X160043095Y-118487142D01*
X160090714Y-118534761D01*
X160185952Y-118582380D01*
X160376428Y-118582380D01*
X160471666Y-118534761D01*
X160519285Y-118487142D01*
X160566904Y-118391904D01*
X160566904Y-118153809D01*
X160519285Y-118058571D01*
X160471666Y-118010952D01*
X160376428Y-117963333D01*
X160185952Y-117963333D01*
X160090714Y-118010952D01*
X160043095Y-118058571D01*
X159995476Y-118153809D01*
%TO.C,C47*%
X136907142Y-82307142D02*
X136859523Y-82354761D01*
X136716666Y-82402380D01*
X136621428Y-82402380D01*
X136478571Y-82354761D01*
X136383333Y-82259523D01*
X136335714Y-82164285D01*
X136288095Y-81973809D01*
X136288095Y-81830952D01*
X136335714Y-81640476D01*
X136383333Y-81545238D01*
X136478571Y-81450000D01*
X136621428Y-81402380D01*
X136716666Y-81402380D01*
X136859523Y-81450000D01*
X136907142Y-81497619D01*
X137764285Y-81735714D02*
X137764285Y-82402380D01*
X137526190Y-81354761D02*
X137288095Y-82069047D01*
X137907142Y-82069047D01*
X138192857Y-81402380D02*
X138859523Y-81402380D01*
X138430952Y-82402380D01*
%TO.C,R17*%
X192907142Y-83572380D02*
X192573809Y-83096190D01*
X192335714Y-83572380D02*
X192335714Y-82572380D01*
X192716666Y-82572380D01*
X192811904Y-82620000D01*
X192859523Y-82667619D01*
X192907142Y-82762857D01*
X192907142Y-82905714D01*
X192859523Y-83000952D01*
X192811904Y-83048571D01*
X192716666Y-83096190D01*
X192335714Y-83096190D01*
X193859523Y-83572380D02*
X193288095Y-83572380D01*
X193573809Y-83572380D02*
X193573809Y-82572380D01*
X193478571Y-82715238D01*
X193383333Y-82810476D01*
X193288095Y-82858095D01*
X194192857Y-82572380D02*
X194859523Y-82572380D01*
X194430952Y-83572380D01*
%TO.C,R3*%
X160408333Y-62677380D02*
X160075000Y-62201190D01*
X159836904Y-62677380D02*
X159836904Y-61677380D01*
X160217857Y-61677380D01*
X160313095Y-61725000D01*
X160360714Y-61772619D01*
X160408333Y-61867857D01*
X160408333Y-62010714D01*
X160360714Y-62105952D01*
X160313095Y-62153571D01*
X160217857Y-62201190D01*
X159836904Y-62201190D01*
X160741666Y-61677380D02*
X161360714Y-61677380D01*
X161027380Y-62058333D01*
X161170238Y-62058333D01*
X161265476Y-62105952D01*
X161313095Y-62153571D01*
X161360714Y-62248809D01*
X161360714Y-62486904D01*
X161313095Y-62582142D01*
X161265476Y-62629761D01*
X161170238Y-62677380D01*
X160884523Y-62677380D01*
X160789285Y-62629761D01*
X160741666Y-62582142D01*
%TO.C,R18*%
X189407142Y-91582380D02*
X189073809Y-91106190D01*
X188835714Y-91582380D02*
X188835714Y-90582380D01*
X189216666Y-90582380D01*
X189311904Y-90630000D01*
X189359523Y-90677619D01*
X189407142Y-90772857D01*
X189407142Y-90915714D01*
X189359523Y-91010952D01*
X189311904Y-91058571D01*
X189216666Y-91106190D01*
X188835714Y-91106190D01*
X190359523Y-91582380D02*
X189788095Y-91582380D01*
X190073809Y-91582380D02*
X190073809Y-90582380D01*
X189978571Y-90725238D01*
X189883333Y-90820476D01*
X189788095Y-90868095D01*
X190930952Y-91010952D02*
X190835714Y-90963333D01*
X190788095Y-90915714D01*
X190740476Y-90820476D01*
X190740476Y-90772857D01*
X190788095Y-90677619D01*
X190835714Y-90630000D01*
X190930952Y-90582380D01*
X191121428Y-90582380D01*
X191216666Y-90630000D01*
X191264285Y-90677619D01*
X191311904Y-90772857D01*
X191311904Y-90820476D01*
X191264285Y-90915714D01*
X191216666Y-90963333D01*
X191121428Y-91010952D01*
X190930952Y-91010952D01*
X190835714Y-91058571D01*
X190788095Y-91106190D01*
X190740476Y-91201428D01*
X190740476Y-91391904D01*
X190788095Y-91487142D01*
X190835714Y-91534761D01*
X190930952Y-91582380D01*
X191121428Y-91582380D01*
X191216666Y-91534761D01*
X191264285Y-91487142D01*
X191311904Y-91391904D01*
X191311904Y-91201428D01*
X191264285Y-91106190D01*
X191216666Y-91058571D01*
X191121428Y-91010952D01*
%TO.C,R24*%
X115397142Y-123332380D02*
X115063809Y-122856190D01*
X114825714Y-123332380D02*
X114825714Y-122332380D01*
X115206666Y-122332380D01*
X115301904Y-122380000D01*
X115349523Y-122427619D01*
X115397142Y-122522857D01*
X115397142Y-122665714D01*
X115349523Y-122760952D01*
X115301904Y-122808571D01*
X115206666Y-122856190D01*
X114825714Y-122856190D01*
X115778095Y-122427619D02*
X115825714Y-122380000D01*
X115920952Y-122332380D01*
X116159047Y-122332380D01*
X116254285Y-122380000D01*
X116301904Y-122427619D01*
X116349523Y-122522857D01*
X116349523Y-122618095D01*
X116301904Y-122760952D01*
X115730476Y-123332380D01*
X116349523Y-123332380D01*
X117206666Y-122665714D02*
X117206666Y-123332380D01*
X116968571Y-122284761D02*
X116730476Y-122999047D01*
X117349523Y-122999047D01*
%TO.C,R11*%
X128172380Y-112617857D02*
X127696190Y-112951190D01*
X128172380Y-113189285D02*
X127172380Y-113189285D01*
X127172380Y-112808333D01*
X127220000Y-112713095D01*
X127267619Y-112665476D01*
X127362857Y-112617857D01*
X127505714Y-112617857D01*
X127600952Y-112665476D01*
X127648571Y-112713095D01*
X127696190Y-112808333D01*
X127696190Y-113189285D01*
X128172380Y-111665476D02*
X128172380Y-112236904D01*
X128172380Y-111951190D02*
X127172380Y-111951190D01*
X127315238Y-112046428D01*
X127410476Y-112141666D01*
X127458095Y-112236904D01*
X128172380Y-110713095D02*
X128172380Y-111284523D01*
X128172380Y-110998809D02*
X127172380Y-110998809D01*
X127315238Y-111094047D01*
X127410476Y-111189285D01*
X127458095Y-111284523D01*
%TO.C,R6*%
X125383333Y-60102380D02*
X125050000Y-59626190D01*
X124811904Y-60102380D02*
X124811904Y-59102380D01*
X125192857Y-59102380D01*
X125288095Y-59150000D01*
X125335714Y-59197619D01*
X125383333Y-59292857D01*
X125383333Y-59435714D01*
X125335714Y-59530952D01*
X125288095Y-59578571D01*
X125192857Y-59626190D01*
X124811904Y-59626190D01*
X126240476Y-59102380D02*
X126050000Y-59102380D01*
X125954761Y-59150000D01*
X125907142Y-59197619D01*
X125811904Y-59340476D01*
X125764285Y-59530952D01*
X125764285Y-59911904D01*
X125811904Y-60007142D01*
X125859523Y-60054761D01*
X125954761Y-60102380D01*
X126145238Y-60102380D01*
X126240476Y-60054761D01*
X126288095Y-60007142D01*
X126335714Y-59911904D01*
X126335714Y-59673809D01*
X126288095Y-59578571D01*
X126240476Y-59530952D01*
X126145238Y-59483333D01*
X125954761Y-59483333D01*
X125859523Y-59530952D01*
X125811904Y-59578571D01*
X125764285Y-59673809D01*
%TO.C,U4*%
X129888095Y-120902380D02*
X129888095Y-121711904D01*
X129935714Y-121807142D01*
X129983333Y-121854761D01*
X130078571Y-121902380D01*
X130269047Y-121902380D01*
X130364285Y-121854761D01*
X130411904Y-121807142D01*
X130459523Y-121711904D01*
X130459523Y-120902380D01*
X131364285Y-121235714D02*
X131364285Y-121902380D01*
X131126190Y-120854761D02*
X130888095Y-121569047D01*
X131507142Y-121569047D01*
%TO.C,R29*%
X117807142Y-111002380D02*
X117473809Y-110526190D01*
X117235714Y-111002380D02*
X117235714Y-110002380D01*
X117616666Y-110002380D01*
X117711904Y-110050000D01*
X117759523Y-110097619D01*
X117807142Y-110192857D01*
X117807142Y-110335714D01*
X117759523Y-110430952D01*
X117711904Y-110478571D01*
X117616666Y-110526190D01*
X117235714Y-110526190D01*
X118188095Y-110097619D02*
X118235714Y-110050000D01*
X118330952Y-110002380D01*
X118569047Y-110002380D01*
X118664285Y-110050000D01*
X118711904Y-110097619D01*
X118759523Y-110192857D01*
X118759523Y-110288095D01*
X118711904Y-110430952D01*
X118140476Y-111002380D01*
X118759523Y-111002380D01*
X119235714Y-111002380D02*
X119426190Y-111002380D01*
X119521428Y-110954761D01*
X119569047Y-110907142D01*
X119664285Y-110764285D01*
X119711904Y-110573809D01*
X119711904Y-110192857D01*
X119664285Y-110097619D01*
X119616666Y-110050000D01*
X119521428Y-110002380D01*
X119330952Y-110002380D01*
X119235714Y-110050000D01*
X119188095Y-110097619D01*
X119140476Y-110192857D01*
X119140476Y-110430952D01*
X119188095Y-110526190D01*
X119235714Y-110573809D01*
X119330952Y-110621428D01*
X119521428Y-110621428D01*
X119616666Y-110573809D01*
X119664285Y-110526190D01*
X119711904Y-110430952D01*
%TO.C,D1*%
X133811904Y-63902380D02*
X133811904Y-62902380D01*
X134050000Y-62902380D01*
X134192857Y-62950000D01*
X134288095Y-63045238D01*
X134335714Y-63140476D01*
X134383333Y-63330952D01*
X134383333Y-63473809D01*
X134335714Y-63664285D01*
X134288095Y-63759523D01*
X134192857Y-63854761D01*
X134050000Y-63902380D01*
X133811904Y-63902380D01*
X135335714Y-63902380D02*
X134764285Y-63902380D01*
X135050000Y-63902380D02*
X135050000Y-62902380D01*
X134954761Y-63045238D01*
X134859523Y-63140476D01*
X134764285Y-63188095D01*
%TO.C,D3*%
X157002380Y-140088095D02*
X156002380Y-140088095D01*
X156002380Y-139850000D01*
X156050000Y-139707142D01*
X156145238Y-139611904D01*
X156240476Y-139564285D01*
X156430952Y-139516666D01*
X156573809Y-139516666D01*
X156764285Y-139564285D01*
X156859523Y-139611904D01*
X156954761Y-139707142D01*
X157002380Y-139850000D01*
X157002380Y-140088095D01*
X156002380Y-139183333D02*
X156002380Y-138564285D01*
X156383333Y-138897619D01*
X156383333Y-138754761D01*
X156430952Y-138659523D01*
X156478571Y-138611904D01*
X156573809Y-138564285D01*
X156811904Y-138564285D01*
X156907142Y-138611904D01*
X156954761Y-138659523D01*
X157002380Y-138754761D01*
X157002380Y-139040476D01*
X156954761Y-139135714D01*
X156907142Y-139183333D01*
%TO.C,C42*%
X107907142Y-78477142D02*
X107859523Y-78524761D01*
X107716666Y-78572380D01*
X107621428Y-78572380D01*
X107478571Y-78524761D01*
X107383333Y-78429523D01*
X107335714Y-78334285D01*
X107288095Y-78143809D01*
X107288095Y-78000952D01*
X107335714Y-77810476D01*
X107383333Y-77715238D01*
X107478571Y-77620000D01*
X107621428Y-77572380D01*
X107716666Y-77572380D01*
X107859523Y-77620000D01*
X107907142Y-77667619D01*
X108764285Y-77905714D02*
X108764285Y-78572380D01*
X108526190Y-77524761D02*
X108288095Y-78239047D01*
X108907142Y-78239047D01*
X109240476Y-77667619D02*
X109288095Y-77620000D01*
X109383333Y-77572380D01*
X109621428Y-77572380D01*
X109716666Y-77620000D01*
X109764285Y-77667619D01*
X109811904Y-77762857D01*
X109811904Y-77858095D01*
X109764285Y-78000952D01*
X109192857Y-78572380D01*
X109811904Y-78572380D01*
%TO.C,R19*%
X189397142Y-94082380D02*
X189063809Y-93606190D01*
X188825714Y-94082380D02*
X188825714Y-93082380D01*
X189206666Y-93082380D01*
X189301904Y-93130000D01*
X189349523Y-93177619D01*
X189397142Y-93272857D01*
X189397142Y-93415714D01*
X189349523Y-93510952D01*
X189301904Y-93558571D01*
X189206666Y-93606190D01*
X188825714Y-93606190D01*
X190349523Y-94082380D02*
X189778095Y-94082380D01*
X190063809Y-94082380D02*
X190063809Y-93082380D01*
X189968571Y-93225238D01*
X189873333Y-93320476D01*
X189778095Y-93368095D01*
X190825714Y-94082380D02*
X191016190Y-94082380D01*
X191111428Y-94034761D01*
X191159047Y-93987142D01*
X191254285Y-93844285D01*
X191301904Y-93653809D01*
X191301904Y-93272857D01*
X191254285Y-93177619D01*
X191206666Y-93130000D01*
X191111428Y-93082380D01*
X190920952Y-93082380D01*
X190825714Y-93130000D01*
X190778095Y-93177619D01*
X190730476Y-93272857D01*
X190730476Y-93510952D01*
X190778095Y-93606190D01*
X190825714Y-93653809D01*
X190920952Y-93701428D01*
X191111428Y-93701428D01*
X191206666Y-93653809D01*
X191254285Y-93606190D01*
X191301904Y-93510952D01*
%TO.C,C31*%
X152907142Y-107007142D02*
X152859523Y-107054761D01*
X152716666Y-107102380D01*
X152621428Y-107102380D01*
X152478571Y-107054761D01*
X152383333Y-106959523D01*
X152335714Y-106864285D01*
X152288095Y-106673809D01*
X152288095Y-106530952D01*
X152335714Y-106340476D01*
X152383333Y-106245238D01*
X152478571Y-106150000D01*
X152621428Y-106102380D01*
X152716666Y-106102380D01*
X152859523Y-106150000D01*
X152907142Y-106197619D01*
X153240476Y-106102380D02*
X153859523Y-106102380D01*
X153526190Y-106483333D01*
X153669047Y-106483333D01*
X153764285Y-106530952D01*
X153811904Y-106578571D01*
X153859523Y-106673809D01*
X153859523Y-106911904D01*
X153811904Y-107007142D01*
X153764285Y-107054761D01*
X153669047Y-107102380D01*
X153383333Y-107102380D01*
X153288095Y-107054761D01*
X153240476Y-107007142D01*
X154811904Y-107102380D02*
X154240476Y-107102380D01*
X154526190Y-107102380D02*
X154526190Y-106102380D01*
X154430952Y-106245238D01*
X154335714Y-106340476D01*
X154240476Y-106388095D01*
%TO.C,R43*%
X132297142Y-105032380D02*
X131963809Y-104556190D01*
X131725714Y-105032380D02*
X131725714Y-104032380D01*
X132106666Y-104032380D01*
X132201904Y-104080000D01*
X132249523Y-104127619D01*
X132297142Y-104222857D01*
X132297142Y-104365714D01*
X132249523Y-104460952D01*
X132201904Y-104508571D01*
X132106666Y-104556190D01*
X131725714Y-104556190D01*
X133154285Y-104365714D02*
X133154285Y-105032380D01*
X132916190Y-103984761D02*
X132678095Y-104699047D01*
X133297142Y-104699047D01*
X133582857Y-104032380D02*
X134201904Y-104032380D01*
X133868571Y-104413333D01*
X134011428Y-104413333D01*
X134106666Y-104460952D01*
X134154285Y-104508571D01*
X134201904Y-104603809D01*
X134201904Y-104841904D01*
X134154285Y-104937142D01*
X134106666Y-104984761D01*
X134011428Y-105032380D01*
X133725714Y-105032380D01*
X133630476Y-104984761D01*
X133582857Y-104937142D01*
%TO.C,Q9*%
X158774761Y-133797619D02*
X158679523Y-133750000D01*
X158584285Y-133654761D01*
X158441428Y-133511904D01*
X158346190Y-133464285D01*
X158250952Y-133464285D01*
X158298571Y-133702380D02*
X158203333Y-133654761D01*
X158108095Y-133559523D01*
X158060476Y-133369047D01*
X158060476Y-133035714D01*
X158108095Y-132845238D01*
X158203333Y-132750000D01*
X158298571Y-132702380D01*
X158489047Y-132702380D01*
X158584285Y-132750000D01*
X158679523Y-132845238D01*
X158727142Y-133035714D01*
X158727142Y-133369047D01*
X158679523Y-133559523D01*
X158584285Y-133654761D01*
X158489047Y-133702380D01*
X158298571Y-133702380D01*
X159203333Y-133702380D02*
X159393809Y-133702380D01*
X159489047Y-133654761D01*
X159536666Y-133607142D01*
X159631904Y-133464285D01*
X159679523Y-133273809D01*
X159679523Y-132892857D01*
X159631904Y-132797619D01*
X159584285Y-132750000D01*
X159489047Y-132702380D01*
X159298571Y-132702380D01*
X159203333Y-132750000D01*
X159155714Y-132797619D01*
X159108095Y-132892857D01*
X159108095Y-133130952D01*
X159155714Y-133226190D01*
X159203333Y-133273809D01*
X159298571Y-133321428D01*
X159489047Y-133321428D01*
X159584285Y-133273809D01*
X159631904Y-133226190D01*
X159679523Y-133130952D01*
%TO.C,JP7*%
X192802380Y-98733333D02*
X193516666Y-98733333D01*
X193659523Y-98780952D01*
X193754761Y-98876190D01*
X193802380Y-99019047D01*
X193802380Y-99114285D01*
X193802380Y-98257142D02*
X192802380Y-98257142D01*
X192802380Y-97876190D01*
X192850000Y-97780952D01*
X192897619Y-97733333D01*
X192992857Y-97685714D01*
X193135714Y-97685714D01*
X193230952Y-97733333D01*
X193278571Y-97780952D01*
X193326190Y-97876190D01*
X193326190Y-98257142D01*
X192802380Y-97352380D02*
X192802380Y-96685714D01*
X193802380Y-97114285D01*
%TO.C,Q7*%
X136954761Y-134197619D02*
X136859523Y-134150000D01*
X136764285Y-134054761D01*
X136621428Y-133911904D01*
X136526190Y-133864285D01*
X136430952Y-133864285D01*
X136478571Y-134102380D02*
X136383333Y-134054761D01*
X136288095Y-133959523D01*
X136240476Y-133769047D01*
X136240476Y-133435714D01*
X136288095Y-133245238D01*
X136383333Y-133150000D01*
X136478571Y-133102380D01*
X136669047Y-133102380D01*
X136764285Y-133150000D01*
X136859523Y-133245238D01*
X136907142Y-133435714D01*
X136907142Y-133769047D01*
X136859523Y-133959523D01*
X136764285Y-134054761D01*
X136669047Y-134102380D01*
X136478571Y-134102380D01*
X137240476Y-133102380D02*
X137907142Y-133102380D01*
X137478571Y-134102380D01*
%TO.C,TP10*%
X119311904Y-53504380D02*
X119883333Y-53504380D01*
X119597619Y-54504380D02*
X119597619Y-53504380D01*
X120216666Y-54504380D02*
X120216666Y-53504380D01*
X120597619Y-53504380D01*
X120692857Y-53552000D01*
X120740476Y-53599619D01*
X120788095Y-53694857D01*
X120788095Y-53837714D01*
X120740476Y-53932952D01*
X120692857Y-53980571D01*
X120597619Y-54028190D01*
X120216666Y-54028190D01*
X121740476Y-54504380D02*
X121169047Y-54504380D01*
X121454761Y-54504380D02*
X121454761Y-53504380D01*
X121359523Y-53647238D01*
X121264285Y-53742476D01*
X121169047Y-53790095D01*
X122359523Y-53504380D02*
X122454761Y-53504380D01*
X122550000Y-53552000D01*
X122597619Y-53599619D01*
X122645238Y-53694857D01*
X122692857Y-53885333D01*
X122692857Y-54123428D01*
X122645238Y-54313904D01*
X122597619Y-54409142D01*
X122550000Y-54456761D01*
X122454761Y-54504380D01*
X122359523Y-54504380D01*
X122264285Y-54456761D01*
X122216666Y-54409142D01*
X122169047Y-54313904D01*
X122121428Y-54123428D01*
X122121428Y-53885333D01*
X122169047Y-53694857D01*
X122216666Y-53599619D01*
X122264285Y-53552000D01*
X122359523Y-53504380D01*
%TO.C,C17*%
X147157142Y-107747142D02*
X147109523Y-107794761D01*
X146966666Y-107842380D01*
X146871428Y-107842380D01*
X146728571Y-107794761D01*
X146633333Y-107699523D01*
X146585714Y-107604285D01*
X146538095Y-107413809D01*
X146538095Y-107270952D01*
X146585714Y-107080476D01*
X146633333Y-106985238D01*
X146728571Y-106890000D01*
X146871428Y-106842380D01*
X146966666Y-106842380D01*
X147109523Y-106890000D01*
X147157142Y-106937619D01*
X148109523Y-107842380D02*
X147538095Y-107842380D01*
X147823809Y-107842380D02*
X147823809Y-106842380D01*
X147728571Y-106985238D01*
X147633333Y-107080476D01*
X147538095Y-107128095D01*
X148442857Y-106842380D02*
X149109523Y-106842380D01*
X148680952Y-107842380D01*
%TO.C,C43*%
X125657142Y-79477142D02*
X125609523Y-79524761D01*
X125466666Y-79572380D01*
X125371428Y-79572380D01*
X125228571Y-79524761D01*
X125133333Y-79429523D01*
X125085714Y-79334285D01*
X125038095Y-79143809D01*
X125038095Y-79000952D01*
X125085714Y-78810476D01*
X125133333Y-78715238D01*
X125228571Y-78620000D01*
X125371428Y-78572380D01*
X125466666Y-78572380D01*
X125609523Y-78620000D01*
X125657142Y-78667619D01*
X126514285Y-78905714D02*
X126514285Y-79572380D01*
X126276190Y-78524761D02*
X126038095Y-79239047D01*
X126657142Y-79239047D01*
X126942857Y-78572380D02*
X127561904Y-78572380D01*
X127228571Y-78953333D01*
X127371428Y-78953333D01*
X127466666Y-79000952D01*
X127514285Y-79048571D01*
X127561904Y-79143809D01*
X127561904Y-79381904D01*
X127514285Y-79477142D01*
X127466666Y-79524761D01*
X127371428Y-79572380D01*
X127085714Y-79572380D01*
X126990476Y-79524761D01*
X126942857Y-79477142D01*
%TO.C,C37*%
X152907142Y-84257142D02*
X152859523Y-84304761D01*
X152716666Y-84352380D01*
X152621428Y-84352380D01*
X152478571Y-84304761D01*
X152383333Y-84209523D01*
X152335714Y-84114285D01*
X152288095Y-83923809D01*
X152288095Y-83780952D01*
X152335714Y-83590476D01*
X152383333Y-83495238D01*
X152478571Y-83400000D01*
X152621428Y-83352380D01*
X152716666Y-83352380D01*
X152859523Y-83400000D01*
X152907142Y-83447619D01*
X153240476Y-83352380D02*
X153859523Y-83352380D01*
X153526190Y-83733333D01*
X153669047Y-83733333D01*
X153764285Y-83780952D01*
X153811904Y-83828571D01*
X153859523Y-83923809D01*
X153859523Y-84161904D01*
X153811904Y-84257142D01*
X153764285Y-84304761D01*
X153669047Y-84352380D01*
X153383333Y-84352380D01*
X153288095Y-84304761D01*
X153240476Y-84257142D01*
X154192857Y-83352380D02*
X154859523Y-83352380D01*
X154430952Y-84352380D01*
%TO.C,C12*%
X102527142Y-81447142D02*
X102479523Y-81494761D01*
X102336666Y-81542380D01*
X102241428Y-81542380D01*
X102098571Y-81494761D01*
X102003333Y-81399523D01*
X101955714Y-81304285D01*
X101908095Y-81113809D01*
X101908095Y-80970952D01*
X101955714Y-80780476D01*
X102003333Y-80685238D01*
X102098571Y-80590000D01*
X102241428Y-80542380D01*
X102336666Y-80542380D01*
X102479523Y-80590000D01*
X102527142Y-80637619D01*
X103479523Y-81542380D02*
X102908095Y-81542380D01*
X103193809Y-81542380D02*
X103193809Y-80542380D01*
X103098571Y-80685238D01*
X103003333Y-80780476D01*
X102908095Y-80828095D01*
X103860476Y-80637619D02*
X103908095Y-80590000D01*
X104003333Y-80542380D01*
X104241428Y-80542380D01*
X104336666Y-80590000D01*
X104384285Y-80637619D01*
X104431904Y-80732857D01*
X104431904Y-80828095D01*
X104384285Y-80970952D01*
X103812857Y-81542380D01*
X104431904Y-81542380D01*
%TO.C,C5*%
X143383333Y-55477142D02*
X143335714Y-55524761D01*
X143192857Y-55572380D01*
X143097619Y-55572380D01*
X142954761Y-55524761D01*
X142859523Y-55429523D01*
X142811904Y-55334285D01*
X142764285Y-55143809D01*
X142764285Y-55000952D01*
X142811904Y-54810476D01*
X142859523Y-54715238D01*
X142954761Y-54620000D01*
X143097619Y-54572380D01*
X143192857Y-54572380D01*
X143335714Y-54620000D01*
X143383333Y-54667619D01*
X144288095Y-54572380D02*
X143811904Y-54572380D01*
X143764285Y-55048571D01*
X143811904Y-55000952D01*
X143907142Y-54953333D01*
X144145238Y-54953333D01*
X144240476Y-55000952D01*
X144288095Y-55048571D01*
X144335714Y-55143809D01*
X144335714Y-55381904D01*
X144288095Y-55477142D01*
X144240476Y-55524761D01*
X144145238Y-55572380D01*
X143907142Y-55572380D01*
X143811904Y-55524761D01*
X143764285Y-55477142D01*
%TO.C,Q11*%
X103378571Y-103997619D02*
X103283333Y-103950000D01*
X103188095Y-103854761D01*
X103045238Y-103711904D01*
X102950000Y-103664285D01*
X102854761Y-103664285D01*
X102902380Y-103902380D02*
X102807142Y-103854761D01*
X102711904Y-103759523D01*
X102664285Y-103569047D01*
X102664285Y-103235714D01*
X102711904Y-103045238D01*
X102807142Y-102950000D01*
X102902380Y-102902380D01*
X103092857Y-102902380D01*
X103188095Y-102950000D01*
X103283333Y-103045238D01*
X103330952Y-103235714D01*
X103330952Y-103569047D01*
X103283333Y-103759523D01*
X103188095Y-103854761D01*
X103092857Y-103902380D01*
X102902380Y-103902380D01*
X104283333Y-103902380D02*
X103711904Y-103902380D01*
X103997619Y-103902380D02*
X103997619Y-102902380D01*
X103902380Y-103045238D01*
X103807142Y-103140476D01*
X103711904Y-103188095D01*
X105235714Y-103902380D02*
X104664285Y-103902380D01*
X104950000Y-103902380D02*
X104950000Y-102902380D01*
X104854761Y-103045238D01*
X104759523Y-103140476D01*
X104664285Y-103188095D01*
%TO.C,R22*%
X100432380Y-92602857D02*
X99956190Y-92936190D01*
X100432380Y-93174285D02*
X99432380Y-93174285D01*
X99432380Y-92793333D01*
X99480000Y-92698095D01*
X99527619Y-92650476D01*
X99622857Y-92602857D01*
X99765714Y-92602857D01*
X99860952Y-92650476D01*
X99908571Y-92698095D01*
X99956190Y-92793333D01*
X99956190Y-93174285D01*
X99527619Y-92221904D02*
X99480000Y-92174285D01*
X99432380Y-92079047D01*
X99432380Y-91840952D01*
X99480000Y-91745714D01*
X99527619Y-91698095D01*
X99622857Y-91650476D01*
X99718095Y-91650476D01*
X99860952Y-91698095D01*
X100432380Y-92269523D01*
X100432380Y-91650476D01*
X99527619Y-91269523D02*
X99480000Y-91221904D01*
X99432380Y-91126666D01*
X99432380Y-90888571D01*
X99480000Y-90793333D01*
X99527619Y-90745714D01*
X99622857Y-90698095D01*
X99718095Y-90698095D01*
X99860952Y-90745714D01*
X100432380Y-91317142D01*
X100432380Y-90698095D01*
%TO.C,R37*%
X117707142Y-84952380D02*
X117373809Y-84476190D01*
X117135714Y-84952380D02*
X117135714Y-83952380D01*
X117516666Y-83952380D01*
X117611904Y-84000000D01*
X117659523Y-84047619D01*
X117707142Y-84142857D01*
X117707142Y-84285714D01*
X117659523Y-84380952D01*
X117611904Y-84428571D01*
X117516666Y-84476190D01*
X117135714Y-84476190D01*
X118040476Y-83952380D02*
X118659523Y-83952380D01*
X118326190Y-84333333D01*
X118469047Y-84333333D01*
X118564285Y-84380952D01*
X118611904Y-84428571D01*
X118659523Y-84523809D01*
X118659523Y-84761904D01*
X118611904Y-84857142D01*
X118564285Y-84904761D01*
X118469047Y-84952380D01*
X118183333Y-84952380D01*
X118088095Y-84904761D01*
X118040476Y-84857142D01*
X118992857Y-83952380D02*
X119659523Y-83952380D01*
X119230952Y-84952380D01*
%TO.C,R42*%
X131507142Y-88632380D02*
X131173809Y-88156190D01*
X130935714Y-88632380D02*
X130935714Y-87632380D01*
X131316666Y-87632380D01*
X131411904Y-87680000D01*
X131459523Y-87727619D01*
X131507142Y-87822857D01*
X131507142Y-87965714D01*
X131459523Y-88060952D01*
X131411904Y-88108571D01*
X131316666Y-88156190D01*
X130935714Y-88156190D01*
X132364285Y-87965714D02*
X132364285Y-88632380D01*
X132126190Y-87584761D02*
X131888095Y-88299047D01*
X132507142Y-88299047D01*
X132840476Y-87727619D02*
X132888095Y-87680000D01*
X132983333Y-87632380D01*
X133221428Y-87632380D01*
X133316666Y-87680000D01*
X133364285Y-87727619D01*
X133411904Y-87822857D01*
X133411904Y-87918095D01*
X133364285Y-88060952D01*
X132792857Y-88632380D01*
X133411904Y-88632380D01*
%TO.C,C15*%
X175272142Y-105277142D02*
X175224523Y-105324761D01*
X175081666Y-105372380D01*
X174986428Y-105372380D01*
X174843571Y-105324761D01*
X174748333Y-105229523D01*
X174700714Y-105134285D01*
X174653095Y-104943809D01*
X174653095Y-104800952D01*
X174700714Y-104610476D01*
X174748333Y-104515238D01*
X174843571Y-104420000D01*
X174986428Y-104372380D01*
X175081666Y-104372380D01*
X175224523Y-104420000D01*
X175272142Y-104467619D01*
X176224523Y-105372380D02*
X175653095Y-105372380D01*
X175938809Y-105372380D02*
X175938809Y-104372380D01*
X175843571Y-104515238D01*
X175748333Y-104610476D01*
X175653095Y-104658095D01*
X177129285Y-104372380D02*
X176653095Y-104372380D01*
X176605476Y-104848571D01*
X176653095Y-104800952D01*
X176748333Y-104753333D01*
X176986428Y-104753333D01*
X177081666Y-104800952D01*
X177129285Y-104848571D01*
X177176904Y-104943809D01*
X177176904Y-105181904D01*
X177129285Y-105277142D01*
X177081666Y-105324761D01*
X176986428Y-105372380D01*
X176748333Y-105372380D01*
X176653095Y-105324761D01*
X176605476Y-105277142D01*
%TO.C,R20*%
X154607142Y-137472380D02*
X154273809Y-136996190D01*
X154035714Y-137472380D02*
X154035714Y-136472380D01*
X154416666Y-136472380D01*
X154511904Y-136520000D01*
X154559523Y-136567619D01*
X154607142Y-136662857D01*
X154607142Y-136805714D01*
X154559523Y-136900952D01*
X154511904Y-136948571D01*
X154416666Y-136996190D01*
X154035714Y-136996190D01*
X154988095Y-136567619D02*
X155035714Y-136520000D01*
X155130952Y-136472380D01*
X155369047Y-136472380D01*
X155464285Y-136520000D01*
X155511904Y-136567619D01*
X155559523Y-136662857D01*
X155559523Y-136758095D01*
X155511904Y-136900952D01*
X154940476Y-137472380D01*
X155559523Y-137472380D01*
X156178571Y-136472380D02*
X156273809Y-136472380D01*
X156369047Y-136520000D01*
X156416666Y-136567619D01*
X156464285Y-136662857D01*
X156511904Y-136853333D01*
X156511904Y-137091428D01*
X156464285Y-137281904D01*
X156416666Y-137377142D01*
X156369047Y-137424761D01*
X156273809Y-137472380D01*
X156178571Y-137472380D01*
X156083333Y-137424761D01*
X156035714Y-137377142D01*
X155988095Y-137281904D01*
X155940476Y-137091428D01*
X155940476Y-136853333D01*
X155988095Y-136662857D01*
X156035714Y-136567619D01*
X156083333Y-136520000D01*
X156178571Y-136472380D01*
%TO.C,D4*%
X151972380Y-140075595D02*
X150972380Y-140075595D01*
X150972380Y-139837500D01*
X151020000Y-139694642D01*
X151115238Y-139599404D01*
X151210476Y-139551785D01*
X151400952Y-139504166D01*
X151543809Y-139504166D01*
X151734285Y-139551785D01*
X151829523Y-139599404D01*
X151924761Y-139694642D01*
X151972380Y-139837500D01*
X151972380Y-140075595D01*
X151305714Y-138647023D02*
X151972380Y-138647023D01*
X150924761Y-138885119D02*
X151639047Y-139123214D01*
X151639047Y-138504166D01*
%TO.C,JP4*%
X149016666Y-96502380D02*
X149016666Y-97216666D01*
X148969047Y-97359523D01*
X148873809Y-97454761D01*
X148730952Y-97502380D01*
X148635714Y-97502380D01*
X149492857Y-97502380D02*
X149492857Y-96502380D01*
X149873809Y-96502380D01*
X149969047Y-96550000D01*
X150016666Y-96597619D01*
X150064285Y-96692857D01*
X150064285Y-96835714D01*
X150016666Y-96930952D01*
X149969047Y-96978571D01*
X149873809Y-97026190D01*
X149492857Y-97026190D01*
X150921428Y-96835714D02*
X150921428Y-97502380D01*
X150683333Y-96454761D02*
X150445238Y-97169047D01*
X151064285Y-97169047D01*
%TO.C,Q14*%
X143878571Y-119897619D02*
X143783333Y-119850000D01*
X143688095Y-119754761D01*
X143545238Y-119611904D01*
X143450000Y-119564285D01*
X143354761Y-119564285D01*
X143402380Y-119802380D02*
X143307142Y-119754761D01*
X143211904Y-119659523D01*
X143164285Y-119469047D01*
X143164285Y-119135714D01*
X143211904Y-118945238D01*
X143307142Y-118850000D01*
X143402380Y-118802380D01*
X143592857Y-118802380D01*
X143688095Y-118850000D01*
X143783333Y-118945238D01*
X143830952Y-119135714D01*
X143830952Y-119469047D01*
X143783333Y-119659523D01*
X143688095Y-119754761D01*
X143592857Y-119802380D01*
X143402380Y-119802380D01*
X144783333Y-119802380D02*
X144211904Y-119802380D01*
X144497619Y-119802380D02*
X144497619Y-118802380D01*
X144402380Y-118945238D01*
X144307142Y-119040476D01*
X144211904Y-119088095D01*
X145640476Y-119135714D02*
X145640476Y-119802380D01*
X145402380Y-118754761D02*
X145164285Y-119469047D01*
X145783333Y-119469047D01*
%TO.C,Q4*%
X140254761Y-106797619D02*
X140159523Y-106750000D01*
X140064285Y-106654761D01*
X139921428Y-106511904D01*
X139826190Y-106464285D01*
X139730952Y-106464285D01*
X139778571Y-106702380D02*
X139683333Y-106654761D01*
X139588095Y-106559523D01*
X139540476Y-106369047D01*
X139540476Y-106035714D01*
X139588095Y-105845238D01*
X139683333Y-105750000D01*
X139778571Y-105702380D01*
X139969047Y-105702380D01*
X140064285Y-105750000D01*
X140159523Y-105845238D01*
X140207142Y-106035714D01*
X140207142Y-106369047D01*
X140159523Y-106559523D01*
X140064285Y-106654761D01*
X139969047Y-106702380D01*
X139778571Y-106702380D01*
X141064285Y-106035714D02*
X141064285Y-106702380D01*
X140826190Y-105654761D02*
X140588095Y-106369047D01*
X141207142Y-106369047D01*
%TO.C,C11*%
X102607142Y-78477142D02*
X102559523Y-78524761D01*
X102416666Y-78572380D01*
X102321428Y-78572380D01*
X102178571Y-78524761D01*
X102083333Y-78429523D01*
X102035714Y-78334285D01*
X101988095Y-78143809D01*
X101988095Y-78000952D01*
X102035714Y-77810476D01*
X102083333Y-77715238D01*
X102178571Y-77620000D01*
X102321428Y-77572380D01*
X102416666Y-77572380D01*
X102559523Y-77620000D01*
X102607142Y-77667619D01*
X103559523Y-78572380D02*
X102988095Y-78572380D01*
X103273809Y-78572380D02*
X103273809Y-77572380D01*
X103178571Y-77715238D01*
X103083333Y-77810476D01*
X102988095Y-77858095D01*
X104511904Y-78572380D02*
X103940476Y-78572380D01*
X104226190Y-78572380D02*
X104226190Y-77572380D01*
X104130952Y-77715238D01*
X104035714Y-77810476D01*
X103940476Y-77858095D01*
%TO.C,Q16*%
X148078571Y-119897619D02*
X147983333Y-119850000D01*
X147888095Y-119754761D01*
X147745238Y-119611904D01*
X147650000Y-119564285D01*
X147554761Y-119564285D01*
X147602380Y-119802380D02*
X147507142Y-119754761D01*
X147411904Y-119659523D01*
X147364285Y-119469047D01*
X147364285Y-119135714D01*
X147411904Y-118945238D01*
X147507142Y-118850000D01*
X147602380Y-118802380D01*
X147792857Y-118802380D01*
X147888095Y-118850000D01*
X147983333Y-118945238D01*
X148030952Y-119135714D01*
X148030952Y-119469047D01*
X147983333Y-119659523D01*
X147888095Y-119754761D01*
X147792857Y-119802380D01*
X147602380Y-119802380D01*
X148983333Y-119802380D02*
X148411904Y-119802380D01*
X148697619Y-119802380D02*
X148697619Y-118802380D01*
X148602380Y-118945238D01*
X148507142Y-119040476D01*
X148411904Y-119088095D01*
X149840476Y-118802380D02*
X149650000Y-118802380D01*
X149554761Y-118850000D01*
X149507142Y-118897619D01*
X149411904Y-119040476D01*
X149364285Y-119230952D01*
X149364285Y-119611904D01*
X149411904Y-119707142D01*
X149459523Y-119754761D01*
X149554761Y-119802380D01*
X149745238Y-119802380D01*
X149840476Y-119754761D01*
X149888095Y-119707142D01*
X149935714Y-119611904D01*
X149935714Y-119373809D01*
X149888095Y-119278571D01*
X149840476Y-119230952D01*
X149745238Y-119183333D01*
X149554761Y-119183333D01*
X149459523Y-119230952D01*
X149411904Y-119278571D01*
X149364285Y-119373809D01*
%TO.C,R2*%
X168028333Y-61962380D02*
X167695000Y-61486190D01*
X167456904Y-61962380D02*
X167456904Y-60962380D01*
X167837857Y-60962380D01*
X167933095Y-61010000D01*
X167980714Y-61057619D01*
X168028333Y-61152857D01*
X168028333Y-61295714D01*
X167980714Y-61390952D01*
X167933095Y-61438571D01*
X167837857Y-61486190D01*
X167456904Y-61486190D01*
X168409285Y-61057619D02*
X168456904Y-61010000D01*
X168552142Y-60962380D01*
X168790238Y-60962380D01*
X168885476Y-61010000D01*
X168933095Y-61057619D01*
X168980714Y-61152857D01*
X168980714Y-61248095D01*
X168933095Y-61390952D01*
X168361666Y-61962380D01*
X168980714Y-61962380D01*
%TO.C,C1*%
X144647142Y-64696666D02*
X144694761Y-64744285D01*
X144742380Y-64887142D01*
X144742380Y-64982380D01*
X144694761Y-65125238D01*
X144599523Y-65220476D01*
X144504285Y-65268095D01*
X144313809Y-65315714D01*
X144170952Y-65315714D01*
X143980476Y-65268095D01*
X143885238Y-65220476D01*
X143790000Y-65125238D01*
X143742380Y-64982380D01*
X143742380Y-64887142D01*
X143790000Y-64744285D01*
X143837619Y-64696666D01*
X144742380Y-63744285D02*
X144742380Y-64315714D01*
X144742380Y-64030000D02*
X143742380Y-64030000D01*
X143885238Y-64125238D01*
X143980476Y-64220476D01*
X144028095Y-64315714D01*
%TO.C,C13*%
X102527142Y-83947142D02*
X102479523Y-83994761D01*
X102336666Y-84042380D01*
X102241428Y-84042380D01*
X102098571Y-83994761D01*
X102003333Y-83899523D01*
X101955714Y-83804285D01*
X101908095Y-83613809D01*
X101908095Y-83470952D01*
X101955714Y-83280476D01*
X102003333Y-83185238D01*
X102098571Y-83090000D01*
X102241428Y-83042380D01*
X102336666Y-83042380D01*
X102479523Y-83090000D01*
X102527142Y-83137619D01*
X103479523Y-84042380D02*
X102908095Y-84042380D01*
X103193809Y-84042380D02*
X103193809Y-83042380D01*
X103098571Y-83185238D01*
X103003333Y-83280476D01*
X102908095Y-83328095D01*
X103812857Y-83042380D02*
X104431904Y-83042380D01*
X104098571Y-83423333D01*
X104241428Y-83423333D01*
X104336666Y-83470952D01*
X104384285Y-83518571D01*
X104431904Y-83613809D01*
X104431904Y-83851904D01*
X104384285Y-83947142D01*
X104336666Y-83994761D01*
X104241428Y-84042380D01*
X103955714Y-84042380D01*
X103860476Y-83994761D01*
X103812857Y-83947142D01*
%TO.C,C22*%
X158662142Y-99437142D02*
X158614523Y-99484761D01*
X158471666Y-99532380D01*
X158376428Y-99532380D01*
X158233571Y-99484761D01*
X158138333Y-99389523D01*
X158090714Y-99294285D01*
X158043095Y-99103809D01*
X158043095Y-98960952D01*
X158090714Y-98770476D01*
X158138333Y-98675238D01*
X158233571Y-98580000D01*
X158376428Y-98532380D01*
X158471666Y-98532380D01*
X158614523Y-98580000D01*
X158662142Y-98627619D01*
X159043095Y-98627619D02*
X159090714Y-98580000D01*
X159185952Y-98532380D01*
X159424047Y-98532380D01*
X159519285Y-98580000D01*
X159566904Y-98627619D01*
X159614523Y-98722857D01*
X159614523Y-98818095D01*
X159566904Y-98960952D01*
X158995476Y-99532380D01*
X159614523Y-99532380D01*
X159995476Y-98627619D02*
X160043095Y-98580000D01*
X160138333Y-98532380D01*
X160376428Y-98532380D01*
X160471666Y-98580000D01*
X160519285Y-98627619D01*
X160566904Y-98722857D01*
X160566904Y-98818095D01*
X160519285Y-98960952D01*
X159947857Y-99532380D01*
X160566904Y-99532380D01*
%TO.C,R10*%
X131472380Y-112617857D02*
X130996190Y-112951190D01*
X131472380Y-113189285D02*
X130472380Y-113189285D01*
X130472380Y-112808333D01*
X130520000Y-112713095D01*
X130567619Y-112665476D01*
X130662857Y-112617857D01*
X130805714Y-112617857D01*
X130900952Y-112665476D01*
X130948571Y-112713095D01*
X130996190Y-112808333D01*
X130996190Y-113189285D01*
X131472380Y-111665476D02*
X131472380Y-112236904D01*
X131472380Y-111951190D02*
X130472380Y-111951190D01*
X130615238Y-112046428D01*
X130710476Y-112141666D01*
X130758095Y-112236904D01*
X130472380Y-111046428D02*
X130472380Y-110951190D01*
X130520000Y-110855952D01*
X130567619Y-110808333D01*
X130662857Y-110760714D01*
X130853333Y-110713095D01*
X131091428Y-110713095D01*
X131281904Y-110760714D01*
X131377142Y-110808333D01*
X131424761Y-110855952D01*
X131472380Y-110951190D01*
X131472380Y-111046428D01*
X131424761Y-111141666D01*
X131377142Y-111189285D01*
X131281904Y-111236904D01*
X131091428Y-111284523D01*
X130853333Y-111284523D01*
X130662857Y-111236904D01*
X130567619Y-111189285D01*
X130520000Y-111141666D01*
X130472380Y-111046428D01*
%TO.C,R44*%
X153157142Y-123552380D02*
X152823809Y-123076190D01*
X152585714Y-123552380D02*
X152585714Y-122552380D01*
X152966666Y-122552380D01*
X153061904Y-122600000D01*
X153109523Y-122647619D01*
X153157142Y-122742857D01*
X153157142Y-122885714D01*
X153109523Y-122980952D01*
X153061904Y-123028571D01*
X152966666Y-123076190D01*
X152585714Y-123076190D01*
X154014285Y-122885714D02*
X154014285Y-123552380D01*
X153776190Y-122504761D02*
X153538095Y-123219047D01*
X154157142Y-123219047D01*
X154966666Y-122885714D02*
X154966666Y-123552380D01*
X154728571Y-122504761D02*
X154490476Y-123219047D01*
X155109523Y-123219047D01*
%TO.C,C30*%
X152907142Y-110757142D02*
X152859523Y-110804761D01*
X152716666Y-110852380D01*
X152621428Y-110852380D01*
X152478571Y-110804761D01*
X152383333Y-110709523D01*
X152335714Y-110614285D01*
X152288095Y-110423809D01*
X152288095Y-110280952D01*
X152335714Y-110090476D01*
X152383333Y-109995238D01*
X152478571Y-109900000D01*
X152621428Y-109852380D01*
X152716666Y-109852380D01*
X152859523Y-109900000D01*
X152907142Y-109947619D01*
X153240476Y-109852380D02*
X153859523Y-109852380D01*
X153526190Y-110233333D01*
X153669047Y-110233333D01*
X153764285Y-110280952D01*
X153811904Y-110328571D01*
X153859523Y-110423809D01*
X153859523Y-110661904D01*
X153811904Y-110757142D01*
X153764285Y-110804761D01*
X153669047Y-110852380D01*
X153383333Y-110852380D01*
X153288095Y-110804761D01*
X153240476Y-110757142D01*
X154478571Y-109852380D02*
X154573809Y-109852380D01*
X154669047Y-109900000D01*
X154716666Y-109947619D01*
X154764285Y-110042857D01*
X154811904Y-110233333D01*
X154811904Y-110471428D01*
X154764285Y-110661904D01*
X154716666Y-110757142D01*
X154669047Y-110804761D01*
X154573809Y-110852380D01*
X154478571Y-110852380D01*
X154383333Y-110804761D01*
X154335714Y-110757142D01*
X154288095Y-110661904D01*
X154240476Y-110471428D01*
X154240476Y-110233333D01*
X154288095Y-110042857D01*
X154335714Y-109947619D01*
X154383333Y-109900000D01*
X154478571Y-109852380D01*
%TO.C,R34*%
X110822380Y-95942857D02*
X110346190Y-96276190D01*
X110822380Y-96514285D02*
X109822380Y-96514285D01*
X109822380Y-96133333D01*
X109870000Y-96038095D01*
X109917619Y-95990476D01*
X110012857Y-95942857D01*
X110155714Y-95942857D01*
X110250952Y-95990476D01*
X110298571Y-96038095D01*
X110346190Y-96133333D01*
X110346190Y-96514285D01*
X109822380Y-95609523D02*
X109822380Y-94990476D01*
X110203333Y-95323809D01*
X110203333Y-95180952D01*
X110250952Y-95085714D01*
X110298571Y-95038095D01*
X110393809Y-94990476D01*
X110631904Y-94990476D01*
X110727142Y-95038095D01*
X110774761Y-95085714D01*
X110822380Y-95180952D01*
X110822380Y-95466666D01*
X110774761Y-95561904D01*
X110727142Y-95609523D01*
X110155714Y-94133333D02*
X110822380Y-94133333D01*
X109774761Y-94371428D02*
X110489047Y-94609523D01*
X110489047Y-93990476D01*
%TO.C,JP13*%
X124740476Y-101002380D02*
X124740476Y-101716666D01*
X124692857Y-101859523D01*
X124597619Y-101954761D01*
X124454761Y-102002380D01*
X124359523Y-102002380D01*
X125216666Y-102002380D02*
X125216666Y-101002380D01*
X125597619Y-101002380D01*
X125692857Y-101050000D01*
X125740476Y-101097619D01*
X125788095Y-101192857D01*
X125788095Y-101335714D01*
X125740476Y-101430952D01*
X125692857Y-101478571D01*
X125597619Y-101526190D01*
X125216666Y-101526190D01*
X126740476Y-102002380D02*
X126169047Y-102002380D01*
X126454761Y-102002380D02*
X126454761Y-101002380D01*
X126359523Y-101145238D01*
X126264285Y-101240476D01*
X126169047Y-101288095D01*
X127073809Y-101002380D02*
X127692857Y-101002380D01*
X127359523Y-101383333D01*
X127502380Y-101383333D01*
X127597619Y-101430952D01*
X127645238Y-101478571D01*
X127692857Y-101573809D01*
X127692857Y-101811904D01*
X127645238Y-101907142D01*
X127597619Y-101954761D01*
X127502380Y-102002380D01*
X127216666Y-102002380D01*
X127121428Y-101954761D01*
X127073809Y-101907142D01*
%TO.C,C24*%
X158662142Y-91817142D02*
X158614523Y-91864761D01*
X158471666Y-91912380D01*
X158376428Y-91912380D01*
X158233571Y-91864761D01*
X158138333Y-91769523D01*
X158090714Y-91674285D01*
X158043095Y-91483809D01*
X158043095Y-91340952D01*
X158090714Y-91150476D01*
X158138333Y-91055238D01*
X158233571Y-90960000D01*
X158376428Y-90912380D01*
X158471666Y-90912380D01*
X158614523Y-90960000D01*
X158662142Y-91007619D01*
X159043095Y-91007619D02*
X159090714Y-90960000D01*
X159185952Y-90912380D01*
X159424047Y-90912380D01*
X159519285Y-90960000D01*
X159566904Y-91007619D01*
X159614523Y-91102857D01*
X159614523Y-91198095D01*
X159566904Y-91340952D01*
X158995476Y-91912380D01*
X159614523Y-91912380D01*
X160471666Y-91245714D02*
X160471666Y-91912380D01*
X160233571Y-90864761D02*
X159995476Y-91579047D01*
X160614523Y-91579047D01*
%TO.C,C25*%
X158657142Y-88007142D02*
X158609523Y-88054761D01*
X158466666Y-88102380D01*
X158371428Y-88102380D01*
X158228571Y-88054761D01*
X158133333Y-87959523D01*
X158085714Y-87864285D01*
X158038095Y-87673809D01*
X158038095Y-87530952D01*
X158085714Y-87340476D01*
X158133333Y-87245238D01*
X158228571Y-87150000D01*
X158371428Y-87102380D01*
X158466666Y-87102380D01*
X158609523Y-87150000D01*
X158657142Y-87197619D01*
X159038095Y-87197619D02*
X159085714Y-87150000D01*
X159180952Y-87102380D01*
X159419047Y-87102380D01*
X159514285Y-87150000D01*
X159561904Y-87197619D01*
X159609523Y-87292857D01*
X159609523Y-87388095D01*
X159561904Y-87530952D01*
X158990476Y-88102380D01*
X159609523Y-88102380D01*
X160514285Y-87102380D02*
X160038095Y-87102380D01*
X159990476Y-87578571D01*
X160038095Y-87530952D01*
X160133333Y-87483333D01*
X160371428Y-87483333D01*
X160466666Y-87530952D01*
X160514285Y-87578571D01*
X160561904Y-87673809D01*
X160561904Y-87911904D01*
X160514285Y-88007142D01*
X160466666Y-88054761D01*
X160371428Y-88102380D01*
X160133333Y-88102380D01*
X160038095Y-88054761D01*
X159990476Y-88007142D01*
%TO.C,J11*%
X145690476Y-87252380D02*
X145690476Y-87966666D01*
X145642857Y-88109523D01*
X145547619Y-88204761D01*
X145404761Y-88252380D01*
X145309523Y-88252380D01*
X146690476Y-88252380D02*
X146119047Y-88252380D01*
X146404761Y-88252380D02*
X146404761Y-87252380D01*
X146309523Y-87395238D01*
X146214285Y-87490476D01*
X146119047Y-87538095D01*
X147642857Y-88252380D02*
X147071428Y-88252380D01*
X147357142Y-88252380D02*
X147357142Y-87252380D01*
X147261904Y-87395238D01*
X147166666Y-87490476D01*
X147071428Y-87538095D01*
%TO.C,C48*%
X125977142Y-92417857D02*
X126024761Y-92465476D01*
X126072380Y-92608333D01*
X126072380Y-92703571D01*
X126024761Y-92846428D01*
X125929523Y-92941666D01*
X125834285Y-92989285D01*
X125643809Y-93036904D01*
X125500952Y-93036904D01*
X125310476Y-92989285D01*
X125215238Y-92941666D01*
X125120000Y-92846428D01*
X125072380Y-92703571D01*
X125072380Y-92608333D01*
X125120000Y-92465476D01*
X125167619Y-92417857D01*
X125405714Y-91560714D02*
X126072380Y-91560714D01*
X125024761Y-91798809D02*
X125739047Y-92036904D01*
X125739047Y-91417857D01*
X125500952Y-90894047D02*
X125453333Y-90989285D01*
X125405714Y-91036904D01*
X125310476Y-91084523D01*
X125262857Y-91084523D01*
X125167619Y-91036904D01*
X125120000Y-90989285D01*
X125072380Y-90894047D01*
X125072380Y-90703571D01*
X125120000Y-90608333D01*
X125167619Y-90560714D01*
X125262857Y-90513095D01*
X125310476Y-90513095D01*
X125405714Y-90560714D01*
X125453333Y-90608333D01*
X125500952Y-90703571D01*
X125500952Y-90894047D01*
X125548571Y-90989285D01*
X125596190Y-91036904D01*
X125691428Y-91084523D01*
X125881904Y-91084523D01*
X125977142Y-91036904D01*
X126024761Y-90989285D01*
X126072380Y-90894047D01*
X126072380Y-90703571D01*
X126024761Y-90608333D01*
X125977142Y-90560714D01*
X125881904Y-90513095D01*
X125691428Y-90513095D01*
X125596190Y-90560714D01*
X125548571Y-90608333D01*
X125500952Y-90703571D01*
%TO.C,R4*%
X134257380Y-73776666D02*
X133781190Y-74110000D01*
X134257380Y-74348095D02*
X133257380Y-74348095D01*
X133257380Y-73967142D01*
X133305000Y-73871904D01*
X133352619Y-73824285D01*
X133447857Y-73776666D01*
X133590714Y-73776666D01*
X133685952Y-73824285D01*
X133733571Y-73871904D01*
X133781190Y-73967142D01*
X133781190Y-74348095D01*
X133590714Y-72919523D02*
X134257380Y-72919523D01*
X133209761Y-73157619D02*
X133924047Y-73395714D01*
X133924047Y-72776666D01*
%TO.C,R14*%
X172602380Y-120792857D02*
X172126190Y-121126190D01*
X172602380Y-121364285D02*
X171602380Y-121364285D01*
X171602380Y-120983333D01*
X171650000Y-120888095D01*
X171697619Y-120840476D01*
X171792857Y-120792857D01*
X171935714Y-120792857D01*
X172030952Y-120840476D01*
X172078571Y-120888095D01*
X172126190Y-120983333D01*
X172126190Y-121364285D01*
X172602380Y-119840476D02*
X172602380Y-120411904D01*
X172602380Y-120126190D02*
X171602380Y-120126190D01*
X171745238Y-120221428D01*
X171840476Y-120316666D01*
X171888095Y-120411904D01*
X171935714Y-118983333D02*
X172602380Y-118983333D01*
X171554761Y-119221428D02*
X172269047Y-119459523D01*
X172269047Y-118840476D01*
%TO.C,C29*%
X152907142Y-114757142D02*
X152859523Y-114804761D01*
X152716666Y-114852380D01*
X152621428Y-114852380D01*
X152478571Y-114804761D01*
X152383333Y-114709523D01*
X152335714Y-114614285D01*
X152288095Y-114423809D01*
X152288095Y-114280952D01*
X152335714Y-114090476D01*
X152383333Y-113995238D01*
X152478571Y-113900000D01*
X152621428Y-113852380D01*
X152716666Y-113852380D01*
X152859523Y-113900000D01*
X152907142Y-113947619D01*
X153288095Y-113947619D02*
X153335714Y-113900000D01*
X153430952Y-113852380D01*
X153669047Y-113852380D01*
X153764285Y-113900000D01*
X153811904Y-113947619D01*
X153859523Y-114042857D01*
X153859523Y-114138095D01*
X153811904Y-114280952D01*
X153240476Y-114852380D01*
X153859523Y-114852380D01*
X154335714Y-114852380D02*
X154526190Y-114852380D01*
X154621428Y-114804761D01*
X154669047Y-114757142D01*
X154764285Y-114614285D01*
X154811904Y-114423809D01*
X154811904Y-114042857D01*
X154764285Y-113947619D01*
X154716666Y-113900000D01*
X154621428Y-113852380D01*
X154430952Y-113852380D01*
X154335714Y-113900000D01*
X154288095Y-113947619D01*
X154240476Y-114042857D01*
X154240476Y-114280952D01*
X154288095Y-114376190D01*
X154335714Y-114423809D01*
X154430952Y-114471428D01*
X154621428Y-114471428D01*
X154716666Y-114423809D01*
X154764285Y-114376190D01*
X154811904Y-114280952D01*
%TO.C,J9*%
X167861666Y-48632380D02*
X167861666Y-49346666D01*
X167814047Y-49489523D01*
X167718809Y-49584761D01*
X167575952Y-49632380D01*
X167480714Y-49632380D01*
X168385476Y-49632380D02*
X168575952Y-49632380D01*
X168671190Y-49584761D01*
X168718809Y-49537142D01*
X168814047Y-49394285D01*
X168861666Y-49203809D01*
X168861666Y-48822857D01*
X168814047Y-48727619D01*
X168766428Y-48680000D01*
X168671190Y-48632380D01*
X168480714Y-48632380D01*
X168385476Y-48680000D01*
X168337857Y-48727619D01*
X168290238Y-48822857D01*
X168290238Y-49060952D01*
X168337857Y-49156190D01*
X168385476Y-49203809D01*
X168480714Y-49251428D01*
X168671190Y-49251428D01*
X168766428Y-49203809D01*
X168814047Y-49156190D01*
X168861666Y-49060952D01*
%TO.C,R1*%
X168028333Y-58787380D02*
X167695000Y-58311190D01*
X167456904Y-58787380D02*
X167456904Y-57787380D01*
X167837857Y-57787380D01*
X167933095Y-57835000D01*
X167980714Y-57882619D01*
X168028333Y-57977857D01*
X168028333Y-58120714D01*
X167980714Y-58215952D01*
X167933095Y-58263571D01*
X167837857Y-58311190D01*
X167456904Y-58311190D01*
X168980714Y-58787380D02*
X168409285Y-58787380D01*
X168695000Y-58787380D02*
X168695000Y-57787380D01*
X168599761Y-57930238D01*
X168504523Y-58025476D01*
X168409285Y-58073095D01*
%TO.C,U2*%
X120443095Y-76662380D02*
X120443095Y-77471904D01*
X120490714Y-77567142D01*
X120538333Y-77614761D01*
X120633571Y-77662380D01*
X120824047Y-77662380D01*
X120919285Y-77614761D01*
X120966904Y-77567142D01*
X121014523Y-77471904D01*
X121014523Y-76662380D01*
X121443095Y-76757619D02*
X121490714Y-76710000D01*
X121585952Y-76662380D01*
X121824047Y-76662380D01*
X121919285Y-76710000D01*
X121966904Y-76757619D01*
X122014523Y-76852857D01*
X122014523Y-76948095D01*
X121966904Y-77090952D01*
X121395476Y-77662380D01*
X122014523Y-77662380D01*
%TO.C,C19*%
X158662142Y-110867142D02*
X158614523Y-110914761D01*
X158471666Y-110962380D01*
X158376428Y-110962380D01*
X158233571Y-110914761D01*
X158138333Y-110819523D01*
X158090714Y-110724285D01*
X158043095Y-110533809D01*
X158043095Y-110390952D01*
X158090714Y-110200476D01*
X158138333Y-110105238D01*
X158233571Y-110010000D01*
X158376428Y-109962380D01*
X158471666Y-109962380D01*
X158614523Y-110010000D01*
X158662142Y-110057619D01*
X159614523Y-110962380D02*
X159043095Y-110962380D01*
X159328809Y-110962380D02*
X159328809Y-109962380D01*
X159233571Y-110105238D01*
X159138333Y-110200476D01*
X159043095Y-110248095D01*
X160090714Y-110962380D02*
X160281190Y-110962380D01*
X160376428Y-110914761D01*
X160424047Y-110867142D01*
X160519285Y-110724285D01*
X160566904Y-110533809D01*
X160566904Y-110152857D01*
X160519285Y-110057619D01*
X160471666Y-110010000D01*
X160376428Y-109962380D01*
X160185952Y-109962380D01*
X160090714Y-110010000D01*
X160043095Y-110057619D01*
X159995476Y-110152857D01*
X159995476Y-110390952D01*
X160043095Y-110486190D01*
X160090714Y-110533809D01*
X160185952Y-110581428D01*
X160376428Y-110581428D01*
X160471666Y-110533809D01*
X160519285Y-110486190D01*
X160566904Y-110390952D01*
%TO.C,Q10*%
X148878571Y-134097619D02*
X148783333Y-134050000D01*
X148688095Y-133954761D01*
X148545238Y-133811904D01*
X148450000Y-133764285D01*
X148354761Y-133764285D01*
X148402380Y-134002380D02*
X148307142Y-133954761D01*
X148211904Y-133859523D01*
X148164285Y-133669047D01*
X148164285Y-133335714D01*
X148211904Y-133145238D01*
X148307142Y-133050000D01*
X148402380Y-133002380D01*
X148592857Y-133002380D01*
X148688095Y-133050000D01*
X148783333Y-133145238D01*
X148830952Y-133335714D01*
X148830952Y-133669047D01*
X148783333Y-133859523D01*
X148688095Y-133954761D01*
X148592857Y-134002380D01*
X148402380Y-134002380D01*
X149783333Y-134002380D02*
X149211904Y-134002380D01*
X149497619Y-134002380D02*
X149497619Y-133002380D01*
X149402380Y-133145238D01*
X149307142Y-133240476D01*
X149211904Y-133288095D01*
X150402380Y-133002380D02*
X150497619Y-133002380D01*
X150592857Y-133050000D01*
X150640476Y-133097619D01*
X150688095Y-133192857D01*
X150735714Y-133383333D01*
X150735714Y-133621428D01*
X150688095Y-133811904D01*
X150640476Y-133907142D01*
X150592857Y-133954761D01*
X150497619Y-134002380D01*
X150402380Y-134002380D01*
X150307142Y-133954761D01*
X150259523Y-133907142D01*
X150211904Y-133811904D01*
X150164285Y-133621428D01*
X150164285Y-133383333D01*
X150211904Y-133192857D01*
X150259523Y-133097619D01*
X150307142Y-133050000D01*
X150402380Y-133002380D01*
%TO.C,R30*%
X123157142Y-99122380D02*
X122823809Y-98646190D01*
X122585714Y-99122380D02*
X122585714Y-98122380D01*
X122966666Y-98122380D01*
X123061904Y-98170000D01*
X123109523Y-98217619D01*
X123157142Y-98312857D01*
X123157142Y-98455714D01*
X123109523Y-98550952D01*
X123061904Y-98598571D01*
X122966666Y-98646190D01*
X122585714Y-98646190D01*
X123490476Y-98122380D02*
X124109523Y-98122380D01*
X123776190Y-98503333D01*
X123919047Y-98503333D01*
X124014285Y-98550952D01*
X124061904Y-98598571D01*
X124109523Y-98693809D01*
X124109523Y-98931904D01*
X124061904Y-99027142D01*
X124014285Y-99074761D01*
X123919047Y-99122380D01*
X123633333Y-99122380D01*
X123538095Y-99074761D01*
X123490476Y-99027142D01*
X124728571Y-98122380D02*
X124823809Y-98122380D01*
X124919047Y-98170000D01*
X124966666Y-98217619D01*
X125014285Y-98312857D01*
X125061904Y-98503333D01*
X125061904Y-98741428D01*
X125014285Y-98931904D01*
X124966666Y-99027142D01*
X124919047Y-99074761D01*
X124823809Y-99122380D01*
X124728571Y-99122380D01*
X124633333Y-99074761D01*
X124585714Y-99027142D01*
X124538095Y-98931904D01*
X124490476Y-98741428D01*
X124490476Y-98503333D01*
X124538095Y-98312857D01*
X124585714Y-98217619D01*
X124633333Y-98170000D01*
X124728571Y-98122380D01*
%TO.C,C38*%
X152907142Y-80507142D02*
X152859523Y-80554761D01*
X152716666Y-80602380D01*
X152621428Y-80602380D01*
X152478571Y-80554761D01*
X152383333Y-80459523D01*
X152335714Y-80364285D01*
X152288095Y-80173809D01*
X152288095Y-80030952D01*
X152335714Y-79840476D01*
X152383333Y-79745238D01*
X152478571Y-79650000D01*
X152621428Y-79602380D01*
X152716666Y-79602380D01*
X152859523Y-79650000D01*
X152907142Y-79697619D01*
X153240476Y-79602380D02*
X153859523Y-79602380D01*
X153526190Y-79983333D01*
X153669047Y-79983333D01*
X153764285Y-80030952D01*
X153811904Y-80078571D01*
X153859523Y-80173809D01*
X153859523Y-80411904D01*
X153811904Y-80507142D01*
X153764285Y-80554761D01*
X153669047Y-80602380D01*
X153383333Y-80602380D01*
X153288095Y-80554761D01*
X153240476Y-80507142D01*
X154430952Y-80030952D02*
X154335714Y-79983333D01*
X154288095Y-79935714D01*
X154240476Y-79840476D01*
X154240476Y-79792857D01*
X154288095Y-79697619D01*
X154335714Y-79650000D01*
X154430952Y-79602380D01*
X154621428Y-79602380D01*
X154716666Y-79650000D01*
X154764285Y-79697619D01*
X154811904Y-79792857D01*
X154811904Y-79840476D01*
X154764285Y-79935714D01*
X154716666Y-79983333D01*
X154621428Y-80030952D01*
X154430952Y-80030952D01*
X154335714Y-80078571D01*
X154288095Y-80126190D01*
X154240476Y-80221428D01*
X154240476Y-80411904D01*
X154288095Y-80507142D01*
X154335714Y-80554761D01*
X154430952Y-80602380D01*
X154621428Y-80602380D01*
X154716666Y-80554761D01*
X154764285Y-80507142D01*
X154811904Y-80411904D01*
X154811904Y-80221428D01*
X154764285Y-80126190D01*
X154716666Y-80078571D01*
X154621428Y-80030952D01*
%TO.C,R38*%
X109157142Y-99432380D02*
X108823809Y-98956190D01*
X108585714Y-99432380D02*
X108585714Y-98432380D01*
X108966666Y-98432380D01*
X109061904Y-98480000D01*
X109109523Y-98527619D01*
X109157142Y-98622857D01*
X109157142Y-98765714D01*
X109109523Y-98860952D01*
X109061904Y-98908571D01*
X108966666Y-98956190D01*
X108585714Y-98956190D01*
X109490476Y-98432380D02*
X110109523Y-98432380D01*
X109776190Y-98813333D01*
X109919047Y-98813333D01*
X110014285Y-98860952D01*
X110061904Y-98908571D01*
X110109523Y-99003809D01*
X110109523Y-99241904D01*
X110061904Y-99337142D01*
X110014285Y-99384761D01*
X109919047Y-99432380D01*
X109633333Y-99432380D01*
X109538095Y-99384761D01*
X109490476Y-99337142D01*
X110680952Y-98860952D02*
X110585714Y-98813333D01*
X110538095Y-98765714D01*
X110490476Y-98670476D01*
X110490476Y-98622857D01*
X110538095Y-98527619D01*
X110585714Y-98480000D01*
X110680952Y-98432380D01*
X110871428Y-98432380D01*
X110966666Y-98480000D01*
X111014285Y-98527619D01*
X111061904Y-98622857D01*
X111061904Y-98670476D01*
X111014285Y-98765714D01*
X110966666Y-98813333D01*
X110871428Y-98860952D01*
X110680952Y-98860952D01*
X110585714Y-98908571D01*
X110538095Y-98956190D01*
X110490476Y-99051428D01*
X110490476Y-99241904D01*
X110538095Y-99337142D01*
X110585714Y-99384761D01*
X110680952Y-99432380D01*
X110871428Y-99432380D01*
X110966666Y-99384761D01*
X111014285Y-99337142D01*
X111061904Y-99241904D01*
X111061904Y-99051428D01*
X111014285Y-98956190D01*
X110966666Y-98908571D01*
X110871428Y-98860952D01*
%TO.C,C14*%
X175272142Y-78607142D02*
X175224523Y-78654761D01*
X175081666Y-78702380D01*
X174986428Y-78702380D01*
X174843571Y-78654761D01*
X174748333Y-78559523D01*
X174700714Y-78464285D01*
X174653095Y-78273809D01*
X174653095Y-78130952D01*
X174700714Y-77940476D01*
X174748333Y-77845238D01*
X174843571Y-77750000D01*
X174986428Y-77702380D01*
X175081666Y-77702380D01*
X175224523Y-77750000D01*
X175272142Y-77797619D01*
X176224523Y-78702380D02*
X175653095Y-78702380D01*
X175938809Y-78702380D02*
X175938809Y-77702380D01*
X175843571Y-77845238D01*
X175748333Y-77940476D01*
X175653095Y-77988095D01*
X177081666Y-78035714D02*
X177081666Y-78702380D01*
X176843571Y-77654761D02*
X176605476Y-78369047D01*
X177224523Y-78369047D01*
%TO.C,C28*%
X152907142Y-118507142D02*
X152859523Y-118554761D01*
X152716666Y-118602380D01*
X152621428Y-118602380D01*
X152478571Y-118554761D01*
X152383333Y-118459523D01*
X152335714Y-118364285D01*
X152288095Y-118173809D01*
X152288095Y-118030952D01*
X152335714Y-117840476D01*
X152383333Y-117745238D01*
X152478571Y-117650000D01*
X152621428Y-117602380D01*
X152716666Y-117602380D01*
X152859523Y-117650000D01*
X152907142Y-117697619D01*
X153288095Y-117697619D02*
X153335714Y-117650000D01*
X153430952Y-117602380D01*
X153669047Y-117602380D01*
X153764285Y-117650000D01*
X153811904Y-117697619D01*
X153859523Y-117792857D01*
X153859523Y-117888095D01*
X153811904Y-118030952D01*
X153240476Y-118602380D01*
X153859523Y-118602380D01*
X154430952Y-118030952D02*
X154335714Y-117983333D01*
X154288095Y-117935714D01*
X154240476Y-117840476D01*
X154240476Y-117792857D01*
X154288095Y-117697619D01*
X154335714Y-117650000D01*
X154430952Y-117602380D01*
X154621428Y-117602380D01*
X154716666Y-117650000D01*
X154764285Y-117697619D01*
X154811904Y-117792857D01*
X154811904Y-117840476D01*
X154764285Y-117935714D01*
X154716666Y-117983333D01*
X154621428Y-118030952D01*
X154430952Y-118030952D01*
X154335714Y-118078571D01*
X154288095Y-118126190D01*
X154240476Y-118221428D01*
X154240476Y-118411904D01*
X154288095Y-118507142D01*
X154335714Y-118554761D01*
X154430952Y-118602380D01*
X154621428Y-118602380D01*
X154716666Y-118554761D01*
X154764285Y-118507142D01*
X154811904Y-118411904D01*
X154811904Y-118221428D01*
X154764285Y-118126190D01*
X154716666Y-118078571D01*
X154621428Y-118030952D01*
%TO.C,J6*%
X109716666Y-102592380D02*
X109716666Y-103306666D01*
X109669047Y-103449523D01*
X109573809Y-103544761D01*
X109430952Y-103592380D01*
X109335714Y-103592380D01*
X110621428Y-102592380D02*
X110430952Y-102592380D01*
X110335714Y-102640000D01*
X110288095Y-102687619D01*
X110192857Y-102830476D01*
X110145238Y-103020952D01*
X110145238Y-103401904D01*
X110192857Y-103497142D01*
X110240476Y-103544761D01*
X110335714Y-103592380D01*
X110526190Y-103592380D01*
X110621428Y-103544761D01*
X110669047Y-103497142D01*
X110716666Y-103401904D01*
X110716666Y-103163809D01*
X110669047Y-103068571D01*
X110621428Y-103020952D01*
X110526190Y-102973333D01*
X110335714Y-102973333D01*
X110240476Y-103020952D01*
X110192857Y-103068571D01*
X110145238Y-103163809D01*
%TO.C,JP14*%
X141240476Y-115002380D02*
X141240476Y-115716666D01*
X141192857Y-115859523D01*
X141097619Y-115954761D01*
X140954761Y-116002380D01*
X140859523Y-116002380D01*
X141716666Y-116002380D02*
X141716666Y-115002380D01*
X142097619Y-115002380D01*
X142192857Y-115050000D01*
X142240476Y-115097619D01*
X142288095Y-115192857D01*
X142288095Y-115335714D01*
X142240476Y-115430952D01*
X142192857Y-115478571D01*
X142097619Y-115526190D01*
X141716666Y-115526190D01*
X143240476Y-116002380D02*
X142669047Y-116002380D01*
X142954761Y-116002380D02*
X142954761Y-115002380D01*
X142859523Y-115145238D01*
X142764285Y-115240476D01*
X142669047Y-115288095D01*
X144097619Y-115335714D02*
X144097619Y-116002380D01*
X143859523Y-114954761D02*
X143621428Y-115669047D01*
X144240476Y-115669047D01*
%TO.C,Q3*%
X146454761Y-101197619D02*
X146359523Y-101150000D01*
X146264285Y-101054761D01*
X146121428Y-100911904D01*
X146026190Y-100864285D01*
X145930952Y-100864285D01*
X145978571Y-101102380D02*
X145883333Y-101054761D01*
X145788095Y-100959523D01*
X145740476Y-100769047D01*
X145740476Y-100435714D01*
X145788095Y-100245238D01*
X145883333Y-100150000D01*
X145978571Y-100102380D01*
X146169047Y-100102380D01*
X146264285Y-100150000D01*
X146359523Y-100245238D01*
X146407142Y-100435714D01*
X146407142Y-100769047D01*
X146359523Y-100959523D01*
X146264285Y-101054761D01*
X146169047Y-101102380D01*
X145978571Y-101102380D01*
X146740476Y-100102380D02*
X147359523Y-100102380D01*
X147026190Y-100483333D01*
X147169047Y-100483333D01*
X147264285Y-100530952D01*
X147311904Y-100578571D01*
X147359523Y-100673809D01*
X147359523Y-100911904D01*
X147311904Y-101007142D01*
X147264285Y-101054761D01*
X147169047Y-101102380D01*
X146883333Y-101102380D01*
X146788095Y-101054761D01*
X146740476Y-101007142D01*
%TO.C,R23*%
X102932380Y-92602857D02*
X102456190Y-92936190D01*
X102932380Y-93174285D02*
X101932380Y-93174285D01*
X101932380Y-92793333D01*
X101980000Y-92698095D01*
X102027619Y-92650476D01*
X102122857Y-92602857D01*
X102265714Y-92602857D01*
X102360952Y-92650476D01*
X102408571Y-92698095D01*
X102456190Y-92793333D01*
X102456190Y-93174285D01*
X102027619Y-92221904D02*
X101980000Y-92174285D01*
X101932380Y-92079047D01*
X101932380Y-91840952D01*
X101980000Y-91745714D01*
X102027619Y-91698095D01*
X102122857Y-91650476D01*
X102218095Y-91650476D01*
X102360952Y-91698095D01*
X102932380Y-92269523D01*
X102932380Y-91650476D01*
X101932380Y-91317142D02*
X101932380Y-90698095D01*
X102313333Y-91031428D01*
X102313333Y-90888571D01*
X102360952Y-90793333D01*
X102408571Y-90745714D01*
X102503809Y-90698095D01*
X102741904Y-90698095D01*
X102837142Y-90745714D01*
X102884761Y-90793333D01*
X102932380Y-90888571D01*
X102932380Y-91174285D01*
X102884761Y-91269523D01*
X102837142Y-91317142D01*
%TO.C,C6*%
X140777142Y-103416666D02*
X140824761Y-103464285D01*
X140872380Y-103607142D01*
X140872380Y-103702380D01*
X140824761Y-103845238D01*
X140729523Y-103940476D01*
X140634285Y-103988095D01*
X140443809Y-104035714D01*
X140300952Y-104035714D01*
X140110476Y-103988095D01*
X140015238Y-103940476D01*
X139920000Y-103845238D01*
X139872380Y-103702380D01*
X139872380Y-103607142D01*
X139920000Y-103464285D01*
X139967619Y-103416666D01*
X139872380Y-102559523D02*
X139872380Y-102750000D01*
X139920000Y-102845238D01*
X139967619Y-102892857D01*
X140110476Y-102988095D01*
X140300952Y-103035714D01*
X140681904Y-103035714D01*
X140777142Y-102988095D01*
X140824761Y-102940476D01*
X140872380Y-102845238D01*
X140872380Y-102654761D01*
X140824761Y-102559523D01*
X140777142Y-102511904D01*
X140681904Y-102464285D01*
X140443809Y-102464285D01*
X140348571Y-102511904D01*
X140300952Y-102559523D01*
X140253333Y-102654761D01*
X140253333Y-102845238D01*
X140300952Y-102940476D01*
X140348571Y-102988095D01*
X140443809Y-103035714D01*
%TO.C,C9*%
X103003333Y-87247142D02*
X102955714Y-87294761D01*
X102812857Y-87342380D01*
X102717619Y-87342380D01*
X102574761Y-87294761D01*
X102479523Y-87199523D01*
X102431904Y-87104285D01*
X102384285Y-86913809D01*
X102384285Y-86770952D01*
X102431904Y-86580476D01*
X102479523Y-86485238D01*
X102574761Y-86390000D01*
X102717619Y-86342380D01*
X102812857Y-86342380D01*
X102955714Y-86390000D01*
X103003333Y-86437619D01*
X103479523Y-87342380D02*
X103670000Y-87342380D01*
X103765238Y-87294761D01*
X103812857Y-87247142D01*
X103908095Y-87104285D01*
X103955714Y-86913809D01*
X103955714Y-86532857D01*
X103908095Y-86437619D01*
X103860476Y-86390000D01*
X103765238Y-86342380D01*
X103574761Y-86342380D01*
X103479523Y-86390000D01*
X103431904Y-86437619D01*
X103384285Y-86532857D01*
X103384285Y-86770952D01*
X103431904Y-86866190D01*
X103479523Y-86913809D01*
X103574761Y-86961428D01*
X103765238Y-86961428D01*
X103860476Y-86913809D01*
X103908095Y-86866190D01*
X103955714Y-86770952D01*
%TO.C,R16*%
X132172380Y-124682857D02*
X131696190Y-125016190D01*
X132172380Y-125254285D02*
X131172380Y-125254285D01*
X131172380Y-124873333D01*
X131220000Y-124778095D01*
X131267619Y-124730476D01*
X131362857Y-124682857D01*
X131505714Y-124682857D01*
X131600952Y-124730476D01*
X131648571Y-124778095D01*
X131696190Y-124873333D01*
X131696190Y-125254285D01*
X132172380Y-123730476D02*
X132172380Y-124301904D01*
X132172380Y-124016190D02*
X131172380Y-124016190D01*
X131315238Y-124111428D01*
X131410476Y-124206666D01*
X131458095Y-124301904D01*
X131172380Y-122873333D02*
X131172380Y-123063809D01*
X131220000Y-123159047D01*
X131267619Y-123206666D01*
X131410476Y-123301904D01*
X131600952Y-123349523D01*
X131981904Y-123349523D01*
X132077142Y-123301904D01*
X132124761Y-123254285D01*
X132172380Y-123159047D01*
X132172380Y-122968571D01*
X132124761Y-122873333D01*
X132077142Y-122825714D01*
X131981904Y-122778095D01*
X131743809Y-122778095D01*
X131648571Y-122825714D01*
X131600952Y-122873333D01*
X131553333Y-122968571D01*
X131553333Y-123159047D01*
X131600952Y-123254285D01*
X131648571Y-123301904D01*
X131743809Y-123349523D01*
%TO.C,Q15*%
X129978571Y-94697619D02*
X129883333Y-94650000D01*
X129788095Y-94554761D01*
X129645238Y-94411904D01*
X129550000Y-94364285D01*
X129454761Y-94364285D01*
X129502380Y-94602380D02*
X129407142Y-94554761D01*
X129311904Y-94459523D01*
X129264285Y-94269047D01*
X129264285Y-93935714D01*
X129311904Y-93745238D01*
X129407142Y-93650000D01*
X129502380Y-93602380D01*
X129692857Y-93602380D01*
X129788095Y-93650000D01*
X129883333Y-93745238D01*
X129930952Y-93935714D01*
X129930952Y-94269047D01*
X129883333Y-94459523D01*
X129788095Y-94554761D01*
X129692857Y-94602380D01*
X129502380Y-94602380D01*
X130883333Y-94602380D02*
X130311904Y-94602380D01*
X130597619Y-94602380D02*
X130597619Y-93602380D01*
X130502380Y-93745238D01*
X130407142Y-93840476D01*
X130311904Y-93888095D01*
X131788095Y-93602380D02*
X131311904Y-93602380D01*
X131264285Y-94078571D01*
X131311904Y-94030952D01*
X131407142Y-93983333D01*
X131645238Y-93983333D01*
X131740476Y-94030952D01*
X131788095Y-94078571D01*
X131835714Y-94173809D01*
X131835714Y-94411904D01*
X131788095Y-94507142D01*
X131740476Y-94554761D01*
X131645238Y-94602380D01*
X131407142Y-94602380D01*
X131311904Y-94554761D01*
X131264285Y-94507142D01*
%TO.C,C41*%
X149227142Y-92747142D02*
X149179523Y-92794761D01*
X149036666Y-92842380D01*
X148941428Y-92842380D01*
X148798571Y-92794761D01*
X148703333Y-92699523D01*
X148655714Y-92604285D01*
X148608095Y-92413809D01*
X148608095Y-92270952D01*
X148655714Y-92080476D01*
X148703333Y-91985238D01*
X148798571Y-91890000D01*
X148941428Y-91842380D01*
X149036666Y-91842380D01*
X149179523Y-91890000D01*
X149227142Y-91937619D01*
X150084285Y-92175714D02*
X150084285Y-92842380D01*
X149846190Y-91794761D02*
X149608095Y-92509047D01*
X150227142Y-92509047D01*
X151131904Y-92842380D02*
X150560476Y-92842380D01*
X150846190Y-92842380D02*
X150846190Y-91842380D01*
X150750952Y-91985238D01*
X150655714Y-92080476D01*
X150560476Y-92128095D01*
%TO.C,Q6*%
X123604761Y-105147619D02*
X123509523Y-105100000D01*
X123414285Y-105004761D01*
X123271428Y-104861904D01*
X123176190Y-104814285D01*
X123080952Y-104814285D01*
X123128571Y-105052380D02*
X123033333Y-105004761D01*
X122938095Y-104909523D01*
X122890476Y-104719047D01*
X122890476Y-104385714D01*
X122938095Y-104195238D01*
X123033333Y-104100000D01*
X123128571Y-104052380D01*
X123319047Y-104052380D01*
X123414285Y-104100000D01*
X123509523Y-104195238D01*
X123557142Y-104385714D01*
X123557142Y-104719047D01*
X123509523Y-104909523D01*
X123414285Y-105004761D01*
X123319047Y-105052380D01*
X123128571Y-105052380D01*
X124414285Y-104052380D02*
X124223809Y-104052380D01*
X124128571Y-104100000D01*
X124080952Y-104147619D01*
X123985714Y-104290476D01*
X123938095Y-104480952D01*
X123938095Y-104861904D01*
X123985714Y-104957142D01*
X124033333Y-105004761D01*
X124128571Y-105052380D01*
X124319047Y-105052380D01*
X124414285Y-105004761D01*
X124461904Y-104957142D01*
X124509523Y-104861904D01*
X124509523Y-104623809D01*
X124461904Y-104528571D01*
X124414285Y-104480952D01*
X124319047Y-104433333D01*
X124128571Y-104433333D01*
X124033333Y-104480952D01*
X123985714Y-104528571D01*
X123938095Y-104623809D01*
%TO.C,R31*%
X120082380Y-93442857D02*
X119606190Y-93776190D01*
X120082380Y-94014285D02*
X119082380Y-94014285D01*
X119082380Y-93633333D01*
X119130000Y-93538095D01*
X119177619Y-93490476D01*
X119272857Y-93442857D01*
X119415714Y-93442857D01*
X119510952Y-93490476D01*
X119558571Y-93538095D01*
X119606190Y-93633333D01*
X119606190Y-94014285D01*
X119082380Y-93109523D02*
X119082380Y-92490476D01*
X119463333Y-92823809D01*
X119463333Y-92680952D01*
X119510952Y-92585714D01*
X119558571Y-92538095D01*
X119653809Y-92490476D01*
X119891904Y-92490476D01*
X119987142Y-92538095D01*
X120034761Y-92585714D01*
X120082380Y-92680952D01*
X120082380Y-92966666D01*
X120034761Y-93061904D01*
X119987142Y-93109523D01*
X120082380Y-91538095D02*
X120082380Y-92109523D01*
X120082380Y-91823809D02*
X119082380Y-91823809D01*
X119225238Y-91919047D01*
X119320476Y-92014285D01*
X119368095Y-92109523D01*
%TO.C,R32*%
X123157142Y-87372380D02*
X122823809Y-86896190D01*
X122585714Y-87372380D02*
X122585714Y-86372380D01*
X122966666Y-86372380D01*
X123061904Y-86420000D01*
X123109523Y-86467619D01*
X123157142Y-86562857D01*
X123157142Y-86705714D01*
X123109523Y-86800952D01*
X123061904Y-86848571D01*
X122966666Y-86896190D01*
X122585714Y-86896190D01*
X123490476Y-86372380D02*
X124109523Y-86372380D01*
X123776190Y-86753333D01*
X123919047Y-86753333D01*
X124014285Y-86800952D01*
X124061904Y-86848571D01*
X124109523Y-86943809D01*
X124109523Y-87181904D01*
X124061904Y-87277142D01*
X124014285Y-87324761D01*
X123919047Y-87372380D01*
X123633333Y-87372380D01*
X123538095Y-87324761D01*
X123490476Y-87277142D01*
X124490476Y-86467619D02*
X124538095Y-86420000D01*
X124633333Y-86372380D01*
X124871428Y-86372380D01*
X124966666Y-86420000D01*
X125014285Y-86467619D01*
X125061904Y-86562857D01*
X125061904Y-86658095D01*
X125014285Y-86800952D01*
X124442857Y-87372380D01*
X125061904Y-87372380D01*
%TO.C,R25*%
X140307142Y-122102380D02*
X139973809Y-121626190D01*
X139735714Y-122102380D02*
X139735714Y-121102380D01*
X140116666Y-121102380D01*
X140211904Y-121150000D01*
X140259523Y-121197619D01*
X140307142Y-121292857D01*
X140307142Y-121435714D01*
X140259523Y-121530952D01*
X140211904Y-121578571D01*
X140116666Y-121626190D01*
X139735714Y-121626190D01*
X140688095Y-121197619D02*
X140735714Y-121150000D01*
X140830952Y-121102380D01*
X141069047Y-121102380D01*
X141164285Y-121150000D01*
X141211904Y-121197619D01*
X141259523Y-121292857D01*
X141259523Y-121388095D01*
X141211904Y-121530952D01*
X140640476Y-122102380D01*
X141259523Y-122102380D01*
X142164285Y-121102380D02*
X141688095Y-121102380D01*
X141640476Y-121578571D01*
X141688095Y-121530952D01*
X141783333Y-121483333D01*
X142021428Y-121483333D01*
X142116666Y-121530952D01*
X142164285Y-121578571D01*
X142211904Y-121673809D01*
X142211904Y-121911904D01*
X142164285Y-122007142D01*
X142116666Y-122054761D01*
X142021428Y-122102380D01*
X141783333Y-122102380D01*
X141688095Y-122054761D01*
X141640476Y-122007142D01*
%TO.C,Q17*%
X129978571Y-99447619D02*
X129883333Y-99400000D01*
X129788095Y-99304761D01*
X129645238Y-99161904D01*
X129550000Y-99114285D01*
X129454761Y-99114285D01*
X129502380Y-99352380D02*
X129407142Y-99304761D01*
X129311904Y-99209523D01*
X129264285Y-99019047D01*
X129264285Y-98685714D01*
X129311904Y-98495238D01*
X129407142Y-98400000D01*
X129502380Y-98352380D01*
X129692857Y-98352380D01*
X129788095Y-98400000D01*
X129883333Y-98495238D01*
X129930952Y-98685714D01*
X129930952Y-99019047D01*
X129883333Y-99209523D01*
X129788095Y-99304761D01*
X129692857Y-99352380D01*
X129502380Y-99352380D01*
X130883333Y-99352380D02*
X130311904Y-99352380D01*
X130597619Y-99352380D02*
X130597619Y-98352380D01*
X130502380Y-98495238D01*
X130407142Y-98590476D01*
X130311904Y-98638095D01*
X131216666Y-98352380D02*
X131883333Y-98352380D01*
X131454761Y-99352380D01*
%TO.C,C46*%
X136907142Y-92807142D02*
X136859523Y-92854761D01*
X136716666Y-92902380D01*
X136621428Y-92902380D01*
X136478571Y-92854761D01*
X136383333Y-92759523D01*
X136335714Y-92664285D01*
X136288095Y-92473809D01*
X136288095Y-92330952D01*
X136335714Y-92140476D01*
X136383333Y-92045238D01*
X136478571Y-91950000D01*
X136621428Y-91902380D01*
X136716666Y-91902380D01*
X136859523Y-91950000D01*
X136907142Y-91997619D01*
X137764285Y-92235714D02*
X137764285Y-92902380D01*
X137526190Y-91854761D02*
X137288095Y-92569047D01*
X137907142Y-92569047D01*
X138716666Y-91902380D02*
X138526190Y-91902380D01*
X138430952Y-91950000D01*
X138383333Y-91997619D01*
X138288095Y-92140476D01*
X138240476Y-92330952D01*
X138240476Y-92711904D01*
X138288095Y-92807142D01*
X138335714Y-92854761D01*
X138430952Y-92902380D01*
X138621428Y-92902380D01*
X138716666Y-92854761D01*
X138764285Y-92807142D01*
X138811904Y-92711904D01*
X138811904Y-92473809D01*
X138764285Y-92378571D01*
X138716666Y-92330952D01*
X138621428Y-92283333D01*
X138430952Y-92283333D01*
X138335714Y-92330952D01*
X138288095Y-92378571D01*
X138240476Y-92473809D01*
%TO.C,C40*%
X147157142Y-114757142D02*
X147109523Y-114804761D01*
X146966666Y-114852380D01*
X146871428Y-114852380D01*
X146728571Y-114804761D01*
X146633333Y-114709523D01*
X146585714Y-114614285D01*
X146538095Y-114423809D01*
X146538095Y-114280952D01*
X146585714Y-114090476D01*
X146633333Y-113995238D01*
X146728571Y-113900000D01*
X146871428Y-113852380D01*
X146966666Y-113852380D01*
X147109523Y-113900000D01*
X147157142Y-113947619D01*
X148014285Y-114185714D02*
X148014285Y-114852380D01*
X147776190Y-113804761D02*
X147538095Y-114519047D01*
X148157142Y-114519047D01*
X148728571Y-113852380D02*
X148823809Y-113852380D01*
X148919047Y-113900000D01*
X148966666Y-113947619D01*
X149014285Y-114042857D01*
X149061904Y-114233333D01*
X149061904Y-114471428D01*
X149014285Y-114661904D01*
X148966666Y-114757142D01*
X148919047Y-114804761D01*
X148823809Y-114852380D01*
X148728571Y-114852380D01*
X148633333Y-114804761D01*
X148585714Y-114757142D01*
X148538095Y-114661904D01*
X148490476Y-114471428D01*
X148490476Y-114233333D01*
X148538095Y-114042857D01*
X148585714Y-113947619D01*
X148633333Y-113900000D01*
X148728571Y-113852380D01*
%TO.C,SW4*%
X173016666Y-58154761D02*
X173159523Y-58202380D01*
X173397619Y-58202380D01*
X173492857Y-58154761D01*
X173540476Y-58107142D01*
X173588095Y-58011904D01*
X173588095Y-57916666D01*
X173540476Y-57821428D01*
X173492857Y-57773809D01*
X173397619Y-57726190D01*
X173207142Y-57678571D01*
X173111904Y-57630952D01*
X173064285Y-57583333D01*
X173016666Y-57488095D01*
X173016666Y-57392857D01*
X173064285Y-57297619D01*
X173111904Y-57250000D01*
X173207142Y-57202380D01*
X173445238Y-57202380D01*
X173588095Y-57250000D01*
X173921428Y-57202380D02*
X174159523Y-58202380D01*
X174350000Y-57488095D01*
X174540476Y-58202380D01*
X174778571Y-57202380D01*
X175588095Y-57535714D02*
X175588095Y-58202380D01*
X175350000Y-57154761D02*
X175111904Y-57869047D01*
X175730952Y-57869047D01*
%TO.C,C39*%
X147157142Y-118507142D02*
X147109523Y-118554761D01*
X146966666Y-118602380D01*
X146871428Y-118602380D01*
X146728571Y-118554761D01*
X146633333Y-118459523D01*
X146585714Y-118364285D01*
X146538095Y-118173809D01*
X146538095Y-118030952D01*
X146585714Y-117840476D01*
X146633333Y-117745238D01*
X146728571Y-117650000D01*
X146871428Y-117602380D01*
X146966666Y-117602380D01*
X147109523Y-117650000D01*
X147157142Y-117697619D01*
X147490476Y-117602380D02*
X148109523Y-117602380D01*
X147776190Y-117983333D01*
X147919047Y-117983333D01*
X148014285Y-118030952D01*
X148061904Y-118078571D01*
X148109523Y-118173809D01*
X148109523Y-118411904D01*
X148061904Y-118507142D01*
X148014285Y-118554761D01*
X147919047Y-118602380D01*
X147633333Y-118602380D01*
X147538095Y-118554761D01*
X147490476Y-118507142D01*
X148585714Y-118602380D02*
X148776190Y-118602380D01*
X148871428Y-118554761D01*
X148919047Y-118507142D01*
X149014285Y-118364285D01*
X149061904Y-118173809D01*
X149061904Y-117792857D01*
X149014285Y-117697619D01*
X148966666Y-117650000D01*
X148871428Y-117602380D01*
X148680952Y-117602380D01*
X148585714Y-117650000D01*
X148538095Y-117697619D01*
X148490476Y-117792857D01*
X148490476Y-118030952D01*
X148538095Y-118126190D01*
X148585714Y-118173809D01*
X148680952Y-118221428D01*
X148871428Y-118221428D01*
X148966666Y-118173809D01*
X149014285Y-118126190D01*
X149061904Y-118030952D01*
%TO.C,Q2*%
X154129761Y-62712619D02*
X154034523Y-62665000D01*
X153939285Y-62569761D01*
X153796428Y-62426904D01*
X153701190Y-62379285D01*
X153605952Y-62379285D01*
X153653571Y-62617380D02*
X153558333Y-62569761D01*
X153463095Y-62474523D01*
X153415476Y-62284047D01*
X153415476Y-61950714D01*
X153463095Y-61760238D01*
X153558333Y-61665000D01*
X153653571Y-61617380D01*
X153844047Y-61617380D01*
X153939285Y-61665000D01*
X154034523Y-61760238D01*
X154082142Y-61950714D01*
X154082142Y-62284047D01*
X154034523Y-62474523D01*
X153939285Y-62569761D01*
X153844047Y-62617380D01*
X153653571Y-62617380D01*
X154463095Y-61712619D02*
X154510714Y-61665000D01*
X154605952Y-61617380D01*
X154844047Y-61617380D01*
X154939285Y-61665000D01*
X154986904Y-61712619D01*
X155034523Y-61807857D01*
X155034523Y-61903095D01*
X154986904Y-62045952D01*
X154415476Y-62617380D01*
X155034523Y-62617380D01*
%TO.C,R39*%
X109432380Y-84692857D02*
X108956190Y-85026190D01*
X109432380Y-85264285D02*
X108432380Y-85264285D01*
X108432380Y-84883333D01*
X108480000Y-84788095D01*
X108527619Y-84740476D01*
X108622857Y-84692857D01*
X108765714Y-84692857D01*
X108860952Y-84740476D01*
X108908571Y-84788095D01*
X108956190Y-84883333D01*
X108956190Y-85264285D01*
X108432380Y-84359523D02*
X108432380Y-83740476D01*
X108813333Y-84073809D01*
X108813333Y-83930952D01*
X108860952Y-83835714D01*
X108908571Y-83788095D01*
X109003809Y-83740476D01*
X109241904Y-83740476D01*
X109337142Y-83788095D01*
X109384761Y-83835714D01*
X109432380Y-83930952D01*
X109432380Y-84216666D01*
X109384761Y-84311904D01*
X109337142Y-84359523D01*
X109432380Y-83264285D02*
X109432380Y-83073809D01*
X109384761Y-82978571D01*
X109337142Y-82930952D01*
X109194285Y-82835714D01*
X109003809Y-82788095D01*
X108622857Y-82788095D01*
X108527619Y-82835714D01*
X108480000Y-82883333D01*
X108432380Y-82978571D01*
X108432380Y-83169047D01*
X108480000Y-83264285D01*
X108527619Y-83311904D01*
X108622857Y-83359523D01*
X108860952Y-83359523D01*
X108956190Y-83311904D01*
X109003809Y-83264285D01*
X109051428Y-83169047D01*
X109051428Y-82978571D01*
X109003809Y-82883333D01*
X108956190Y-82835714D01*
X108860952Y-82788095D01*
%TO.C,R45*%
X108707142Y-67232380D02*
X108373809Y-66756190D01*
X108135714Y-67232380D02*
X108135714Y-66232380D01*
X108516666Y-66232380D01*
X108611904Y-66280000D01*
X108659523Y-66327619D01*
X108707142Y-66422857D01*
X108707142Y-66565714D01*
X108659523Y-66660952D01*
X108611904Y-66708571D01*
X108516666Y-66756190D01*
X108135714Y-66756190D01*
X109564285Y-66565714D02*
X109564285Y-67232380D01*
X109326190Y-66184761D02*
X109088095Y-66899047D01*
X109707142Y-66899047D01*
X110564285Y-66232380D02*
X110088095Y-66232380D01*
X110040476Y-66708571D01*
X110088095Y-66660952D01*
X110183333Y-66613333D01*
X110421428Y-66613333D01*
X110516666Y-66660952D01*
X110564285Y-66708571D01*
X110611904Y-66803809D01*
X110611904Y-67041904D01*
X110564285Y-67137142D01*
X110516666Y-67184761D01*
X110421428Y-67232380D01*
X110183333Y-67232380D01*
X110088095Y-67184761D01*
X110040476Y-67137142D01*
%TO.C,Q12*%
X103578571Y-109197619D02*
X103483333Y-109150000D01*
X103388095Y-109054761D01*
X103245238Y-108911904D01*
X103150000Y-108864285D01*
X103054761Y-108864285D01*
X103102380Y-109102380D02*
X103007142Y-109054761D01*
X102911904Y-108959523D01*
X102864285Y-108769047D01*
X102864285Y-108435714D01*
X102911904Y-108245238D01*
X103007142Y-108150000D01*
X103102380Y-108102380D01*
X103292857Y-108102380D01*
X103388095Y-108150000D01*
X103483333Y-108245238D01*
X103530952Y-108435714D01*
X103530952Y-108769047D01*
X103483333Y-108959523D01*
X103388095Y-109054761D01*
X103292857Y-109102380D01*
X103102380Y-109102380D01*
X104483333Y-109102380D02*
X103911904Y-109102380D01*
X104197619Y-109102380D02*
X104197619Y-108102380D01*
X104102380Y-108245238D01*
X104007142Y-108340476D01*
X103911904Y-108388095D01*
X104864285Y-108197619D02*
X104911904Y-108150000D01*
X105007142Y-108102380D01*
X105245238Y-108102380D01*
X105340476Y-108150000D01*
X105388095Y-108197619D01*
X105435714Y-108292857D01*
X105435714Y-108388095D01*
X105388095Y-108530952D01*
X104816666Y-109102380D01*
X105435714Y-109102380D01*
%TO.C,C33*%
X152907142Y-99507142D02*
X152859523Y-99554761D01*
X152716666Y-99602380D01*
X152621428Y-99602380D01*
X152478571Y-99554761D01*
X152383333Y-99459523D01*
X152335714Y-99364285D01*
X152288095Y-99173809D01*
X152288095Y-99030952D01*
X152335714Y-98840476D01*
X152383333Y-98745238D01*
X152478571Y-98650000D01*
X152621428Y-98602380D01*
X152716666Y-98602380D01*
X152859523Y-98650000D01*
X152907142Y-98697619D01*
X153240476Y-98602380D02*
X153859523Y-98602380D01*
X153526190Y-98983333D01*
X153669047Y-98983333D01*
X153764285Y-99030952D01*
X153811904Y-99078571D01*
X153859523Y-99173809D01*
X153859523Y-99411904D01*
X153811904Y-99507142D01*
X153764285Y-99554761D01*
X153669047Y-99602380D01*
X153383333Y-99602380D01*
X153288095Y-99554761D01*
X153240476Y-99507142D01*
X154192857Y-98602380D02*
X154811904Y-98602380D01*
X154478571Y-98983333D01*
X154621428Y-98983333D01*
X154716666Y-99030952D01*
X154764285Y-99078571D01*
X154811904Y-99173809D01*
X154811904Y-99411904D01*
X154764285Y-99507142D01*
X154716666Y-99554761D01*
X154621428Y-99602380D01*
X154335714Y-99602380D01*
X154240476Y-99554761D01*
X154192857Y-99507142D01*
%TO.C,R9*%
X135193333Y-105032380D02*
X134860000Y-104556190D01*
X134621904Y-105032380D02*
X134621904Y-104032380D01*
X135002857Y-104032380D01*
X135098095Y-104080000D01*
X135145714Y-104127619D01*
X135193333Y-104222857D01*
X135193333Y-104365714D01*
X135145714Y-104460952D01*
X135098095Y-104508571D01*
X135002857Y-104556190D01*
X134621904Y-104556190D01*
X135669523Y-105032380D02*
X135860000Y-105032380D01*
X135955238Y-104984761D01*
X136002857Y-104937142D01*
X136098095Y-104794285D01*
X136145714Y-104603809D01*
X136145714Y-104222857D01*
X136098095Y-104127619D01*
X136050476Y-104080000D01*
X135955238Y-104032380D01*
X135764761Y-104032380D01*
X135669523Y-104080000D01*
X135621904Y-104127619D01*
X135574285Y-104222857D01*
X135574285Y-104460952D01*
X135621904Y-104556190D01*
X135669523Y-104603809D01*
X135764761Y-104651428D01*
X135955238Y-104651428D01*
X136050476Y-104603809D01*
X136098095Y-104556190D01*
X136145714Y-104460952D01*
%TO.C,JP12*%
X104302380Y-114659523D02*
X105016666Y-114659523D01*
X105159523Y-114707142D01*
X105254761Y-114802380D01*
X105302380Y-114945238D01*
X105302380Y-115040476D01*
X105302380Y-114183333D02*
X104302380Y-114183333D01*
X104302380Y-113802380D01*
X104350000Y-113707142D01*
X104397619Y-113659523D01*
X104492857Y-113611904D01*
X104635714Y-113611904D01*
X104730952Y-113659523D01*
X104778571Y-113707142D01*
X104826190Y-113802380D01*
X104826190Y-114183333D01*
X105302380Y-112659523D02*
X105302380Y-113230952D01*
X105302380Y-112945238D02*
X104302380Y-112945238D01*
X104445238Y-113040476D01*
X104540476Y-113135714D01*
X104588095Y-113230952D01*
X104397619Y-112278571D02*
X104350000Y-112230952D01*
X104302380Y-112135714D01*
X104302380Y-111897619D01*
X104350000Y-111802380D01*
X104397619Y-111754761D01*
X104492857Y-111707142D01*
X104588095Y-111707142D01*
X104730952Y-111754761D01*
X105302380Y-112326190D01*
X105302380Y-111707142D01*
%TO.C,J7*%
X173639880Y-130800833D02*
X174354166Y-130800833D01*
X174497023Y-130848452D01*
X174592261Y-130943690D01*
X174639880Y-131086547D01*
X174639880Y-131181785D01*
X173639880Y-130419880D02*
X173639880Y-129753214D01*
X174639880Y-130181785D01*
%TO.C,C4*%
X147227142Y-60216666D02*
X147274761Y-60264285D01*
X147322380Y-60407142D01*
X147322380Y-60502380D01*
X147274761Y-60645238D01*
X147179523Y-60740476D01*
X147084285Y-60788095D01*
X146893809Y-60835714D01*
X146750952Y-60835714D01*
X146560476Y-60788095D01*
X146465238Y-60740476D01*
X146370000Y-60645238D01*
X146322380Y-60502380D01*
X146322380Y-60407142D01*
X146370000Y-60264285D01*
X146417619Y-60216666D01*
X146655714Y-59359523D02*
X147322380Y-59359523D01*
X146274761Y-59597619D02*
X146989047Y-59835714D01*
X146989047Y-59216666D01*
%TO.C,U9*%
X115288095Y-76552380D02*
X115288095Y-77361904D01*
X115335714Y-77457142D01*
X115383333Y-77504761D01*
X115478571Y-77552380D01*
X115669047Y-77552380D01*
X115764285Y-77504761D01*
X115811904Y-77457142D01*
X115859523Y-77361904D01*
X115859523Y-76552380D01*
X116383333Y-77552380D02*
X116573809Y-77552380D01*
X116669047Y-77504761D01*
X116716666Y-77457142D01*
X116811904Y-77314285D01*
X116859523Y-77123809D01*
X116859523Y-76742857D01*
X116811904Y-76647619D01*
X116764285Y-76600000D01*
X116669047Y-76552380D01*
X116478571Y-76552380D01*
X116383333Y-76600000D01*
X116335714Y-76647619D01*
X116288095Y-76742857D01*
X116288095Y-76980952D01*
X116335714Y-77076190D01*
X116383333Y-77123809D01*
X116478571Y-77171428D01*
X116669047Y-77171428D01*
X116764285Y-77123809D01*
X116811904Y-77076190D01*
X116859523Y-76980952D01*
%TO.C,R40*%
X105932380Y-91442857D02*
X105456190Y-91776190D01*
X105932380Y-92014285D02*
X104932380Y-92014285D01*
X104932380Y-91633333D01*
X104980000Y-91538095D01*
X105027619Y-91490476D01*
X105122857Y-91442857D01*
X105265714Y-91442857D01*
X105360952Y-91490476D01*
X105408571Y-91538095D01*
X105456190Y-91633333D01*
X105456190Y-92014285D01*
X105265714Y-90585714D02*
X105932380Y-90585714D01*
X104884761Y-90823809D02*
X105599047Y-91061904D01*
X105599047Y-90442857D01*
X104932380Y-89871428D02*
X104932380Y-89776190D01*
X104980000Y-89680952D01*
X105027619Y-89633333D01*
X105122857Y-89585714D01*
X105313333Y-89538095D01*
X105551428Y-89538095D01*
X105741904Y-89585714D01*
X105837142Y-89633333D01*
X105884761Y-89680952D01*
X105932380Y-89776190D01*
X105932380Y-89871428D01*
X105884761Y-89966666D01*
X105837142Y-90014285D01*
X105741904Y-90061904D01*
X105551428Y-90109523D01*
X105313333Y-90109523D01*
X105122857Y-90061904D01*
X105027619Y-90014285D01*
X104980000Y-89966666D01*
X104932380Y-89871428D01*
%TO.C,Q1*%
X154129761Y-53327619D02*
X154034523Y-53280000D01*
X153939285Y-53184761D01*
X153796428Y-53041904D01*
X153701190Y-52994285D01*
X153605952Y-52994285D01*
X153653571Y-53232380D02*
X153558333Y-53184761D01*
X153463095Y-53089523D01*
X153415476Y-52899047D01*
X153415476Y-52565714D01*
X153463095Y-52375238D01*
X153558333Y-52280000D01*
X153653571Y-52232380D01*
X153844047Y-52232380D01*
X153939285Y-52280000D01*
X154034523Y-52375238D01*
X154082142Y-52565714D01*
X154082142Y-52899047D01*
X154034523Y-53089523D01*
X153939285Y-53184761D01*
X153844047Y-53232380D01*
X153653571Y-53232380D01*
X155034523Y-53232380D02*
X154463095Y-53232380D01*
X154748809Y-53232380D02*
X154748809Y-52232380D01*
X154653571Y-52375238D01*
X154558333Y-52470476D01*
X154463095Y-52518095D01*
D11*
%TO.C,C18*%
X160016252Y-111560000D02*
X158593748Y-111560000D01*
X160016252Y-113380000D02*
X158593748Y-113380000D01*
%TO.C,R46*%
X109047936Y-69615000D02*
X109502064Y-69615000D01*
X109047936Y-71085000D02*
X109502064Y-71085000D01*
%TO.C,R26*%
X123703641Y-89830000D02*
X123396359Y-89830000D01*
X123703641Y-89070000D02*
X123396359Y-89070000D01*
%TO.C,J3*%
X127420000Y-126580000D02*
X128055000Y-126580000D01*
X128055000Y-126580000D02*
X128055000Y-127215000D01*
%TO.C,J8*%
X170587500Y-124487500D02*
X170587500Y-127147500D01*
X171857500Y-124487500D02*
X173187500Y-124487500D01*
X173187500Y-124487500D02*
X173187500Y-125817500D01*
X170587500Y-124487500D02*
X134967500Y-124487500D01*
X134967500Y-124487500D02*
X134967500Y-127147500D01*
X170587500Y-127147500D02*
X134967500Y-127147500D01*
%TO.C,C26*%
X160011252Y-81140000D02*
X158588748Y-81140000D01*
X160011252Y-82960000D02*
X158588748Y-82960000D01*
%TO.C,L2*%
X115410000Y-84038748D02*
X115410000Y-84561252D01*
X113190000Y-84038748D02*
X113190000Y-84561252D01*
%TO.C,C3*%
X139060000Y-60440580D02*
X139060000Y-60159420D01*
X138040000Y-60440580D02*
X138040000Y-60159420D01*
%TO.C,C2*%
X136939420Y-72590000D02*
X137220580Y-72590000D01*
X136939420Y-73610000D02*
X137220580Y-73610000D01*
%TO.C,C34*%
X154261252Y-92640000D02*
X152838748Y-92640000D01*
X154261252Y-94460000D02*
X152838748Y-94460000D01*
%TO.C,R35*%
X111420000Y-92203641D02*
X111420000Y-91896359D01*
X112180000Y-92203641D02*
X112180000Y-91896359D01*
%TO.C,R15*%
X142363641Y-135620000D02*
X142056359Y-135620000D01*
X142363641Y-136380000D02*
X142056359Y-136380000D01*
%TO.C,R21*%
X152696359Y-136130000D02*
X153003641Y-136130000D01*
X152696359Y-135370000D02*
X153003641Y-135370000D01*
%TO.C,J10*%
X147880000Y-94780000D02*
X145220000Y-94780000D01*
X147880000Y-94780000D02*
X147880000Y-89640000D01*
X147880000Y-89640000D02*
X145220000Y-89640000D01*
X145220000Y-94780000D02*
X145220000Y-89640000D01*
X147880000Y-97380000D02*
X146550000Y-97380000D01*
X147880000Y-96050000D02*
X147880000Y-97380000D01*
%TO.C,SW2*%
X142200000Y-49635000D02*
X154200000Y-49635000D01*
X142200000Y-49135000D02*
X142200000Y-49635000D01*
X154200000Y-47035000D02*
X142200000Y-47035000D01*
X154200000Y-49635000D02*
X154200000Y-49135000D01*
X154200000Y-47535000D02*
X154200000Y-47035000D01*
X142200000Y-47035000D02*
X142200000Y-47535000D01*
%TO.C,R33*%
X129920000Y-84453641D02*
X129920000Y-84146359D01*
X130680000Y-84453641D02*
X130680000Y-84146359D01*
%TO.C,R13*%
X121030000Y-106886359D02*
X121030000Y-107193641D01*
X120270000Y-106886359D02*
X120270000Y-107193641D01*
%TO.C,J37*%
X163630000Y-57220000D02*
X163630000Y-58550000D01*
X162300000Y-57220000D02*
X163630000Y-57220000D01*
X161030000Y-57220000D02*
X161030000Y-59880000D01*
X161030000Y-59880000D02*
X158430000Y-59880000D01*
X158430000Y-57220000D02*
X158430000Y-59880000D01*
X161030000Y-57220000D02*
X158430000Y-57220000D01*
%TO.C,C27*%
X160011252Y-79210000D02*
X158588748Y-79210000D01*
X160011252Y-77390000D02*
X158588748Y-77390000D01*
%TO.C,R41*%
X108572936Y-73890000D02*
X110027064Y-73890000D01*
X108572936Y-75710000D02*
X110027064Y-75710000D01*
%TO.C,U1*%
X152320000Y-68000000D02*
X154270000Y-68000000D01*
X152320000Y-68000000D02*
X148870000Y-68000000D01*
X152320000Y-73120000D02*
X150370000Y-73120000D01*
X152320000Y-73120000D02*
X154270000Y-73120000D01*
%TO.C,R12*%
X125670000Y-110403641D02*
X125670000Y-110096359D01*
X126430000Y-110403641D02*
X126430000Y-110096359D01*
%TO.C,C44*%
X117709420Y-98040000D02*
X117990580Y-98040000D01*
X117709420Y-99060000D02*
X117990580Y-99060000D01*
%TO.C,R5*%
X116572936Y-62035000D02*
X117027064Y-62035000D01*
X116572936Y-60565000D02*
X117027064Y-60565000D01*
%TO.C,R8*%
X138127500Y-103012742D02*
X138127500Y-103487258D01*
X139172500Y-103012742D02*
X139172500Y-103487258D01*
%TO.C,U6*%
X118110000Y-105750000D02*
X118110000Y-102300000D01*
X112990000Y-105750000D02*
X112990000Y-103800000D01*
X118110000Y-105750000D02*
X118110000Y-107700000D01*
X112990000Y-105750000D02*
X112990000Y-107700000D01*
%TO.C,C8*%
X136115580Y-110160000D02*
X135834420Y-110160000D01*
X136115580Y-109140000D02*
X135834420Y-109140000D01*
%TO.C,SW3*%
X180150000Y-65400000D02*
X182150000Y-65400000D01*
X178850000Y-64350000D02*
X178400000Y-63900000D01*
X183900000Y-63900000D02*
X183900000Y-61400000D01*
X183450000Y-60950000D02*
X183900000Y-61400000D01*
X178850000Y-60950000D02*
X178400000Y-61400000D01*
X183450000Y-64350000D02*
X183900000Y-63900000D01*
X178400000Y-63900000D02*
X178400000Y-61400000D01*
X180150000Y-59900000D02*
X182150000Y-59900000D01*
%TO.C,C36*%
X154261252Y-84890000D02*
X152838748Y-84890000D01*
X154261252Y-86710000D02*
X152838748Y-86710000D01*
%TO.C,C10*%
X103109420Y-77060000D02*
X103390580Y-77060000D01*
X103109420Y-76040000D02*
X103390580Y-76040000D01*
%TO.C,U3*%
X141900000Y-61410000D02*
X144350000Y-61410000D01*
X143700000Y-58190000D02*
X141900000Y-58190000D01*
%TO.C,U5*%
X119550000Y-111765000D02*
X121750000Y-111765000D01*
X119550000Y-118535000D02*
X117350000Y-118535000D01*
X119550000Y-118535000D02*
X123150000Y-118535000D01*
X119550000Y-111765000D02*
X117350000Y-111765000D01*
%TO.C,R28*%
X112886359Y-115170000D02*
X113193641Y-115170000D01*
X112886359Y-115930000D02*
X113193641Y-115930000D01*
%TO.C,Q13*%
X102090000Y-95650000D02*
X102090000Y-95000000D01*
X105210000Y-95650000D02*
X105210000Y-96300000D01*
X105210000Y-95650000D02*
X105210000Y-95000000D01*
X102090000Y-95650000D02*
X102090000Y-97325000D01*
%TO.C,L1*%
X115410000Y-96038748D02*
X115410000Y-96561252D01*
X113190000Y-96038748D02*
X113190000Y-96561252D01*
%TO.C,R27*%
X152696359Y-120970000D02*
X153003641Y-120970000D01*
X152696359Y-121730000D02*
X153003641Y-121730000D01*
%TO.C,C35*%
X154261252Y-88640000D02*
X152838748Y-88640000D01*
X154261252Y-90460000D02*
X152838748Y-90460000D01*
%TO.C,J12*%
X126860000Y-50175000D02*
X128190000Y-50175000D01*
X129520000Y-52775000D02*
X129520000Y-55375000D01*
X126860000Y-55375000D02*
X129520000Y-55375000D01*
X126860000Y-51505000D02*
X126860000Y-50175000D01*
X126860000Y-52775000D02*
X129520000Y-52775000D01*
X126860000Y-52775000D02*
X126860000Y-55375000D01*
%TO.C,Q5*%
X129150000Y-105390000D02*
X129800000Y-105390000D01*
X129150000Y-108510000D02*
X128500000Y-108510000D01*
X129150000Y-108510000D02*
X129800000Y-108510000D01*
X129150000Y-105390000D02*
X127475000Y-105390000D01*
%TO.C,C45*%
X130160000Y-78190580D02*
X130160000Y-77909420D01*
X129140000Y-78190580D02*
X129140000Y-77909420D01*
%TO.C,C32*%
X154261252Y-100140000D02*
X152838748Y-100140000D01*
X154261252Y-101960000D02*
X152838748Y-101960000D01*
%TO.C,R36*%
X131893641Y-75930000D02*
X131586359Y-75930000D01*
X131893641Y-75170000D02*
X131586359Y-75170000D01*
%TO.C,U8*%
X116050000Y-89690000D02*
X113125000Y-89690000D01*
X116050000Y-89690000D02*
X117550000Y-89690000D01*
X116050000Y-92910000D02*
X117550000Y-92910000D01*
X116050000Y-92910000D02*
X114550000Y-92910000D01*
%TO.C,C20*%
X160016252Y-105760000D02*
X158593748Y-105760000D01*
X160016252Y-103940000D02*
X158593748Y-103940000D01*
%TO.C,R7*%
X146396359Y-56930000D02*
X146703641Y-56930000D01*
X146396359Y-56170000D02*
X146703641Y-56170000D01*
%TO.C,C21*%
X160016252Y-100130000D02*
X158593748Y-100130000D01*
X160016252Y-101950000D02*
X158593748Y-101950000D01*
%TO.C,U7*%
X110750000Y-117390000D02*
X108850000Y-117390000D01*
X109350000Y-119710000D02*
X110750000Y-119710000D01*
%TO.C,Q8*%
X195360000Y-87800000D02*
X195360000Y-87150000D01*
X195360000Y-87800000D02*
X195360000Y-88450000D01*
X192240000Y-87800000D02*
X192240000Y-89475000D01*
X192240000Y-87800000D02*
X192240000Y-87150000D01*
%TO.C,C23*%
X160016252Y-94330000D02*
X158593748Y-94330000D01*
X160016252Y-92510000D02*
X158593748Y-92510000D01*
%TO.C,D2*%
X135162500Y-113485000D02*
X137447500Y-113485000D01*
X137447500Y-112015000D02*
X135162500Y-112015000D01*
X137447500Y-113485000D02*
X137447500Y-112015000D01*
%TO.C,C7*%
X136090580Y-107760000D02*
X135809420Y-107760000D01*
X136090580Y-106740000D02*
X135809420Y-106740000D01*
%TO.C,C16*%
X160016252Y-115370000D02*
X158593748Y-115370000D01*
X160016252Y-117190000D02*
X158593748Y-117190000D01*
%TO.C,C47*%
X136838748Y-84710000D02*
X138261252Y-84710000D01*
X136838748Y-82890000D02*
X138261252Y-82890000D01*
%TO.C,R17*%
X193312742Y-85072500D02*
X193787258Y-85072500D01*
X193312742Y-84027500D02*
X193787258Y-84027500D01*
%TO.C,R3*%
X158397936Y-63135000D02*
X162752064Y-63135000D01*
X158397936Y-66555000D02*
X162752064Y-66555000D01*
%TO.C,R18*%
X189896359Y-91920000D02*
X190203641Y-91920000D01*
X189896359Y-92680000D02*
X190203641Y-92680000D01*
%TO.C,R24*%
X115886359Y-124430000D02*
X116193641Y-124430000D01*
X115886359Y-123670000D02*
X116193641Y-123670000D01*
%TO.C,R11*%
X129672500Y-112212258D02*
X129672500Y-111737742D01*
X128627500Y-112212258D02*
X128627500Y-111737742D01*
%TO.C,R6*%
X125322936Y-60565000D02*
X125777064Y-60565000D01*
X125322936Y-62035000D02*
X125777064Y-62035000D01*
%TO.C,U4*%
X130650000Y-115490000D02*
X128700000Y-115490000D01*
X130650000Y-115490000D02*
X132600000Y-115490000D01*
X130650000Y-120610000D02*
X134100000Y-120610000D01*
X130650000Y-120610000D02*
X128700000Y-120610000D01*
%TO.C,R29*%
X115803641Y-110270000D02*
X115496359Y-110270000D01*
X115803641Y-111030000D02*
X115496359Y-111030000D01*
%TO.C,D1*%
X133050000Y-66150000D02*
X135600000Y-66150000D01*
X133050000Y-64450000D02*
X133050000Y-66150000D01*
X133050000Y-64450000D02*
X135600000Y-64450000D01*
%TO.C,D3*%
X154315000Y-138550000D02*
X154315000Y-140835000D01*
X155785000Y-140835000D02*
X155785000Y-138550000D01*
X154315000Y-140835000D02*
X155785000Y-140835000D01*
%TO.C,C42*%
X108409420Y-80060000D02*
X108690580Y-80060000D01*
X108409420Y-79040000D02*
X108690580Y-79040000D01*
%TO.C,R19*%
X189886359Y-95180000D02*
X190193641Y-95180000D01*
X189886359Y-94420000D02*
X190193641Y-94420000D01*
%TO.C,C31*%
X154261252Y-103890000D02*
X152838748Y-103890000D01*
X154261252Y-105710000D02*
X152838748Y-105710000D01*
%TO.C,R43*%
X132786359Y-105370000D02*
X133093641Y-105370000D01*
X132786359Y-106130000D02*
X133093641Y-106130000D01*
%TO.C,Q9*%
X158850000Y-134290000D02*
X157175000Y-134290000D01*
X158850000Y-137410000D02*
X159500000Y-137410000D01*
X158850000Y-134290000D02*
X159500000Y-134290000D01*
X158850000Y-137410000D02*
X158200000Y-137410000D01*
%TO.C,JP7*%
X191250000Y-96500000D02*
X191850000Y-96500000D01*
X192550000Y-97200000D02*
X192550000Y-98600000D01*
X191850000Y-99300000D02*
X191250000Y-99300000D01*
X190550000Y-98600000D02*
X190550000Y-97200000D01*
X192550000Y-97200000D02*
G75*
G03*
X191850000Y-96500000I-699999J1D01*
G01*
X190550000Y-98600000D02*
G75*
G03*
X191250000Y-99300000I700000J0D01*
G01*
X191850000Y-99300000D02*
G75*
G03*
X192550000Y-98600000I0J700000D01*
G01*
X191250000Y-96500000D02*
G75*
G03*
X190550000Y-97200000I-1J-699999D01*
G01*
%TO.C,Q7*%
X137050000Y-137610000D02*
X136400000Y-137610000D01*
X137050000Y-137610000D02*
X137700000Y-137610000D01*
X137050000Y-134490000D02*
X135375000Y-134490000D01*
X137050000Y-134490000D02*
X137700000Y-134490000D01*
%TO.C,TP10*%
X122250000Y-57250000D02*
X119850000Y-57250000D01*
X119850000Y-54850000D02*
X122250000Y-54850000D01*
X119850000Y-57250000D02*
X119850000Y-54850000D01*
X122250000Y-54850000D02*
X122250000Y-57250000D01*
%TO.C,C17*%
X147692164Y-108190000D02*
X147907836Y-108190000D01*
X147692164Y-108910000D02*
X147907836Y-108910000D01*
%TO.C,C43*%
X126159420Y-80040000D02*
X126440580Y-80040000D01*
X126159420Y-81060000D02*
X126440580Y-81060000D01*
%TO.C,C37*%
X154261252Y-81140000D02*
X152838748Y-81140000D01*
X154261252Y-82960000D02*
X152838748Y-82960000D01*
%TO.C,C12*%
X103062164Y-81890000D02*
X103277836Y-81890000D01*
X103062164Y-82610000D02*
X103277836Y-82610000D01*
%TO.C,C5*%
X143409420Y-57060000D02*
X143690580Y-57060000D01*
X143409420Y-56040000D02*
X143690580Y-56040000D01*
%TO.C,Q11*%
X103950000Y-99490000D02*
X103300000Y-99490000D01*
X103950000Y-99490000D02*
X104600000Y-99490000D01*
X103950000Y-102610000D02*
X105625000Y-102610000D01*
X103950000Y-102610000D02*
X103300000Y-102610000D01*
%TO.C,R22*%
X101530000Y-92113641D02*
X101530000Y-91806359D01*
X100770000Y-92113641D02*
X100770000Y-91806359D01*
%TO.C,R37*%
X117622936Y-86885000D02*
X118077064Y-86885000D01*
X117622936Y-85415000D02*
X118077064Y-85415000D01*
%TO.C,R42*%
X131996359Y-88970000D02*
X132303641Y-88970000D01*
X131996359Y-89730000D02*
X132303641Y-89730000D01*
%TO.C,C15*%
X186115000Y-113620000D02*
X184115000Y-113620000D01*
X189115000Y-110620000D02*
X187115000Y-110620000D01*
X185115000Y-114620000D02*
X185115000Y-112620000D01*
X188115000Y-111620000D02*
X188115000Y-109620000D01*
X186615000Y-94620000D02*
X163615000Y-94620000D01*
X163615000Y-94620000D02*
X163615000Y-117620000D01*
X163615000Y-117620000D02*
X186615000Y-117620000D01*
X186615000Y-117620000D02*
X186615000Y-94620000D01*
%TO.C,R20*%
X155403641Y-135470000D02*
X155096359Y-135470000D01*
X155403641Y-136230000D02*
X155096359Y-136230000D01*
%TO.C,D4*%
X152215000Y-138537500D02*
X152215000Y-140822500D01*
X152215000Y-140822500D02*
X153685000Y-140822500D01*
X153685000Y-140822500D02*
X153685000Y-138537500D01*
%TO.C,JP4*%
X150850000Y-98800000D02*
X150850000Y-100200000D01*
X150150000Y-100900000D02*
X149550000Y-100900000D01*
X149550000Y-98100000D02*
X150150000Y-98100000D01*
X148850000Y-100200000D02*
X148850000Y-98800000D01*
X148850000Y-100200000D02*
G75*
G03*
X149550000Y-100900000I699999J-1D01*
G01*
X150150000Y-100900000D02*
G75*
G03*
X150850000Y-100200000I1J699999D01*
G01*
X150850000Y-98800000D02*
G75*
G03*
X150150000Y-98100000I-700000J0D01*
G01*
X149550000Y-98100000D02*
G75*
G03*
X148850000Y-98800000I0J-700000D01*
G01*
%TO.C,Q14*%
X144450000Y-123310000D02*
X145100000Y-123310000D01*
X144450000Y-120190000D02*
X145100000Y-120190000D01*
X144450000Y-123310000D02*
X143800000Y-123310000D01*
X144450000Y-120190000D02*
X142775000Y-120190000D01*
%TO.C,Q4*%
X140350000Y-110210000D02*
X139700000Y-110210000D01*
X140350000Y-110210000D02*
X141000000Y-110210000D01*
X140350000Y-107090000D02*
X138675000Y-107090000D01*
X140350000Y-107090000D02*
X141000000Y-107090000D01*
%TO.C,C11*%
X103109420Y-80060000D02*
X103390580Y-80060000D01*
X103109420Y-79040000D02*
X103390580Y-79040000D01*
%TO.C,Q16*%
X148650000Y-123310000D02*
X149300000Y-123310000D01*
X148650000Y-120190000D02*
X146975000Y-120190000D01*
X148650000Y-120190000D02*
X149300000Y-120190000D01*
X148650000Y-123310000D02*
X148000000Y-123310000D01*
%TO.C,R2*%
X167957742Y-63462500D02*
X168432258Y-63462500D01*
X167957742Y-62417500D02*
X168432258Y-62417500D01*
%TO.C,C1*%
X145810000Y-64637836D02*
X145810000Y-64422164D01*
X145090000Y-64637836D02*
X145090000Y-64422164D01*
%TO.C,C13*%
X103062164Y-84390000D02*
X103277836Y-84390000D01*
X103062164Y-85110000D02*
X103277836Y-85110000D01*
%TO.C,C22*%
X160016252Y-96320000D02*
X158593748Y-96320000D01*
X160016252Y-98140000D02*
X158593748Y-98140000D01*
%TO.C,R10*%
X131927500Y-112212258D02*
X131927500Y-111737742D01*
X132972500Y-112212258D02*
X132972500Y-111737742D01*
%TO.C,R44*%
X156403641Y-122370000D02*
X156096359Y-122370000D01*
X156403641Y-123130000D02*
X156096359Y-123130000D01*
%TO.C,C30*%
X154261252Y-107640000D02*
X152838748Y-107640000D01*
X154261252Y-109460000D02*
X152838748Y-109460000D01*
%TO.C,R34*%
X111277500Y-95537258D02*
X111277500Y-95062742D01*
X112322500Y-95537258D02*
X112322500Y-95062742D01*
%TO.C,JP13*%
X125350000Y-102350000D02*
X126750000Y-102350000D01*
X126750000Y-104350000D02*
X125350000Y-104350000D01*
X127450000Y-103050000D02*
X127450000Y-103650000D01*
X124650000Y-103650000D02*
X124650000Y-103050000D01*
X125350000Y-102350000D02*
G75*
G03*
X124650000Y-103050000I-1J-699999D01*
G01*
X126750000Y-104350000D02*
G75*
G03*
X127450000Y-103650000I0J700000D01*
G01*
X124650000Y-103650000D02*
G75*
G03*
X125350000Y-104350000I699999J-1D01*
G01*
X127450000Y-103050000D02*
G75*
G03*
X126750000Y-102350000I-700000J0D01*
G01*
%TO.C,C24*%
X160016252Y-88700000D02*
X158593748Y-88700000D01*
X160016252Y-90520000D02*
X158593748Y-90520000D01*
%TO.C,C25*%
X160011252Y-84890000D02*
X158588748Y-84890000D01*
X160011252Y-86710000D02*
X158588748Y-86710000D01*
%TO.C,J11*%
X147880000Y-86380000D02*
X146550000Y-86380000D01*
X147880000Y-83780000D02*
X145220000Y-83780000D01*
X147880000Y-85050000D02*
X147880000Y-86380000D01*
X145220000Y-83780000D02*
X145220000Y-78640000D01*
X147880000Y-83780000D02*
X147880000Y-78640000D01*
X147880000Y-78640000D02*
X145220000Y-78640000D01*
%TO.C,C48*%
X127560000Y-91915580D02*
X127560000Y-91634420D01*
X126540000Y-91915580D02*
X126540000Y-91634420D01*
%TO.C,R4*%
X133015000Y-73456359D02*
X133015000Y-73763641D01*
X132255000Y-73456359D02*
X132255000Y-73763641D01*
%TO.C,R14*%
X165172936Y-118440000D02*
X169527064Y-118440000D01*
X165172936Y-121860000D02*
X169527064Y-121860000D01*
%TO.C,C29*%
X154261252Y-111640000D02*
X152838748Y-111640000D01*
X154261252Y-113460000D02*
X152838748Y-113460000D01*
%TO.C,J9*%
X169525000Y-52780000D02*
X169525000Y-55380000D01*
X166865000Y-52780000D02*
X169525000Y-52780000D01*
X166865000Y-51510000D02*
X166865000Y-50180000D01*
X166865000Y-55380000D02*
X169525000Y-55380000D01*
X166865000Y-52780000D02*
X166865000Y-55380000D01*
X166865000Y-50180000D02*
X168195000Y-50180000D01*
%TO.C,R1*%
X167957742Y-60287500D02*
X168432258Y-60287500D01*
X167957742Y-59242500D02*
X168432258Y-59242500D01*
%TO.C,U2*%
X124155000Y-74810000D02*
X129280000Y-74810000D01*
X122655000Y-65360000D02*
X124155000Y-65360000D01*
X122655000Y-75760000D02*
X124155000Y-75760000D01*
X124155000Y-75760000D02*
X124155000Y-74810000D01*
X124155000Y-66310000D02*
X125255000Y-66310000D01*
X124155000Y-65360000D02*
X124155000Y-66310000D01*
%TO.C,C19*%
X160016252Y-107750000D02*
X158593748Y-107750000D01*
X160016252Y-109570000D02*
X158593748Y-109570000D01*
%TO.C,Q10*%
X149450000Y-134390000D02*
X147775000Y-134390000D01*
X149450000Y-137510000D02*
X148800000Y-137510000D01*
X149450000Y-137510000D02*
X150100000Y-137510000D01*
X149450000Y-134390000D02*
X150100000Y-134390000D01*
%TO.C,R30*%
X125977064Y-97760000D02*
X121622936Y-97760000D01*
X125977064Y-94340000D02*
X121622936Y-94340000D01*
%TO.C,C38*%
X154261252Y-79210000D02*
X152838748Y-79210000D01*
X154261252Y-77390000D02*
X152838748Y-77390000D01*
%TO.C,R38*%
X109072936Y-99890000D02*
X110527064Y-99890000D01*
X109072936Y-101710000D02*
X110527064Y-101710000D01*
%TO.C,C14*%
X189115000Y-83950000D02*
X187115000Y-83950000D01*
X185115000Y-87950000D02*
X185115000Y-85950000D01*
X186115000Y-86950000D02*
X184115000Y-86950000D01*
X188115000Y-84950000D02*
X188115000Y-82950000D01*
X186615000Y-67950000D02*
X163615000Y-67950000D01*
X163615000Y-67950000D02*
X163615000Y-90950000D01*
X163615000Y-90950000D02*
X186615000Y-90950000D01*
X186615000Y-90950000D02*
X186615000Y-67950000D01*
%TO.C,C28*%
X154261252Y-115390000D02*
X152838748Y-115390000D01*
X154261252Y-117210000D02*
X152838748Y-117210000D01*
%TO.C,J6*%
X108720000Y-104140000D02*
X110050000Y-104140000D01*
X111380000Y-106740000D02*
X111380000Y-114420000D01*
X108720000Y-106740000D02*
X108720000Y-114420000D01*
X108720000Y-106740000D02*
X111380000Y-106740000D01*
X108720000Y-114420000D02*
X111380000Y-114420000D01*
X108720000Y-105470000D02*
X108720000Y-104140000D01*
%TO.C,JP14*%
X141150000Y-117650000D02*
X141150000Y-117050000D01*
X143950000Y-117050000D02*
X143950000Y-117650000D01*
X143250000Y-118350000D02*
X141850000Y-118350000D01*
X141850000Y-116350000D02*
X143250000Y-116350000D01*
X143950000Y-117050000D02*
G75*
G03*
X143250000Y-116350000I-700000J0D01*
G01*
X143250000Y-118350000D02*
G75*
G03*
X143950000Y-117650000I0J700000D01*
G01*
X141850000Y-116350000D02*
G75*
G03*
X141150000Y-117050000I-1J-699999D01*
G01*
X141150000Y-117650000D02*
G75*
G03*
X141850000Y-118350000I699999J-1D01*
G01*
%TO.C,Q3*%
X146550000Y-101490000D02*
X144875000Y-101490000D01*
X146550000Y-104610000D02*
X145900000Y-104610000D01*
X146550000Y-101490000D02*
X147200000Y-101490000D01*
X146550000Y-104610000D02*
X147200000Y-104610000D01*
%TO.C,R23*%
X103270000Y-92113641D02*
X103270000Y-91806359D01*
X104030000Y-92113641D02*
X104030000Y-91806359D01*
%TO.C,C6*%
X142360000Y-103390580D02*
X142360000Y-103109420D01*
X141340000Y-103390580D02*
X141340000Y-103109420D01*
%TO.C,C9*%
X103062164Y-88410000D02*
X103277836Y-88410000D01*
X103062164Y-87690000D02*
X103277836Y-87690000D01*
%TO.C,R16*%
X130930000Y-123886359D02*
X130930000Y-124193641D01*
X130170000Y-123886359D02*
X130170000Y-124193641D01*
%TO.C,Q15*%
X130550000Y-98110000D02*
X131200000Y-98110000D01*
X130550000Y-94990000D02*
X128875000Y-94990000D01*
X130550000Y-94990000D02*
X131200000Y-94990000D01*
X130550000Y-98110000D02*
X129900000Y-98110000D01*
%TO.C,C41*%
X149762164Y-93910000D02*
X149977836Y-93910000D01*
X149762164Y-93190000D02*
X149977836Y-93190000D01*
%TO.C,Q6*%
X124650000Y-108510000D02*
X125300000Y-108510000D01*
X124650000Y-108510000D02*
X124000000Y-108510000D01*
X124650000Y-105390000D02*
X122975000Y-105390000D01*
X124650000Y-105390000D02*
X125300000Y-105390000D01*
%TO.C,R31*%
X121180000Y-92953641D02*
X121180000Y-92646359D01*
X120420000Y-92953641D02*
X120420000Y-92646359D01*
%TO.C,R32*%
X125977064Y-82590000D02*
X121622936Y-82590000D01*
X125977064Y-86010000D02*
X121622936Y-86010000D01*
%TO.C,R25*%
X141203641Y-122670000D02*
X140896359Y-122670000D01*
X141203641Y-123430000D02*
X140896359Y-123430000D01*
%TO.C,Q17*%
X130550000Y-102860000D02*
X129900000Y-102860000D01*
X130550000Y-99740000D02*
X131200000Y-99740000D01*
X130550000Y-102860000D02*
X131200000Y-102860000D01*
X130550000Y-99740000D02*
X128875000Y-99740000D01*
%TO.C,C46*%
X136838748Y-95210000D02*
X138261252Y-95210000D01*
X136838748Y-93390000D02*
X138261252Y-93390000D01*
%TO.C,C40*%
X148511252Y-111640000D02*
X147088748Y-111640000D01*
X148511252Y-113460000D02*
X147088748Y-113460000D01*
%TO.C,SW4*%
X176650000Y-64550000D02*
X177100000Y-64100000D01*
X172050000Y-64550000D02*
X171600000Y-64100000D01*
X177100000Y-64100000D02*
X177100000Y-61600000D01*
X173350000Y-65600000D02*
X175350000Y-65600000D01*
X173350000Y-60100000D02*
X175350000Y-60100000D01*
X176650000Y-61150000D02*
X177100000Y-61600000D01*
X171600000Y-64100000D02*
X171600000Y-61600000D01*
X172050000Y-61150000D02*
X171600000Y-61600000D01*
%TO.C,C39*%
X148511252Y-115390000D02*
X147088748Y-115390000D01*
X148511252Y-117210000D02*
X147088748Y-117210000D01*
%TO.C,Q2*%
X154225000Y-58205000D02*
X154875000Y-58205000D01*
X154225000Y-58205000D02*
X153575000Y-58205000D01*
X154225000Y-61325000D02*
X153575000Y-61325000D01*
X154225000Y-61325000D02*
X155900000Y-61325000D01*
%TO.C,R39*%
X111710000Y-84777064D02*
X111710000Y-83322936D01*
X109890000Y-84777064D02*
X109890000Y-83322936D01*
%TO.C,R45*%
X109587258Y-64827500D02*
X109112742Y-64827500D01*
X109587258Y-65872500D02*
X109112742Y-65872500D01*
%TO.C,Q12*%
X104150000Y-107610000D02*
X103500000Y-107610000D01*
X104150000Y-104490000D02*
X104800000Y-104490000D01*
X104150000Y-107610000D02*
X104800000Y-107610000D01*
X104150000Y-104490000D02*
X102475000Y-104490000D01*
%TO.C,C33*%
X154261252Y-98210000D02*
X152838748Y-98210000D01*
X154261252Y-96390000D02*
X152838748Y-96390000D01*
%TO.C,R9*%
X135206359Y-106130000D02*
X135513641Y-106130000D01*
X135206359Y-105370000D02*
X135513641Y-105370000D01*
%TO.C,JP12*%
X106350000Y-111950000D02*
X106950000Y-111950000D01*
X107650000Y-112650000D02*
X107650000Y-114050000D01*
X106950000Y-114750000D02*
X106350000Y-114750000D01*
X105650000Y-114050000D02*
X105650000Y-112650000D01*
X106950000Y-114750000D02*
G75*
G03*
X107650000Y-114050000I1J699999D01*
G01*
X106350000Y-111950000D02*
G75*
G03*
X105650000Y-112650000I0J-700000D01*
G01*
X105650000Y-114050000D02*
G75*
G03*
X106350000Y-114750000I699999J-1D01*
G01*
X107650000Y-112650000D02*
G75*
G03*
X106950000Y-111950000I-700000J0D01*
G01*
%TO.C,J7*%
X170587500Y-129137500D02*
X134967500Y-129137500D01*
X170587500Y-129137500D02*
X170587500Y-131797500D01*
X170587500Y-131797500D02*
X134967500Y-131797500D01*
X173187500Y-129137500D02*
X173187500Y-130467500D01*
X171857500Y-129137500D02*
X173187500Y-129137500D01*
X134967500Y-129137500D02*
X134967500Y-131797500D01*
%TO.C,C4*%
X148810000Y-60190580D02*
X148810000Y-59909420D01*
X147790000Y-60190580D02*
X147790000Y-59909420D01*
%TO.C,U9*%
X116050000Y-77940000D02*
X117550000Y-77940000D01*
X116050000Y-77940000D02*
X113125000Y-77940000D01*
X116050000Y-81160000D02*
X114550000Y-81160000D01*
X116050000Y-81160000D02*
X117550000Y-81160000D01*
%TO.C,R40*%
X106390000Y-91527064D02*
X106390000Y-90072936D01*
X108210000Y-91527064D02*
X108210000Y-90072936D01*
%TO.C,Q1*%
X154225000Y-53760000D02*
X154875000Y-53760000D01*
X154225000Y-53760000D02*
X153575000Y-53760000D01*
X154225000Y-56880000D02*
X153575000Y-56880000D01*
X154225000Y-56880000D02*
X155900000Y-56880000D01*
%TD*%
%LPC*%
D12*
%TO.C,C18*%
X160780000Y-112470000D03*
X157830000Y-112470000D03*
%TD*%
D13*
%TO.C,R46*%
X108362500Y-70350000D03*
X110187500Y-70350000D03*
%TD*%
D14*
%TO.C,R26*%
X124060000Y-89450000D03*
X123040000Y-89450000D03*
%TD*%
D15*
%TO.C,J3*%
X123610000Y-128866000D03*
X123610000Y-126834000D03*
X128690000Y-127850000D03*
D16*
X127420000Y-127215000D03*
X127420000Y-128485000D03*
X126150000Y-127215000D03*
X126150000Y-128485000D03*
X124880000Y-127215000D03*
X124880000Y-128485000D03*
%TD*%
D17*
%TO.C,J8*%
X171857500Y-125817500D03*
D18*
X169317500Y-125817500D03*
X166777500Y-125817500D03*
X164237500Y-125817500D03*
X161697500Y-125817500D03*
X159157500Y-125817500D03*
X156617500Y-125817500D03*
X154077500Y-125817500D03*
X151537500Y-125817500D03*
X148997500Y-125817500D03*
X146457500Y-125817500D03*
X143917500Y-125817500D03*
X141377500Y-125817500D03*
X138837500Y-125817500D03*
X136297500Y-125817500D03*
%TD*%
D12*
%TO.C,C26*%
X160775000Y-82050000D03*
X157825000Y-82050000D03*
%TD*%
D19*
%TO.C,L2*%
X114300000Y-83137500D03*
X114300000Y-85462500D03*
%TD*%
D20*
%TO.C,C3*%
X138550000Y-61075000D03*
X138550000Y-59525000D03*
%TD*%
D21*
%TO.C,C2*%
X136305000Y-73100000D03*
X137855000Y-73100000D03*
%TD*%
D12*
%TO.C,C34*%
X155025000Y-93550000D03*
X152075000Y-93550000D03*
%TD*%
D22*
%TO.C,R35*%
X111800000Y-92560000D03*
X111800000Y-91540000D03*
%TD*%
D14*
%TO.C,R15*%
X142720000Y-136000000D03*
X141700000Y-136000000D03*
%TD*%
D23*
%TO.C,R21*%
X152340000Y-135750000D03*
X153360000Y-135750000D03*
%TD*%
D17*
%TO.C,J10*%
X146550000Y-96050000D03*
D18*
X146550000Y-93510000D03*
X146550000Y-90970000D03*
%TD*%
D24*
%TO.C,SW2*%
X139000000Y-48335000D03*
X157400000Y-48335000D03*
%TD*%
D22*
%TO.C,R33*%
X130300000Y-84810000D03*
X130300000Y-83790000D03*
%TD*%
D25*
%TO.C,R13*%
X120650000Y-106530000D03*
X120650000Y-107550000D03*
%TD*%
D17*
%TO.C,J37*%
X162300000Y-58550000D03*
D18*
X159760000Y-58550000D03*
%TD*%
D12*
%TO.C,C27*%
X160775000Y-78300000D03*
X157825000Y-78300000D03*
%TD*%
D26*
%TO.C,R41*%
X107837500Y-74800000D03*
X110762500Y-74800000D03*
%TD*%
D27*
%TO.C,U1*%
X149845000Y-68655000D03*
X149845000Y-69925000D03*
X149845000Y-71195000D03*
X149845000Y-72465000D03*
X154795000Y-72465000D03*
X154795000Y-71195000D03*
X154795000Y-69925000D03*
X154795000Y-68655000D03*
%TD*%
D22*
%TO.C,R12*%
X126050000Y-110760000D03*
X126050000Y-109740000D03*
%TD*%
D21*
%TO.C,C44*%
X117075000Y-98550000D03*
X118625000Y-98550000D03*
%TD*%
D13*
%TO.C,R5*%
X115887500Y-61300000D03*
X117712500Y-61300000D03*
%TD*%
D28*
%TO.C,R8*%
X138650000Y-102425000D03*
X138650000Y-104075000D03*
%TD*%
D29*
%TO.C,U6*%
X117455000Y-103275000D03*
X116185000Y-103275000D03*
X114915000Y-103275000D03*
X113645000Y-103275000D03*
X113645000Y-108225000D03*
X114915000Y-108225000D03*
X116185000Y-108225000D03*
X117455000Y-108225000D03*
%TD*%
D30*
%TO.C,C8*%
X136750000Y-109650000D03*
X135200000Y-109650000D03*
%TD*%
D31*
%TO.C,SW3*%
X179250000Y-65800000D03*
X179250000Y-59500000D03*
X183050000Y-59500000D03*
X183050000Y-65800000D03*
%TD*%
D12*
%TO.C,C36*%
X155025000Y-85800000D03*
X152075000Y-85800000D03*
%TD*%
D21*
%TO.C,C10*%
X102475000Y-76550000D03*
X104025000Y-76550000D03*
%TD*%
D32*
%TO.C,U3*%
X144150000Y-60750000D03*
X144150000Y-59800000D03*
X144150000Y-58850000D03*
X141450000Y-58850000D03*
X141450000Y-60750000D03*
%TD*%
D33*
%TO.C,U5*%
X122412500Y-118075000D03*
X122412500Y-117425000D03*
X122412500Y-116775000D03*
X122412500Y-116125000D03*
X122412500Y-115475000D03*
X122412500Y-114825000D03*
X122412500Y-114175000D03*
X122412500Y-113525000D03*
X122412500Y-112875000D03*
X122412500Y-112225000D03*
X116687500Y-112225000D03*
X116687500Y-112875000D03*
X116687500Y-113525000D03*
X116687500Y-114175000D03*
X116687500Y-114825000D03*
X116687500Y-115475000D03*
X116687500Y-116125000D03*
X116687500Y-116775000D03*
X116687500Y-117425000D03*
X116687500Y-118075000D03*
%TD*%
D23*
%TO.C,R28*%
X112530000Y-115550000D03*
X113550000Y-115550000D03*
%TD*%
D34*
%TO.C,Q13*%
X102700000Y-96587500D03*
X104600000Y-96587500D03*
X103650000Y-94712500D03*
%TD*%
D19*
%TO.C,L1*%
X114300000Y-95137500D03*
X114300000Y-97462500D03*
%TD*%
D23*
%TO.C,R27*%
X152340000Y-121350000D03*
X153360000Y-121350000D03*
%TD*%
D12*
%TO.C,C35*%
X155025000Y-89550000D03*
X152075000Y-89550000D03*
%TD*%
D17*
%TO.C,J12*%
X128190000Y-51505000D03*
D18*
X128190000Y-54045000D03*
%TD*%
D35*
%TO.C,Q5*%
X128212500Y-106000000D03*
X128212500Y-107900000D03*
X130087500Y-106950000D03*
%TD*%
D20*
%TO.C,C45*%
X129650000Y-78825000D03*
X129650000Y-77275000D03*
%TD*%
D12*
%TO.C,C32*%
X155025000Y-101050000D03*
X152075000Y-101050000D03*
%TD*%
D14*
%TO.C,R36*%
X132250000Y-75550000D03*
X131230000Y-75550000D03*
%TD*%
D36*
%TO.C,U8*%
X113850000Y-90300000D03*
X113850000Y-90800000D03*
X113850000Y-91300000D03*
X113850000Y-91800000D03*
X113850000Y-92300000D03*
X118250000Y-92300000D03*
X118250000Y-91800000D03*
X118250000Y-91300000D03*
X118250000Y-90800000D03*
X118250000Y-90300000D03*
%TD*%
D12*
%TO.C,C20*%
X160780000Y-104850000D03*
X157830000Y-104850000D03*
%TD*%
D23*
%TO.C,R7*%
X146040000Y-56550000D03*
X147060000Y-56550000D03*
%TD*%
D12*
%TO.C,C21*%
X160780000Y-101040000D03*
X157830000Y-101040000D03*
%TD*%
D37*
%TO.C,U7*%
X109100000Y-117900000D03*
X109100000Y-118550000D03*
X109100000Y-119200000D03*
X111000000Y-119200000D03*
X111000000Y-117900000D03*
%TD*%
D34*
%TO.C,Q8*%
X192850000Y-88737500D03*
X194750000Y-88737500D03*
X193800000Y-86862500D03*
%TD*%
D12*
%TO.C,C23*%
X160780000Y-93420000D03*
X157830000Y-93420000D03*
%TD*%
D38*
%TO.C,D2*%
X136750000Y-112750000D03*
X135175000Y-112750000D03*
%TD*%
D30*
%TO.C,C7*%
X136725000Y-107250000D03*
X135175000Y-107250000D03*
%TD*%
D12*
%TO.C,C16*%
X160780000Y-116280000D03*
X157830000Y-116280000D03*
%TD*%
D39*
%TO.C,C47*%
X136075000Y-83800000D03*
X139025000Y-83800000D03*
%TD*%
D40*
%TO.C,R17*%
X192725000Y-84550000D03*
X194375000Y-84550000D03*
%TD*%
D41*
%TO.C,R3*%
X157612500Y-64845000D03*
X163537500Y-64845000D03*
%TD*%
D23*
%TO.C,R18*%
X189540000Y-92300000D03*
X190560000Y-92300000D03*
%TD*%
%TO.C,R24*%
X115530000Y-124050000D03*
X116550000Y-124050000D03*
%TD*%
D42*
%TO.C,R11*%
X129150000Y-112800000D03*
X129150000Y-111150000D03*
%TD*%
D13*
%TO.C,R6*%
X124637500Y-61300000D03*
X126462500Y-61300000D03*
%TD*%
D43*
%TO.C,U4*%
X133125000Y-119955000D03*
X133125000Y-118685000D03*
X133125000Y-117415000D03*
X133125000Y-116145000D03*
X128175000Y-116145000D03*
X128175000Y-117415000D03*
X128175000Y-118685000D03*
X128175000Y-119955000D03*
%TD*%
D14*
%TO.C,R29*%
X116160000Y-110650000D03*
X115140000Y-110650000D03*
%TD*%
D44*
%TO.C,D1*%
X133500000Y-65300000D03*
X135600000Y-65300000D03*
%TD*%
D45*
%TO.C,D3*%
X155050000Y-140137500D03*
X155050000Y-138562500D03*
%TD*%
D21*
%TO.C,C42*%
X107775000Y-79550000D03*
X109325000Y-79550000D03*
%TD*%
D23*
%TO.C,R19*%
X189530000Y-94800000D03*
X190550000Y-94800000D03*
%TD*%
D12*
%TO.C,C31*%
X155025000Y-104800000D03*
X152075000Y-104800000D03*
%TD*%
D23*
%TO.C,R43*%
X132430000Y-105750000D03*
X133450000Y-105750000D03*
%TD*%
D35*
%TO.C,Q9*%
X157912500Y-134900000D03*
X157912500Y-136800000D03*
X159787500Y-135850000D03*
%TD*%
D46*
%TO.C,JP7*%
X191550000Y-97250000D03*
D47*
X191550000Y-98550000D03*
%TD*%
D35*
%TO.C,Q7*%
X136112500Y-135100000D03*
X136112500Y-137000000D03*
X137987500Y-136050000D03*
%TD*%
D48*
%TO.C,TP10*%
X121050000Y-56050000D03*
%TD*%
D49*
%TO.C,C17*%
X147320000Y-108550000D03*
X148280000Y-108550000D03*
%TD*%
D21*
%TO.C,C43*%
X125525000Y-80550000D03*
X127075000Y-80550000D03*
%TD*%
D12*
%TO.C,C37*%
X155025000Y-82050000D03*
X152075000Y-82050000D03*
%TD*%
D49*
%TO.C,C12*%
X102690000Y-82250000D03*
X103650000Y-82250000D03*
%TD*%
D21*
%TO.C,C5*%
X142775000Y-56550000D03*
X144325000Y-56550000D03*
%TD*%
D50*
%TO.C,Q11*%
X104887500Y-102000000D03*
X104887500Y-100100000D03*
X103012500Y-101050000D03*
%TD*%
D22*
%TO.C,R22*%
X101150000Y-92470000D03*
X101150000Y-91450000D03*
%TD*%
D13*
%TO.C,R37*%
X116937500Y-86150000D03*
X118762500Y-86150000D03*
%TD*%
D23*
%TO.C,R42*%
X131640000Y-89350000D03*
X132660000Y-89350000D03*
%TD*%
D51*
%TO.C,C15*%
X188115000Y-113620000D03*
X188115000Y-98620000D03*
%TD*%
D14*
%TO.C,R20*%
X155760000Y-135850000D03*
X154740000Y-135850000D03*
%TD*%
D45*
%TO.C,D4*%
X152950000Y-140125000D03*
X152950000Y-138550000D03*
%TD*%
D52*
%TO.C,JP4*%
X149850000Y-100150000D03*
D53*
X149850000Y-98850000D03*
%TD*%
D35*
%TO.C,Q14*%
X143512500Y-120800000D03*
X143512500Y-122700000D03*
X145387500Y-121750000D03*
%TD*%
%TO.C,Q4*%
X139412500Y-107700000D03*
X139412500Y-109600000D03*
X141287500Y-108650000D03*
%TD*%
D21*
%TO.C,C11*%
X102475000Y-79550000D03*
X104025000Y-79550000D03*
%TD*%
D35*
%TO.C,Q16*%
X147712500Y-120800000D03*
X147712500Y-122700000D03*
X149587500Y-121750000D03*
%TD*%
D40*
%TO.C,R2*%
X167370000Y-62940000D03*
X169020000Y-62940000D03*
%TD*%
D54*
%TO.C,C1*%
X145450000Y-65010000D03*
X145450000Y-64050000D03*
%TD*%
D49*
%TO.C,C13*%
X102690000Y-84750000D03*
X103650000Y-84750000D03*
%TD*%
D12*
%TO.C,C22*%
X160780000Y-97230000D03*
X157830000Y-97230000D03*
%TD*%
D42*
%TO.C,R10*%
X132450000Y-112800000D03*
X132450000Y-111150000D03*
%TD*%
D14*
%TO.C,R44*%
X156760000Y-122750000D03*
X155740000Y-122750000D03*
%TD*%
D12*
%TO.C,C30*%
X155025000Y-108550000D03*
X152075000Y-108550000D03*
%TD*%
D42*
%TO.C,R34*%
X111800000Y-96125000D03*
X111800000Y-94475000D03*
%TD*%
D55*
%TO.C,JP13*%
X125400000Y-103350000D03*
D56*
X126700000Y-103350000D03*
%TD*%
D12*
%TO.C,C24*%
X160780000Y-89610000D03*
X157830000Y-89610000D03*
%TD*%
%TO.C,C25*%
X160775000Y-85800000D03*
X157825000Y-85800000D03*
%TD*%
D17*
%TO.C,J11*%
X146550000Y-85050000D03*
D18*
X146550000Y-82510000D03*
X146550000Y-79970000D03*
%TD*%
D20*
%TO.C,C48*%
X127050000Y-92550000D03*
X127050000Y-91000000D03*
%TD*%
D25*
%TO.C,R4*%
X132635000Y-73100000D03*
X132635000Y-74120000D03*
%TD*%
D41*
%TO.C,R14*%
X164387500Y-120150000D03*
X170312500Y-120150000D03*
%TD*%
D12*
%TO.C,C29*%
X155025000Y-112550000D03*
X152075000Y-112550000D03*
%TD*%
D17*
%TO.C,J9*%
X168195000Y-51510000D03*
D18*
X168195000Y-54050000D03*
%TD*%
D40*
%TO.C,R1*%
X167370000Y-59765000D03*
X169020000Y-59765000D03*
%TD*%
D57*
%TO.C,U2*%
X126980000Y-73960000D03*
X126980000Y-72260000D03*
D58*
X117830000Y-70560000D03*
D57*
X126980000Y-70560000D03*
X126980000Y-68860000D03*
X126980000Y-67160000D03*
%TD*%
D12*
%TO.C,C19*%
X160780000Y-108660000D03*
X157830000Y-108660000D03*
%TD*%
D35*
%TO.C,Q10*%
X148512500Y-135000000D03*
X148512500Y-136900000D03*
X150387500Y-135950000D03*
%TD*%
D59*
%TO.C,R30*%
X126850000Y-96050000D03*
X120750000Y-96050000D03*
%TD*%
D12*
%TO.C,C38*%
X155025000Y-78300000D03*
X152075000Y-78300000D03*
%TD*%
D26*
%TO.C,R38*%
X108337500Y-100800000D03*
X111262500Y-100800000D03*
%TD*%
D51*
%TO.C,C14*%
X188115000Y-86950000D03*
X188115000Y-71950000D03*
%TD*%
D12*
%TO.C,C28*%
X155025000Y-116300000D03*
X152075000Y-116300000D03*
%TD*%
D17*
%TO.C,J6*%
X110050000Y-105470000D03*
D18*
X110050000Y-108010000D03*
X110050000Y-110550000D03*
X110050000Y-113090000D03*
%TD*%
D55*
%TO.C,JP14*%
X141900000Y-117350000D03*
D56*
X143200000Y-117350000D03*
%TD*%
D35*
%TO.C,Q3*%
X145612500Y-102100000D03*
X145612500Y-104000000D03*
X147487500Y-103050000D03*
%TD*%
D22*
%TO.C,R23*%
X103650000Y-92470000D03*
X103650000Y-91450000D03*
%TD*%
D20*
%TO.C,C6*%
X141850000Y-104025000D03*
X141850000Y-102475000D03*
%TD*%
D49*
%TO.C,C9*%
X102690000Y-88050000D03*
X103650000Y-88050000D03*
%TD*%
D25*
%TO.C,R16*%
X130550000Y-123530000D03*
X130550000Y-124550000D03*
%TD*%
D35*
%TO.C,Q15*%
X129612500Y-95600000D03*
X129612500Y-97500000D03*
X131487500Y-96550000D03*
%TD*%
D49*
%TO.C,C41*%
X149390000Y-93550000D03*
X150350000Y-93550000D03*
%TD*%
D35*
%TO.C,Q6*%
X123712500Y-106000000D03*
X123712500Y-107900000D03*
X125587500Y-106950000D03*
%TD*%
D22*
%TO.C,R31*%
X120800000Y-93310000D03*
X120800000Y-92290000D03*
%TD*%
D59*
%TO.C,R32*%
X126850000Y-84300000D03*
X120750000Y-84300000D03*
%TD*%
D14*
%TO.C,R25*%
X141560000Y-123050000D03*
X140540000Y-123050000D03*
%TD*%
D35*
%TO.C,Q17*%
X129612500Y-100350000D03*
X129612500Y-102250000D03*
X131487500Y-101300000D03*
%TD*%
D39*
%TO.C,C46*%
X136075000Y-94300000D03*
X139025000Y-94300000D03*
%TD*%
D12*
%TO.C,C40*%
X149275000Y-112550000D03*
X146325000Y-112550000D03*
%TD*%
D31*
%TO.C,SW4*%
X172450000Y-59700000D03*
X172450000Y-66000000D03*
X176250000Y-66000000D03*
X176250000Y-59700000D03*
%TD*%
D12*
%TO.C,C39*%
X149275000Y-116300000D03*
X146325000Y-116300000D03*
%TD*%
D50*
%TO.C,Q2*%
X155162500Y-60715000D03*
X155162500Y-58815000D03*
X153287500Y-59765000D03*
%TD*%
D60*
%TO.C,R39*%
X110800000Y-85512500D03*
X110800000Y-82587500D03*
%TD*%
D61*
%TO.C,R45*%
X110175000Y-65350000D03*
X108525000Y-65350000D03*
%TD*%
D35*
%TO.C,Q12*%
X103212500Y-105100000D03*
X103212500Y-107000000D03*
X105087500Y-106050000D03*
%TD*%
D12*
%TO.C,C33*%
X155025000Y-97300000D03*
X152075000Y-97300000D03*
%TD*%
D23*
%TO.C,R9*%
X134850000Y-105750000D03*
X135870000Y-105750000D03*
%TD*%
D52*
%TO.C,JP12*%
X106650000Y-114000000D03*
D53*
X106650000Y-112700000D03*
%TD*%
D17*
%TO.C,J7*%
X171857500Y-130467500D03*
D18*
X169317500Y-130467500D03*
X166777500Y-130467500D03*
X164237500Y-130467500D03*
X161697500Y-130467500D03*
X159157500Y-130467500D03*
X156617500Y-130467500D03*
X154077500Y-130467500D03*
X151537500Y-130467500D03*
X148997500Y-130467500D03*
X146457500Y-130467500D03*
X143917500Y-130467500D03*
X141377500Y-130467500D03*
X138837500Y-130467500D03*
X136297500Y-130467500D03*
%TD*%
D20*
%TO.C,C4*%
X148300000Y-60825000D03*
X148300000Y-59275000D03*
%TD*%
D36*
%TO.C,U9*%
X113850000Y-78550000D03*
X113850000Y-79050000D03*
X113850000Y-79550000D03*
X113850000Y-80050000D03*
X113850000Y-80550000D03*
X118250000Y-80550000D03*
X118250000Y-80050000D03*
X118250000Y-79550000D03*
X118250000Y-79050000D03*
X118250000Y-78550000D03*
%TD*%
D60*
%TO.C,R40*%
X107300000Y-92262500D03*
X107300000Y-89337500D03*
%TD*%
D50*
%TO.C,Q1*%
X155162500Y-56270000D03*
X155162500Y-54370000D03*
X153287500Y-55320000D03*
%TD*%
M02*
