%TF.GenerationSoftware,KiCad,Pcbnew,(6.0.7-1)-1*%
%TF.CreationDate,2022-10-09T23:16:26+02:00*%
%TF.ProjectId,Power_Management_Module,506f7765-725f-44d6-916e-6167656d656e,rev?*%
%TF.SameCoordinates,Original*%
%TF.FileFunction,Legend,Bot*%
%TF.FilePolarity,Positive*%
%FSLAX46Y46*%
G04 Gerber Fmt 4.6, Leading zero omitted, Abs format (unit mm)*
G04 Created by KiCad (PCBNEW (6.0.7-1)-1) date 2022-10-09 23:16:26*
%MOMM*%
%LPD*%
G01*
G04 APERTURE LIST*
G04 Aperture macros list*
%AMRoundRect*
0 Rectangle with rounded corners*
0 $1 Rounding radius*
0 $2 $3 $4 $5 $6 $7 $8 $9 X,Y pos of 4 corners*
0 Add a 4 corners polygon primitive as box body*
4,1,4,$2,$3,$4,$5,$6,$7,$8,$9,$2,$3,0*
0 Add four circle primitives for the rounded corners*
1,1,$1+$1,$2,$3*
1,1,$1+$1,$4,$5*
1,1,$1+$1,$6,$7*
1,1,$1+$1,$8,$9*
0 Add four rect primitives between the rounded corners*
20,1,$1+$1,$2,$3,$4,$5,0*
20,1,$1+$1,$4,$5,$6,$7,0*
20,1,$1+$1,$6,$7,$8,$9,0*
20,1,$1+$1,$8,$9,$2,$3,0*%
%AMFreePoly0*
4,1,22,0.500000,-0.750000,0.000000,-0.750000,0.000000,-0.745033,-0.079941,-0.743568,-0.215256,-0.701293,-0.333266,-0.622738,-0.424486,-0.514219,-0.481581,-0.384460,-0.499164,-0.250000,-0.500000,-0.250000,-0.500000,0.250000,-0.499164,0.250000,-0.499963,0.256109,-0.478152,0.396186,-0.417904,0.524511,-0.324060,0.630769,-0.204165,0.706417,-0.067858,0.745374,0.000000,0.744959,0.000000,0.750000,
0.500000,0.750000,0.500000,-0.750000,0.500000,-0.750000,$1*%
%AMFreePoly1*
4,1,20,0.000000,0.744959,0.073905,0.744508,0.209726,0.703889,0.328688,0.626782,0.421226,0.519385,0.479903,0.390333,0.500000,0.250000,0.500000,-0.250000,0.499851,-0.262216,0.476331,-0.402017,0.414519,-0.529596,0.319384,-0.634700,0.198574,-0.708877,0.061801,-0.746166,0.000000,-0.745033,0.000000,-0.750000,-0.500000,-0.750000,-0.500000,0.750000,0.000000,0.750000,0.000000,0.744959,
0.000000,0.744959,$1*%
%AMFreePoly2*
4,1,6,1.000000,0.000000,0.500000,-0.750000,-0.500000,-0.750000,-0.500000,0.750000,0.500000,0.750000,1.000000,0.000000,1.000000,0.000000,$1*%
G04 Aperture macros list end*
%ADD10C,0.150000*%
%ADD11C,0.120000*%
%ADD12FreePoly0,270.000000*%
%ADD13FreePoly1,270.000000*%
%ADD14C,0.990600*%
%ADD15R,1.700000X1.700000*%
%ADD16O,1.700000X1.700000*%
%ADD17RoundRect,1.250000X-2.500000X-1.250000X2.500000X-1.250000X2.500000X1.250000X-2.500000X1.250000X0*%
%ADD18RoundRect,1.250000X-1.250000X2.500000X-1.250000X-2.500000X1.250000X-2.500000X1.250000X2.500000X0*%
%ADD19C,1.524000*%
%ADD20R,2.000000X2.000000*%
%ADD21R,1.500000X1.500000*%
%ADD22FreePoly2,0.000000*%
%ADD23FreePoly2,180.000000*%
G04 APERTURE END LIST*
D10*
X156316666Y-132800000D02*
X156316666Y-132466666D01*
X156650000Y-132433333D01*
X156616666Y-132466666D01*
X156583333Y-132533333D01*
X156583333Y-132700000D01*
X156616666Y-132766666D01*
X156650000Y-132800000D01*
X156716666Y-132833333D01*
X156883333Y-132833333D01*
X156950000Y-132800000D01*
X156983333Y-132766666D01*
X157016666Y-132700000D01*
X157016666Y-132533333D01*
X156983333Y-132466666D01*
X156950000Y-132433333D01*
X156316666Y-133033333D02*
X157016666Y-133266666D01*
X156316666Y-133500000D01*
X157083333Y-133566666D02*
X157083333Y-134100000D01*
X156983333Y-134233333D02*
X157016666Y-134333333D01*
X157016666Y-134500000D01*
X156983333Y-134566666D01*
X156950000Y-134600000D01*
X156883333Y-134633333D01*
X156816666Y-134633333D01*
X156750000Y-134600000D01*
X156716666Y-134566666D01*
X156683333Y-134500000D01*
X156650000Y-134366666D01*
X156616666Y-134300000D01*
X156583333Y-134266666D01*
X156516666Y-134233333D01*
X156450000Y-134233333D01*
X156383333Y-134266666D01*
X156350000Y-134300000D01*
X156316666Y-134366666D01*
X156316666Y-134533333D01*
X156350000Y-134633333D01*
X156550000Y-134866666D02*
X157016666Y-135000000D01*
X156683333Y-135133333D01*
X157016666Y-135266666D01*
X156550000Y-135400000D01*
X135950000Y-122266666D02*
X135916666Y-122200000D01*
X135916666Y-122100000D01*
X135950000Y-122000000D01*
X136016666Y-121933333D01*
X136083333Y-121900000D01*
X136216666Y-121866666D01*
X136316666Y-121866666D01*
X136450000Y-121900000D01*
X136516666Y-121933333D01*
X136583333Y-122000000D01*
X136616666Y-122100000D01*
X136616666Y-122166666D01*
X136583333Y-122266666D01*
X136550000Y-122300000D01*
X136316666Y-122300000D01*
X136316666Y-122166666D01*
X136616666Y-122600000D02*
X135916666Y-122600000D01*
X136616666Y-123000000D01*
X135916666Y-123000000D01*
X136616666Y-123333333D02*
X135916666Y-123333333D01*
X135916666Y-123500000D01*
X135950000Y-123600000D01*
X136016666Y-123666666D01*
X136083333Y-123700000D01*
X136216666Y-123733333D01*
X136316666Y-123733333D01*
X136450000Y-123700000D01*
X136516666Y-123666666D01*
X136583333Y-123600000D01*
X136616666Y-123500000D01*
X136616666Y-123333333D01*
X161950000Y-119733333D02*
X161983333Y-119700000D01*
X162016666Y-119600000D01*
X162016666Y-119533333D01*
X161983333Y-119433333D01*
X161916666Y-119366666D01*
X161850000Y-119333333D01*
X161716666Y-119300000D01*
X161616666Y-119300000D01*
X161483333Y-119333333D01*
X161416666Y-119366666D01*
X161350000Y-119433333D01*
X161316666Y-119533333D01*
X161316666Y-119600000D01*
X161350000Y-119700000D01*
X161383333Y-119733333D01*
X161650000Y-120266666D02*
X161683333Y-120366666D01*
X161716666Y-120400000D01*
X161783333Y-120433333D01*
X161883333Y-120433333D01*
X161950000Y-120400000D01*
X161983333Y-120366666D01*
X162016666Y-120300000D01*
X162016666Y-120033333D01*
X161316666Y-120033333D01*
X161316666Y-120266666D01*
X161350000Y-120333333D01*
X161383333Y-120366666D01*
X161450000Y-120400000D01*
X161516666Y-120400000D01*
X161583333Y-120366666D01*
X161616666Y-120333333D01*
X161650000Y-120266666D01*
X161650000Y-120033333D01*
X162016666Y-120833333D02*
X161983333Y-120766666D01*
X161950000Y-120733333D01*
X161883333Y-120700000D01*
X161683333Y-120700000D01*
X161616666Y-120733333D01*
X161583333Y-120766666D01*
X161550000Y-120833333D01*
X161550000Y-120933333D01*
X161583333Y-121000000D01*
X161616666Y-121033333D01*
X161683333Y-121066666D01*
X161883333Y-121066666D01*
X161950000Y-121033333D01*
X161983333Y-121000000D01*
X162016666Y-120933333D01*
X162016666Y-120833333D01*
X162016666Y-121466666D02*
X161983333Y-121400000D01*
X161950000Y-121366666D01*
X161883333Y-121333333D01*
X161683333Y-121333333D01*
X161616666Y-121366666D01*
X161583333Y-121400000D01*
X161550000Y-121466666D01*
X161550000Y-121566666D01*
X161583333Y-121633333D01*
X161616666Y-121666666D01*
X161683333Y-121700000D01*
X161883333Y-121700000D01*
X161950000Y-121666666D01*
X161983333Y-121633333D01*
X162016666Y-121566666D01*
X162016666Y-121466666D01*
X161983333Y-121966666D02*
X162016666Y-122033333D01*
X162016666Y-122166666D01*
X161983333Y-122233333D01*
X161916666Y-122266666D01*
X161883333Y-122266666D01*
X161816666Y-122233333D01*
X161783333Y-122166666D01*
X161783333Y-122066666D01*
X161750000Y-122000000D01*
X161683333Y-121966666D01*
X161650000Y-121966666D01*
X161583333Y-122000000D01*
X161550000Y-122066666D01*
X161550000Y-122166666D01*
X161583333Y-122233333D01*
X161550000Y-122466666D02*
X161550000Y-122733333D01*
X161316666Y-122566666D02*
X161916666Y-122566666D01*
X161983333Y-122600000D01*
X162016666Y-122666666D01*
X162016666Y-122733333D01*
X161983333Y-123233333D02*
X162016666Y-123166666D01*
X162016666Y-123033333D01*
X161983333Y-122966666D01*
X161916666Y-122933333D01*
X161650000Y-122933333D01*
X161583333Y-122966666D01*
X161550000Y-123033333D01*
X161550000Y-123166666D01*
X161583333Y-123233333D01*
X161650000Y-123266666D01*
X161716666Y-123266666D01*
X161783333Y-122933333D01*
X162016666Y-123566666D02*
X161550000Y-123566666D01*
X161683333Y-123566666D02*
X161616666Y-123600000D01*
X161583333Y-123633333D01*
X161550000Y-123700000D01*
X161550000Y-123766666D01*
X171950000Y-132466666D02*
X171950000Y-133000000D01*
X172216666Y-132733333D02*
X171683333Y-132733333D01*
X171850000Y-133566666D02*
X171883333Y-133666666D01*
X171916666Y-133700000D01*
X171983333Y-133733333D01*
X172083333Y-133733333D01*
X172150000Y-133700000D01*
X172183333Y-133666666D01*
X172216666Y-133600000D01*
X172216666Y-133333333D01*
X171516666Y-133333333D01*
X171516666Y-133566666D01*
X171550000Y-133633333D01*
X171583333Y-133666666D01*
X171650000Y-133700000D01*
X171716666Y-133700000D01*
X171783333Y-133666666D01*
X171816666Y-133633333D01*
X171850000Y-133566666D01*
X171850000Y-133333333D01*
X172216666Y-134333333D02*
X171850000Y-134333333D01*
X171783333Y-134300000D01*
X171750000Y-134233333D01*
X171750000Y-134100000D01*
X171783333Y-134033333D01*
X172183333Y-134333333D02*
X172216666Y-134266666D01*
X172216666Y-134100000D01*
X172183333Y-134033333D01*
X172116666Y-134000000D01*
X172050000Y-134000000D01*
X171983333Y-134033333D01*
X171950000Y-134100000D01*
X171950000Y-134266666D01*
X171916666Y-134333333D01*
X171750000Y-134566666D02*
X171750000Y-134833333D01*
X171516666Y-134666666D02*
X172116666Y-134666666D01*
X172183333Y-134700000D01*
X172216666Y-134766666D01*
X172216666Y-134833333D01*
X171750000Y-134966666D02*
X171750000Y-135233333D01*
X171516666Y-135066666D02*
X172116666Y-135066666D01*
X172183333Y-135100000D01*
X172216666Y-135166666D01*
X172216666Y-135233333D01*
X159150000Y-132700000D02*
X159183333Y-132800000D01*
X159216666Y-132833333D01*
X159283333Y-132866666D01*
X159383333Y-132866666D01*
X159450000Y-132833333D01*
X159483333Y-132800000D01*
X159516666Y-132733333D01*
X159516666Y-132466666D01*
X158816666Y-132466666D01*
X158816666Y-132700000D01*
X158850000Y-132766666D01*
X158883333Y-132800000D01*
X158950000Y-132833333D01*
X159016666Y-132833333D01*
X159083333Y-132800000D01*
X159116666Y-132766666D01*
X159150000Y-132700000D01*
X159150000Y-132466666D01*
X159516666Y-133466666D02*
X159150000Y-133466666D01*
X159083333Y-133433333D01*
X159050000Y-133366666D01*
X159050000Y-133233333D01*
X159083333Y-133166666D01*
X159483333Y-133466666D02*
X159516666Y-133400000D01*
X159516666Y-133233333D01*
X159483333Y-133166666D01*
X159416666Y-133133333D01*
X159350000Y-133133333D01*
X159283333Y-133166666D01*
X159250000Y-133233333D01*
X159250000Y-133400000D01*
X159216666Y-133466666D01*
X159050000Y-133700000D02*
X159050000Y-133966666D01*
X158816666Y-133800000D02*
X159416666Y-133800000D01*
X159483333Y-133833333D01*
X159516666Y-133900000D01*
X159516666Y-133966666D01*
X159050000Y-134100000D02*
X159050000Y-134366666D01*
X158816666Y-134200000D02*
X159416666Y-134200000D01*
X159483333Y-134233333D01*
X159516666Y-134300000D01*
X159516666Y-134366666D01*
X159583333Y-134433333D02*
X159583333Y-134966666D01*
X159516666Y-135133333D02*
X158816666Y-135133333D01*
X158816666Y-135400000D01*
X158850000Y-135466666D01*
X158883333Y-135500000D01*
X158950000Y-135533333D01*
X159050000Y-135533333D01*
X159116666Y-135500000D01*
X159150000Y-135466666D01*
X159183333Y-135400000D01*
X159183333Y-135133333D01*
X159516666Y-135833333D02*
X159050000Y-135833333D01*
X159183333Y-135833333D02*
X159116666Y-135866666D01*
X159083333Y-135900000D01*
X159050000Y-135966666D01*
X159050000Y-136033333D01*
X159483333Y-136533333D02*
X159516666Y-136466666D01*
X159516666Y-136333333D01*
X159483333Y-136266666D01*
X159416666Y-136233333D01*
X159150000Y-136233333D01*
X159083333Y-136266666D01*
X159050000Y-136333333D01*
X159050000Y-136466666D01*
X159083333Y-136533333D01*
X159150000Y-136566666D01*
X159216666Y-136566666D01*
X159283333Y-136233333D01*
X154316666Y-122033333D02*
X153616666Y-122033333D01*
X153616666Y-122300000D01*
X153650000Y-122366666D01*
X153683333Y-122400000D01*
X153750000Y-122433333D01*
X153850000Y-122433333D01*
X153916666Y-122400000D01*
X153950000Y-122366666D01*
X153983333Y-122300000D01*
X153983333Y-122033333D01*
X153950000Y-122966666D02*
X153983333Y-123066666D01*
X154016666Y-123100000D01*
X154083333Y-123133333D01*
X154183333Y-123133333D01*
X154250000Y-123100000D01*
X154283333Y-123066666D01*
X154316666Y-123000000D01*
X154316666Y-122733333D01*
X153616666Y-122733333D01*
X153616666Y-122966666D01*
X153650000Y-123033333D01*
X153683333Y-123066666D01*
X153750000Y-123100000D01*
X153816666Y-123100000D01*
X153883333Y-123066666D01*
X153916666Y-123033333D01*
X153950000Y-122966666D01*
X153950000Y-122733333D01*
X154316666Y-123800000D02*
X154316666Y-123400000D01*
X154316666Y-123600000D02*
X153616666Y-123600000D01*
X153716666Y-123533333D01*
X153783333Y-123466666D01*
X153816666Y-123400000D01*
X136483333Y-132616666D02*
X136516666Y-132716666D01*
X136516666Y-132883333D01*
X136483333Y-132950000D01*
X136450000Y-132983333D01*
X136383333Y-133016666D01*
X136316666Y-133016666D01*
X136250000Y-132983333D01*
X136216666Y-132950000D01*
X136183333Y-132883333D01*
X136150000Y-132750000D01*
X136116666Y-132683333D01*
X136083333Y-132650000D01*
X136016666Y-132616666D01*
X135950000Y-132616666D01*
X135883333Y-132650000D01*
X135850000Y-132683333D01*
X135816666Y-132750000D01*
X135816666Y-132916666D01*
X135850000Y-133016666D01*
X136483333Y-133283333D02*
X136516666Y-133383333D01*
X136516666Y-133550000D01*
X136483333Y-133616666D01*
X136450000Y-133650000D01*
X136383333Y-133683333D01*
X136316666Y-133683333D01*
X136250000Y-133650000D01*
X136216666Y-133616666D01*
X136183333Y-133550000D01*
X136150000Y-133416666D01*
X136116666Y-133350000D01*
X136083333Y-133316666D01*
X136016666Y-133283333D01*
X135950000Y-133283333D01*
X135883333Y-133316666D01*
X135850000Y-133350000D01*
X135816666Y-133416666D01*
X135816666Y-133583333D01*
X135850000Y-133683333D01*
X136583333Y-133816666D02*
X136583333Y-134350000D01*
X136150000Y-134750000D02*
X136150000Y-134516666D01*
X136516666Y-134516666D02*
X135816666Y-134516666D01*
X135816666Y-134850000D01*
X136150000Y-135116666D02*
X136150000Y-135350000D01*
X136516666Y-135450000D02*
X136516666Y-135116666D01*
X135816666Y-135116666D01*
X135816666Y-135450000D01*
X135816666Y-135650000D02*
X135816666Y-136050000D01*
X136516666Y-135850000D02*
X135816666Y-135850000D01*
X153716666Y-132833333D02*
X153716666Y-132500000D01*
X154050000Y-132466666D01*
X154016666Y-132500000D01*
X153983333Y-132566666D01*
X153983333Y-132733333D01*
X154016666Y-132800000D01*
X154050000Y-132833333D01*
X154116666Y-132866666D01*
X154283333Y-132866666D01*
X154350000Y-132833333D01*
X154383333Y-132800000D01*
X154416666Y-132733333D01*
X154416666Y-132566666D01*
X154383333Y-132500000D01*
X154350000Y-132466666D01*
X153716666Y-133066666D02*
X154416666Y-133300000D01*
X153716666Y-133533333D01*
X154483333Y-133600000D02*
X154483333Y-134133333D01*
X154416666Y-134633333D02*
X154416666Y-134300000D01*
X153716666Y-134300000D01*
X154416666Y-134866666D02*
X153950000Y-134866666D01*
X153716666Y-134866666D02*
X153750000Y-134833333D01*
X153783333Y-134866666D01*
X153750000Y-134900000D01*
X153716666Y-134866666D01*
X153783333Y-134866666D01*
X153950000Y-135200000D02*
X154416666Y-135200000D01*
X154016666Y-135200000D02*
X153983333Y-135233333D01*
X153950000Y-135300000D01*
X153950000Y-135400000D01*
X153983333Y-135466666D01*
X154050000Y-135500000D01*
X154416666Y-135500000D01*
X169350000Y-121900000D02*
X169350000Y-122433333D01*
X169616666Y-122166666D02*
X169083333Y-122166666D01*
X168916666Y-123100000D02*
X168916666Y-122766666D01*
X169250000Y-122733333D01*
X169216666Y-122766666D01*
X169183333Y-122833333D01*
X169183333Y-123000000D01*
X169216666Y-123066666D01*
X169250000Y-123100000D01*
X169316666Y-123133333D01*
X169483333Y-123133333D01*
X169550000Y-123100000D01*
X169583333Y-123066666D01*
X169616666Y-123000000D01*
X169616666Y-122833333D01*
X169583333Y-122766666D01*
X169550000Y-122733333D01*
X168916666Y-123333333D02*
X169616666Y-123566666D01*
X168916666Y-123800000D01*
X159416666Y-121916666D02*
X159416666Y-121583333D01*
X158716666Y-121583333D01*
X159050000Y-122150000D02*
X159050000Y-122383333D01*
X159416666Y-122483333D02*
X159416666Y-122150000D01*
X158716666Y-122150000D01*
X158716666Y-122483333D01*
X159416666Y-122783333D02*
X158716666Y-122783333D01*
X158716666Y-122950000D01*
X158750000Y-123050000D01*
X158816666Y-123116666D01*
X158883333Y-123150000D01*
X159016666Y-123183333D01*
X159116666Y-123183333D01*
X159250000Y-123150000D01*
X159316666Y-123116666D01*
X159383333Y-123050000D01*
X159416666Y-122950000D01*
X159416666Y-122783333D01*
X159416666Y-123850000D02*
X159416666Y-123450000D01*
X159416666Y-123650000D02*
X158716666Y-123650000D01*
X158816666Y-123583333D01*
X158883333Y-123516666D01*
X158916666Y-123450000D01*
X169050000Y-132866666D02*
X169016666Y-132800000D01*
X169016666Y-132700000D01*
X169050000Y-132600000D01*
X169116666Y-132533333D01*
X169183333Y-132500000D01*
X169316666Y-132466666D01*
X169416666Y-132466666D01*
X169550000Y-132500000D01*
X169616666Y-132533333D01*
X169683333Y-132600000D01*
X169716666Y-132700000D01*
X169716666Y-132766666D01*
X169683333Y-132866666D01*
X169650000Y-132900000D01*
X169416666Y-132900000D01*
X169416666Y-132766666D01*
X169716666Y-133200000D02*
X169016666Y-133200000D01*
X169716666Y-133600000D01*
X169016666Y-133600000D01*
X169716666Y-133933333D02*
X169016666Y-133933333D01*
X169016666Y-134100000D01*
X169050000Y-134200000D01*
X169116666Y-134266666D01*
X169183333Y-134300000D01*
X169316666Y-134333333D01*
X169416666Y-134333333D01*
X169550000Y-134300000D01*
X169616666Y-134266666D01*
X169683333Y-134200000D01*
X169716666Y-134100000D01*
X169716666Y-133933333D01*
X151816666Y-122033333D02*
X151116666Y-122033333D01*
X151116666Y-122300000D01*
X151150000Y-122366666D01*
X151183333Y-122400000D01*
X151250000Y-122433333D01*
X151350000Y-122433333D01*
X151416666Y-122400000D01*
X151450000Y-122366666D01*
X151483333Y-122300000D01*
X151483333Y-122033333D01*
X151450000Y-122966666D02*
X151483333Y-123066666D01*
X151516666Y-123100000D01*
X151583333Y-123133333D01*
X151683333Y-123133333D01*
X151750000Y-123100000D01*
X151783333Y-123066666D01*
X151816666Y-123000000D01*
X151816666Y-122733333D01*
X151116666Y-122733333D01*
X151116666Y-122966666D01*
X151150000Y-123033333D01*
X151183333Y-123066666D01*
X151250000Y-123100000D01*
X151316666Y-123100000D01*
X151383333Y-123066666D01*
X151416666Y-123033333D01*
X151450000Y-122966666D01*
X151450000Y-122733333D01*
X151183333Y-123400000D02*
X151150000Y-123433333D01*
X151116666Y-123500000D01*
X151116666Y-123666666D01*
X151150000Y-123733333D01*
X151183333Y-123766666D01*
X151250000Y-123800000D01*
X151316666Y-123800000D01*
X151416666Y-123766666D01*
X151816666Y-123366666D01*
X151816666Y-123800000D01*
X144250000Y-132883333D02*
X144283333Y-132850000D01*
X144316666Y-132750000D01*
X144316666Y-132683333D01*
X144283333Y-132583333D01*
X144216666Y-132516666D01*
X144150000Y-132483333D01*
X144016666Y-132450000D01*
X143916666Y-132450000D01*
X143783333Y-132483333D01*
X143716666Y-132516666D01*
X143650000Y-132583333D01*
X143616666Y-132683333D01*
X143616666Y-132750000D01*
X143650000Y-132850000D01*
X143683333Y-132883333D01*
X143616666Y-133083333D02*
X143616666Y-133483333D01*
X144316666Y-133283333D02*
X143616666Y-133283333D01*
X144316666Y-134116666D02*
X143983333Y-133883333D01*
X144316666Y-133716666D02*
X143616666Y-133716666D01*
X143616666Y-133983333D01*
X143650000Y-134050000D01*
X143683333Y-134083333D01*
X143750000Y-134116666D01*
X143850000Y-134116666D01*
X143916666Y-134083333D01*
X143950000Y-134050000D01*
X143983333Y-133983333D01*
X143983333Y-133716666D01*
X144316666Y-134750000D02*
X144316666Y-134416666D01*
X143616666Y-134416666D01*
X144383333Y-134816666D02*
X144383333Y-135350000D01*
X143616666Y-135450000D02*
X143616666Y-135883333D01*
X143883333Y-135650000D01*
X143883333Y-135750000D01*
X143916666Y-135816666D01*
X143950000Y-135850000D01*
X144016666Y-135883333D01*
X144183333Y-135883333D01*
X144250000Y-135850000D01*
X144283333Y-135816666D01*
X144316666Y-135750000D01*
X144316666Y-135550000D01*
X144283333Y-135483333D01*
X144250000Y-135450000D01*
X143616666Y-136083333D02*
X144316666Y-136316666D01*
X143616666Y-136550000D01*
X143616666Y-136716666D02*
X143616666Y-137150000D01*
X143883333Y-136916666D01*
X143883333Y-137016666D01*
X143916666Y-137083333D01*
X143950000Y-137116666D01*
X144016666Y-137150000D01*
X144183333Y-137150000D01*
X144250000Y-137116666D01*
X144283333Y-137083333D01*
X144316666Y-137016666D01*
X144316666Y-136816666D01*
X144283333Y-136750000D01*
X144250000Y-136716666D01*
X141350000Y-132500000D02*
X141350000Y-133033333D01*
X141616666Y-132766666D02*
X141083333Y-132766666D01*
X140916666Y-133700000D02*
X140916666Y-133366666D01*
X141250000Y-133333333D01*
X141216666Y-133366666D01*
X141183333Y-133433333D01*
X141183333Y-133600000D01*
X141216666Y-133666666D01*
X141250000Y-133700000D01*
X141316666Y-133733333D01*
X141483333Y-133733333D01*
X141550000Y-133700000D01*
X141583333Y-133666666D01*
X141616666Y-133600000D01*
X141616666Y-133433333D01*
X141583333Y-133366666D01*
X141550000Y-133333333D01*
X140916666Y-133933333D02*
X141616666Y-134166666D01*
X140916666Y-134400000D01*
X141416666Y-134600000D02*
X141416666Y-134933333D01*
X141616666Y-134533333D02*
X140916666Y-134766666D01*
X141616666Y-135000000D01*
X172316666Y-117100000D02*
X171983333Y-116866666D01*
X172316666Y-116700000D02*
X171616666Y-116700000D01*
X171616666Y-116966666D01*
X171650000Y-117033333D01*
X171683333Y-117066666D01*
X171750000Y-117100000D01*
X171850000Y-117100000D01*
X171916666Y-117066666D01*
X171950000Y-117033333D01*
X171983333Y-116966666D01*
X171983333Y-116700000D01*
X171950000Y-117400000D02*
X171950000Y-117633333D01*
X172316666Y-117733333D02*
X172316666Y-117400000D01*
X171616666Y-117400000D01*
X171616666Y-117733333D01*
X172283333Y-118000000D02*
X172316666Y-118100000D01*
X172316666Y-118266666D01*
X172283333Y-118333333D01*
X172250000Y-118366666D01*
X172183333Y-118400000D01*
X172116666Y-118400000D01*
X172050000Y-118366666D01*
X172016666Y-118333333D01*
X171983333Y-118266666D01*
X171950000Y-118133333D01*
X171916666Y-118066666D01*
X171883333Y-118033333D01*
X171816666Y-118000000D01*
X171750000Y-118000000D01*
X171683333Y-118033333D01*
X171650000Y-118066666D01*
X171616666Y-118133333D01*
X171616666Y-118300000D01*
X171650000Y-118400000D01*
X171950000Y-118700000D02*
X171950000Y-118933333D01*
X172316666Y-119033333D02*
X172316666Y-118700000D01*
X171616666Y-118700000D01*
X171616666Y-119033333D01*
X171616666Y-119233333D02*
X171616666Y-119633333D01*
X172316666Y-119433333D02*
X171616666Y-119433333D01*
X172383333Y-119700000D02*
X172383333Y-120233333D01*
X172283333Y-120366666D02*
X172316666Y-120466666D01*
X172316666Y-120633333D01*
X172283333Y-120700000D01*
X172250000Y-120733333D01*
X172183333Y-120766666D01*
X172116666Y-120766666D01*
X172050000Y-120733333D01*
X172016666Y-120700000D01*
X171983333Y-120633333D01*
X171950000Y-120500000D01*
X171916666Y-120433333D01*
X171883333Y-120400000D01*
X171816666Y-120366666D01*
X171750000Y-120366666D01*
X171683333Y-120400000D01*
X171650000Y-120433333D01*
X171616666Y-120500000D01*
X171616666Y-120666666D01*
X171650000Y-120766666D01*
X172283333Y-121033333D02*
X172316666Y-121133333D01*
X172316666Y-121300000D01*
X172283333Y-121366666D01*
X172250000Y-121400000D01*
X172183333Y-121433333D01*
X172116666Y-121433333D01*
X172050000Y-121400000D01*
X172016666Y-121366666D01*
X171983333Y-121300000D01*
X171950000Y-121166666D01*
X171916666Y-121100000D01*
X171883333Y-121066666D01*
X171816666Y-121033333D01*
X171750000Y-121033333D01*
X171683333Y-121066666D01*
X171650000Y-121100000D01*
X171616666Y-121166666D01*
X171616666Y-121333333D01*
X171650000Y-121433333D01*
X172383333Y-121566666D02*
X172383333Y-122100000D01*
X171950000Y-122500000D02*
X171950000Y-122266666D01*
X172316666Y-122266666D02*
X171616666Y-122266666D01*
X171616666Y-122600000D01*
X171950000Y-122866666D02*
X171950000Y-123100000D01*
X172316666Y-123200000D02*
X172316666Y-122866666D01*
X171616666Y-122866666D01*
X171616666Y-123200000D01*
X171616666Y-123400000D02*
X171616666Y-123800000D01*
X172316666Y-123600000D02*
X171616666Y-123600000D01*
X166416666Y-121483333D02*
X167116666Y-121716666D01*
X166416666Y-121950000D01*
X166416666Y-122316666D02*
X166416666Y-122450000D01*
X166450000Y-122516666D01*
X166516666Y-122583333D01*
X166650000Y-122616666D01*
X166883333Y-122616666D01*
X167016666Y-122583333D01*
X167083333Y-122516666D01*
X167116666Y-122450000D01*
X167116666Y-122316666D01*
X167083333Y-122250000D01*
X167016666Y-122183333D01*
X166883333Y-122150000D01*
X166650000Y-122150000D01*
X166516666Y-122183333D01*
X166450000Y-122250000D01*
X166416666Y-122316666D01*
X166650000Y-123216666D02*
X167116666Y-123216666D01*
X166650000Y-122916666D02*
X167016666Y-122916666D01*
X167083333Y-122950000D01*
X167116666Y-123016666D01*
X167116666Y-123116666D01*
X167083333Y-123183333D01*
X167050000Y-123216666D01*
X166650000Y-123450000D02*
X166650000Y-123716666D01*
X166416666Y-123550000D02*
X167016666Y-123550000D01*
X167083333Y-123583333D01*
X167116666Y-123650000D01*
X167116666Y-123716666D01*
X146016666Y-121316666D02*
X146016666Y-121716666D01*
X146716666Y-121516666D02*
X146016666Y-121516666D01*
X146683333Y-122216666D02*
X146716666Y-122150000D01*
X146716666Y-122016666D01*
X146683333Y-121950000D01*
X146616666Y-121916666D01*
X146350000Y-121916666D01*
X146283333Y-121950000D01*
X146250000Y-122016666D01*
X146250000Y-122150000D01*
X146283333Y-122216666D01*
X146350000Y-122250000D01*
X146416666Y-122250000D01*
X146483333Y-121916666D01*
X146716666Y-122550000D02*
X146250000Y-122550000D01*
X146316666Y-122550000D02*
X146283333Y-122583333D01*
X146250000Y-122650000D01*
X146250000Y-122750000D01*
X146283333Y-122816666D01*
X146350000Y-122850000D01*
X146716666Y-122850000D01*
X146350000Y-122850000D02*
X146283333Y-122883333D01*
X146250000Y-122950000D01*
X146250000Y-123050000D01*
X146283333Y-123116666D01*
X146350000Y-123150000D01*
X146716666Y-123150000D01*
X146250000Y-123483333D02*
X146950000Y-123483333D01*
X146283333Y-123483333D02*
X146250000Y-123550000D01*
X146250000Y-123683333D01*
X146283333Y-123750000D01*
X146316666Y-123783333D01*
X146383333Y-123816666D01*
X146583333Y-123816666D01*
X146650000Y-123783333D01*
X146683333Y-123750000D01*
X146716666Y-123683333D01*
X146716666Y-123550000D01*
X146683333Y-123483333D01*
X138850000Y-132450000D02*
X138850000Y-132983333D01*
X139116666Y-132716666D02*
X138583333Y-132716666D01*
X138416666Y-133650000D02*
X138416666Y-133316666D01*
X138750000Y-133283333D01*
X138716666Y-133316666D01*
X138683333Y-133383333D01*
X138683333Y-133550000D01*
X138716666Y-133616666D01*
X138750000Y-133650000D01*
X138816666Y-133683333D01*
X138983333Y-133683333D01*
X139050000Y-133650000D01*
X139083333Y-133616666D01*
X139116666Y-133550000D01*
X139116666Y-133383333D01*
X139083333Y-133316666D01*
X139050000Y-133283333D01*
X138416666Y-133883333D02*
X139116666Y-134116666D01*
X138416666Y-134350000D01*
X139116666Y-134583333D02*
X138416666Y-134583333D01*
X138416666Y-134750000D01*
X138450000Y-134850000D01*
X138516666Y-134916666D01*
X138583333Y-134950000D01*
X138716666Y-134983333D01*
X138816666Y-134983333D01*
X138950000Y-134950000D01*
X139016666Y-134916666D01*
X139083333Y-134850000D01*
X139116666Y-134750000D01*
X139116666Y-134583333D01*
X141116666Y-122766666D02*
X141116666Y-123166666D01*
X141816666Y-122966666D02*
X141116666Y-122966666D01*
X141116666Y-123333333D02*
X141816666Y-123800000D01*
X141116666Y-123800000D02*
X141816666Y-123333333D01*
X144316666Y-123183333D02*
X143983333Y-122950000D01*
X144316666Y-122783333D02*
X143616666Y-122783333D01*
X143616666Y-123050000D01*
X143650000Y-123116666D01*
X143683333Y-123150000D01*
X143750000Y-123183333D01*
X143850000Y-123183333D01*
X143916666Y-123150000D01*
X143950000Y-123116666D01*
X143983333Y-123050000D01*
X143983333Y-122783333D01*
X143616666Y-123416666D02*
X144316666Y-123883333D01*
X143616666Y-123883333D02*
X144316666Y-123416666D01*
X166416666Y-132433333D02*
X166416666Y-132866666D01*
X166683333Y-132633333D01*
X166683333Y-132733333D01*
X166716666Y-132800000D01*
X166750000Y-132833333D01*
X166816666Y-132866666D01*
X166983333Y-132866666D01*
X167050000Y-132833333D01*
X167083333Y-132800000D01*
X167116666Y-132733333D01*
X167116666Y-132533333D01*
X167083333Y-132466666D01*
X167050000Y-132433333D01*
X166416666Y-133066666D02*
X167116666Y-133300000D01*
X166416666Y-133533333D01*
X166416666Y-133700000D02*
X166416666Y-134133333D01*
X166683333Y-133900000D01*
X166683333Y-134000000D01*
X166716666Y-134066666D01*
X166750000Y-134100000D01*
X166816666Y-134133333D01*
X166983333Y-134133333D01*
X167050000Y-134100000D01*
X167083333Y-134066666D01*
X167116666Y-134000000D01*
X167116666Y-133800000D01*
X167083333Y-133733333D01*
X167050000Y-133700000D01*
X156916666Y-121816666D02*
X156916666Y-121483333D01*
X156216666Y-121483333D01*
X156550000Y-122050000D02*
X156550000Y-122283333D01*
X156916666Y-122383333D02*
X156916666Y-122050000D01*
X156216666Y-122050000D01*
X156216666Y-122383333D01*
X156916666Y-122683333D02*
X156216666Y-122683333D01*
X156216666Y-122850000D01*
X156250000Y-122950000D01*
X156316666Y-123016666D01*
X156383333Y-123050000D01*
X156516666Y-123083333D01*
X156616666Y-123083333D01*
X156750000Y-123050000D01*
X156816666Y-123016666D01*
X156883333Y-122950000D01*
X156916666Y-122850000D01*
X156916666Y-122683333D01*
X156283333Y-123350000D02*
X156250000Y-123383333D01*
X156216666Y-123450000D01*
X156216666Y-123616666D01*
X156250000Y-123683333D01*
X156283333Y-123716666D01*
X156350000Y-123750000D01*
X156416666Y-123750000D01*
X156516666Y-123716666D01*
X156916666Y-123316666D01*
X156916666Y-123750000D01*
X146116666Y-132483333D02*
X146116666Y-132916666D01*
X146383333Y-132683333D01*
X146383333Y-132783333D01*
X146416666Y-132850000D01*
X146450000Y-132883333D01*
X146516666Y-132916666D01*
X146683333Y-132916666D01*
X146750000Y-132883333D01*
X146783333Y-132850000D01*
X146816666Y-132783333D01*
X146816666Y-132583333D01*
X146783333Y-132516666D01*
X146750000Y-132483333D01*
X146116666Y-133116666D02*
X146816666Y-133350000D01*
X146116666Y-133583333D01*
X146116666Y-133750000D02*
X146116666Y-134183333D01*
X146383333Y-133950000D01*
X146383333Y-134050000D01*
X146416666Y-134116666D01*
X146450000Y-134150000D01*
X146516666Y-134183333D01*
X146683333Y-134183333D01*
X146750000Y-134150000D01*
X146783333Y-134116666D01*
X146816666Y-134050000D01*
X146816666Y-133850000D01*
X146783333Y-133783333D01*
X146750000Y-133750000D01*
X146883333Y-134316666D02*
X146883333Y-134850000D01*
X146816666Y-135016666D02*
X146116666Y-135016666D01*
X146350000Y-135350000D02*
X146816666Y-135350000D01*
X146416666Y-135350000D02*
X146383333Y-135383333D01*
X146350000Y-135450000D01*
X146350000Y-135550000D01*
X146383333Y-135616666D01*
X146450000Y-135650000D01*
X146816666Y-135650000D01*
X149216666Y-119350000D02*
X148516666Y-119350000D01*
X148583333Y-119650000D02*
X148550000Y-119683333D01*
X148516666Y-119750000D01*
X148516666Y-119916666D01*
X148550000Y-119983333D01*
X148583333Y-120016666D01*
X148650000Y-120050000D01*
X148716666Y-120050000D01*
X148816666Y-120016666D01*
X149216666Y-119616666D01*
X149216666Y-120050000D01*
X149150000Y-120750000D02*
X149183333Y-120716666D01*
X149216666Y-120616666D01*
X149216666Y-120550000D01*
X149183333Y-120450000D01*
X149116666Y-120383333D01*
X149050000Y-120350000D01*
X148916666Y-120316666D01*
X148816666Y-120316666D01*
X148683333Y-120350000D01*
X148616666Y-120383333D01*
X148550000Y-120450000D01*
X148516666Y-120550000D01*
X148516666Y-120616666D01*
X148550000Y-120716666D01*
X148583333Y-120750000D01*
X149283333Y-120883333D02*
X149283333Y-121416666D01*
X149150000Y-121983333D02*
X149183333Y-121950000D01*
X149216666Y-121850000D01*
X149216666Y-121783333D01*
X149183333Y-121683333D01*
X149116666Y-121616666D01*
X149050000Y-121583333D01*
X148916666Y-121550000D01*
X148816666Y-121550000D01*
X148683333Y-121583333D01*
X148616666Y-121616666D01*
X148550000Y-121683333D01*
X148516666Y-121783333D01*
X148516666Y-121850000D01*
X148550000Y-121950000D01*
X148583333Y-121983333D01*
X149216666Y-122383333D02*
X149183333Y-122316666D01*
X149150000Y-122283333D01*
X149083333Y-122250000D01*
X148883333Y-122250000D01*
X148816666Y-122283333D01*
X148783333Y-122316666D01*
X148750000Y-122383333D01*
X148750000Y-122483333D01*
X148783333Y-122550000D01*
X148816666Y-122583333D01*
X148883333Y-122616666D01*
X149083333Y-122616666D01*
X149150000Y-122583333D01*
X149183333Y-122550000D01*
X149216666Y-122483333D01*
X149216666Y-122383333D01*
X148750000Y-122916666D02*
X149216666Y-122916666D01*
X148816666Y-122916666D02*
X148783333Y-122950000D01*
X148750000Y-123016666D01*
X148750000Y-123116666D01*
X148783333Y-123183333D01*
X148850000Y-123216666D01*
X149216666Y-123216666D01*
X148750000Y-123550000D02*
X149216666Y-123550000D01*
X148816666Y-123550000D02*
X148783333Y-123583333D01*
X148750000Y-123650000D01*
X148750000Y-123750000D01*
X148783333Y-123816666D01*
X148850000Y-123850000D01*
X149216666Y-123850000D01*
%TO.C,JP8*%
X106202380Y-100316666D02*
X106916666Y-100316666D01*
X107059523Y-100269047D01*
X107154761Y-100173809D01*
X107202380Y-100030952D01*
X107202380Y-99935714D01*
X107202380Y-100792857D02*
X106202380Y-100792857D01*
X106202380Y-101173809D01*
X106250000Y-101269047D01*
X106297619Y-101316666D01*
X106392857Y-101364285D01*
X106535714Y-101364285D01*
X106630952Y-101316666D01*
X106678571Y-101269047D01*
X106726190Y-101173809D01*
X106726190Y-100792857D01*
X106630952Y-101935714D02*
X106583333Y-101840476D01*
X106535714Y-101792857D01*
X106440476Y-101745238D01*
X106392857Y-101745238D01*
X106297619Y-101792857D01*
X106250000Y-101840476D01*
X106202380Y-101935714D01*
X106202380Y-102126190D01*
X106250000Y-102221428D01*
X106297619Y-102269047D01*
X106392857Y-102316666D01*
X106440476Y-102316666D01*
X106535714Y-102269047D01*
X106583333Y-102221428D01*
X106630952Y-102126190D01*
X106630952Y-101935714D01*
X106678571Y-101840476D01*
X106726190Y-101792857D01*
X106821428Y-101745238D01*
X107011904Y-101745238D01*
X107107142Y-101792857D01*
X107154761Y-101840476D01*
X107202380Y-101935714D01*
X107202380Y-102126190D01*
X107154761Y-102221428D01*
X107107142Y-102269047D01*
X107011904Y-102316666D01*
X106821428Y-102316666D01*
X106726190Y-102269047D01*
X106678571Y-102221428D01*
X106630952Y-102126190D01*
%TO.C,J1*%
X134156666Y-56807380D02*
X134156666Y-57521666D01*
X134109047Y-57664523D01*
X134013809Y-57759761D01*
X133870952Y-57807380D01*
X133775714Y-57807380D01*
X135156666Y-57807380D02*
X134585238Y-57807380D01*
X134870952Y-57807380D02*
X134870952Y-56807380D01*
X134775714Y-56950238D01*
X134680476Y-57045476D01*
X134585238Y-57093095D01*
%TO.C,J5*%
X161966666Y-56352380D02*
X161966666Y-57066666D01*
X161919047Y-57209523D01*
X161823809Y-57304761D01*
X161680952Y-57352380D01*
X161585714Y-57352380D01*
X162919047Y-56352380D02*
X162442857Y-56352380D01*
X162395238Y-56828571D01*
X162442857Y-56780952D01*
X162538095Y-56733333D01*
X162776190Y-56733333D01*
X162871428Y-56780952D01*
X162919047Y-56828571D01*
X162966666Y-56923809D01*
X162966666Y-57161904D01*
X162919047Y-57257142D01*
X162871428Y-57304761D01*
X162776190Y-57352380D01*
X162538095Y-57352380D01*
X162442857Y-57304761D01*
X162395238Y-57257142D01*
%TO.C,J2*%
X185197619Y-78666666D02*
X184483333Y-78666666D01*
X184340476Y-78619047D01*
X184245238Y-78523809D01*
X184197619Y-78380952D01*
X184197619Y-78285714D01*
X185102380Y-79095238D02*
X185150000Y-79142857D01*
X185197619Y-79238095D01*
X185197619Y-79476190D01*
X185150000Y-79571428D01*
X185102380Y-79619047D01*
X185007142Y-79666666D01*
X184911904Y-79666666D01*
X184769047Y-79619047D01*
X184197619Y-79047619D01*
X184197619Y-79666666D01*
%TO.C,J4*%
X184897619Y-105616666D02*
X184183333Y-105616666D01*
X184040476Y-105569047D01*
X183945238Y-105473809D01*
X183897619Y-105330952D01*
X183897619Y-105235714D01*
X184564285Y-106521428D02*
X183897619Y-106521428D01*
X184945238Y-106283333D02*
X184230952Y-106045238D01*
X184230952Y-106664285D01*
%TO.C,TP6*%
X156011904Y-62404380D02*
X155440476Y-62404380D01*
X155726190Y-63404380D02*
X155726190Y-62404380D01*
X155107142Y-63404380D02*
X155107142Y-62404380D01*
X154726190Y-62404380D01*
X154630952Y-62452000D01*
X154583333Y-62499619D01*
X154535714Y-62594857D01*
X154535714Y-62737714D01*
X154583333Y-62832952D01*
X154630952Y-62880571D01*
X154726190Y-62928190D01*
X155107142Y-62928190D01*
X153678571Y-62404380D02*
X153869047Y-62404380D01*
X153964285Y-62452000D01*
X154011904Y-62499619D01*
X154107142Y-62642476D01*
X154154761Y-62832952D01*
X154154761Y-63213904D01*
X154107142Y-63309142D01*
X154059523Y-63356761D01*
X153964285Y-63404380D01*
X153773809Y-63404380D01*
X153678571Y-63356761D01*
X153630952Y-63309142D01*
X153583333Y-63213904D01*
X153583333Y-62975809D01*
X153630952Y-62880571D01*
X153678571Y-62832952D01*
X153773809Y-62785333D01*
X153964285Y-62785333D01*
X154059523Y-62832952D01*
X154107142Y-62880571D01*
X154154761Y-62975809D01*
%TO.C,TP15*%
X141588095Y-96904380D02*
X141016666Y-96904380D01*
X141302380Y-97904380D02*
X141302380Y-96904380D01*
X140683333Y-97904380D02*
X140683333Y-96904380D01*
X140302380Y-96904380D01*
X140207142Y-96952000D01*
X140159523Y-96999619D01*
X140111904Y-97094857D01*
X140111904Y-97237714D01*
X140159523Y-97332952D01*
X140207142Y-97380571D01*
X140302380Y-97428190D01*
X140683333Y-97428190D01*
X139159523Y-97904380D02*
X139730952Y-97904380D01*
X139445238Y-97904380D02*
X139445238Y-96904380D01*
X139540476Y-97047238D01*
X139635714Y-97142476D01*
X139730952Y-97190095D01*
X138254761Y-96904380D02*
X138730952Y-96904380D01*
X138778571Y-97380571D01*
X138730952Y-97332952D01*
X138635714Y-97285333D01*
X138397619Y-97285333D01*
X138302380Y-97332952D01*
X138254761Y-97380571D01*
X138207142Y-97475809D01*
X138207142Y-97713904D01*
X138254761Y-97809142D01*
X138302380Y-97856761D01*
X138397619Y-97904380D01*
X138635714Y-97904380D01*
X138730952Y-97856761D01*
X138778571Y-97809142D01*
%TO.C,TP25*%
X132088095Y-99404380D02*
X131516666Y-99404380D01*
X131802380Y-100404380D02*
X131802380Y-99404380D01*
X131183333Y-100404380D02*
X131183333Y-99404380D01*
X130802380Y-99404380D01*
X130707142Y-99452000D01*
X130659523Y-99499619D01*
X130611904Y-99594857D01*
X130611904Y-99737714D01*
X130659523Y-99832952D01*
X130707142Y-99880571D01*
X130802380Y-99928190D01*
X131183333Y-99928190D01*
X130230952Y-99499619D02*
X130183333Y-99452000D01*
X130088095Y-99404380D01*
X129850000Y-99404380D01*
X129754761Y-99452000D01*
X129707142Y-99499619D01*
X129659523Y-99594857D01*
X129659523Y-99690095D01*
X129707142Y-99832952D01*
X130278571Y-100404380D01*
X129659523Y-100404380D01*
X128754761Y-99404380D02*
X129230952Y-99404380D01*
X129278571Y-99880571D01*
X129230952Y-99832952D01*
X129135714Y-99785333D01*
X128897619Y-99785333D01*
X128802380Y-99832952D01*
X128754761Y-99880571D01*
X128707142Y-99975809D01*
X128707142Y-100213904D01*
X128754761Y-100309142D01*
X128802380Y-100356761D01*
X128897619Y-100404380D01*
X129135714Y-100404380D01*
X129230952Y-100356761D01*
X129278571Y-100309142D01*
%TO.C,TP22*%
X152488095Y-137852380D02*
X151916666Y-137852380D01*
X152202380Y-138852380D02*
X152202380Y-137852380D01*
X151583333Y-138852380D02*
X151583333Y-137852380D01*
X151202380Y-137852380D01*
X151107142Y-137900000D01*
X151059523Y-137947619D01*
X151011904Y-138042857D01*
X151011904Y-138185714D01*
X151059523Y-138280952D01*
X151107142Y-138328571D01*
X151202380Y-138376190D01*
X151583333Y-138376190D01*
X150630952Y-137947619D02*
X150583333Y-137900000D01*
X150488095Y-137852380D01*
X150250000Y-137852380D01*
X150154761Y-137900000D01*
X150107142Y-137947619D01*
X150059523Y-138042857D01*
X150059523Y-138138095D01*
X150107142Y-138280952D01*
X150678571Y-138852380D01*
X150059523Y-138852380D01*
X149678571Y-137947619D02*
X149630952Y-137900000D01*
X149535714Y-137852380D01*
X149297619Y-137852380D01*
X149202380Y-137900000D01*
X149154761Y-137947619D01*
X149107142Y-138042857D01*
X149107142Y-138138095D01*
X149154761Y-138280952D01*
X149726190Y-138852380D01*
X149107142Y-138852380D01*
%TO.C,JP10*%
X124784523Y-103177380D02*
X124784523Y-103891666D01*
X124832142Y-104034523D01*
X124927380Y-104129761D01*
X125070238Y-104177380D01*
X125165476Y-104177380D01*
X124308333Y-104177380D02*
X124308333Y-103177380D01*
X123927380Y-103177380D01*
X123832142Y-103225000D01*
X123784523Y-103272619D01*
X123736904Y-103367857D01*
X123736904Y-103510714D01*
X123784523Y-103605952D01*
X123832142Y-103653571D01*
X123927380Y-103701190D01*
X124308333Y-103701190D01*
X122784523Y-104177380D02*
X123355952Y-104177380D01*
X123070238Y-104177380D02*
X123070238Y-103177380D01*
X123165476Y-103320238D01*
X123260714Y-103415476D01*
X123355952Y-103463095D01*
X122165476Y-103177380D02*
X122070238Y-103177380D01*
X121975000Y-103225000D01*
X121927380Y-103272619D01*
X121879761Y-103367857D01*
X121832142Y-103558333D01*
X121832142Y-103796428D01*
X121879761Y-103986904D01*
X121927380Y-104082142D01*
X121975000Y-104129761D01*
X122070238Y-104177380D01*
X122165476Y-104177380D01*
X122260714Y-104129761D01*
X122308333Y-104082142D01*
X122355952Y-103986904D01*
X122403571Y-103796428D01*
X122403571Y-103558333D01*
X122355952Y-103367857D01*
X122308333Y-103272619D01*
X122260714Y-103225000D01*
X122165476Y-103177380D01*
%TO.C,JP6*%
X138158333Y-118027380D02*
X138158333Y-118741666D01*
X138205952Y-118884523D01*
X138301190Y-118979761D01*
X138444047Y-119027380D01*
X138539285Y-119027380D01*
X137682142Y-119027380D02*
X137682142Y-118027380D01*
X137301190Y-118027380D01*
X137205952Y-118075000D01*
X137158333Y-118122619D01*
X137110714Y-118217857D01*
X137110714Y-118360714D01*
X137158333Y-118455952D01*
X137205952Y-118503571D01*
X137301190Y-118551190D01*
X137682142Y-118551190D01*
X136253571Y-118027380D02*
X136444047Y-118027380D01*
X136539285Y-118075000D01*
X136586904Y-118122619D01*
X136682142Y-118265476D01*
X136729761Y-118455952D01*
X136729761Y-118836904D01*
X136682142Y-118932142D01*
X136634523Y-118979761D01*
X136539285Y-119027380D01*
X136348809Y-119027380D01*
X136253571Y-118979761D01*
X136205952Y-118932142D01*
X136158333Y-118836904D01*
X136158333Y-118598809D01*
X136205952Y-118503571D01*
X136253571Y-118455952D01*
X136348809Y-118408333D01*
X136539285Y-118408333D01*
X136634523Y-118455952D01*
X136682142Y-118503571D01*
X136729761Y-118598809D01*
%TO.C,TP18*%
X129888095Y-118704380D02*
X129316666Y-118704380D01*
X129602380Y-119704380D02*
X129602380Y-118704380D01*
X128983333Y-119704380D02*
X128983333Y-118704380D01*
X128602380Y-118704380D01*
X128507142Y-118752000D01*
X128459523Y-118799619D01*
X128411904Y-118894857D01*
X128411904Y-119037714D01*
X128459523Y-119132952D01*
X128507142Y-119180571D01*
X128602380Y-119228190D01*
X128983333Y-119228190D01*
X127459523Y-119704380D02*
X128030952Y-119704380D01*
X127745238Y-119704380D02*
X127745238Y-118704380D01*
X127840476Y-118847238D01*
X127935714Y-118942476D01*
X128030952Y-118990095D01*
X126888095Y-119132952D02*
X126983333Y-119085333D01*
X127030952Y-119037714D01*
X127078571Y-118942476D01*
X127078571Y-118894857D01*
X127030952Y-118799619D01*
X126983333Y-118752000D01*
X126888095Y-118704380D01*
X126697619Y-118704380D01*
X126602380Y-118752000D01*
X126554761Y-118799619D01*
X126507142Y-118894857D01*
X126507142Y-118942476D01*
X126554761Y-119037714D01*
X126602380Y-119085333D01*
X126697619Y-119132952D01*
X126888095Y-119132952D01*
X126983333Y-119180571D01*
X127030952Y-119228190D01*
X127078571Y-119323428D01*
X127078571Y-119513904D01*
X127030952Y-119609142D01*
X126983333Y-119656761D01*
X126888095Y-119704380D01*
X126697619Y-119704380D01*
X126602380Y-119656761D01*
X126554761Y-119609142D01*
X126507142Y-119513904D01*
X126507142Y-119323428D01*
X126554761Y-119228190D01*
X126602380Y-119180571D01*
X126697619Y-119132952D01*
%TO.C,TP23*%
X184588095Y-95804380D02*
X184016666Y-95804380D01*
X184302380Y-96804380D02*
X184302380Y-95804380D01*
X183683333Y-96804380D02*
X183683333Y-95804380D01*
X183302380Y-95804380D01*
X183207142Y-95852000D01*
X183159523Y-95899619D01*
X183111904Y-95994857D01*
X183111904Y-96137714D01*
X183159523Y-96232952D01*
X183207142Y-96280571D01*
X183302380Y-96328190D01*
X183683333Y-96328190D01*
X182730952Y-95899619D02*
X182683333Y-95852000D01*
X182588095Y-95804380D01*
X182350000Y-95804380D01*
X182254761Y-95852000D01*
X182207142Y-95899619D01*
X182159523Y-95994857D01*
X182159523Y-96090095D01*
X182207142Y-96232952D01*
X182778571Y-96804380D01*
X182159523Y-96804380D01*
X181826190Y-95804380D02*
X181207142Y-95804380D01*
X181540476Y-96185333D01*
X181397619Y-96185333D01*
X181302380Y-96232952D01*
X181254761Y-96280571D01*
X181207142Y-96375809D01*
X181207142Y-96613904D01*
X181254761Y-96709142D01*
X181302380Y-96756761D01*
X181397619Y-96804380D01*
X181683333Y-96804380D01*
X181778571Y-96756761D01*
X181826190Y-96709142D01*
%TO.C,TP3*%
X104811904Y-77704380D02*
X104240476Y-77704380D01*
X104526190Y-78704380D02*
X104526190Y-77704380D01*
X103907142Y-78704380D02*
X103907142Y-77704380D01*
X103526190Y-77704380D01*
X103430952Y-77752000D01*
X103383333Y-77799619D01*
X103335714Y-77894857D01*
X103335714Y-78037714D01*
X103383333Y-78132952D01*
X103430952Y-78180571D01*
X103526190Y-78228190D01*
X103907142Y-78228190D01*
X103002380Y-77704380D02*
X102383333Y-77704380D01*
X102716666Y-78085333D01*
X102573809Y-78085333D01*
X102478571Y-78132952D01*
X102430952Y-78180571D01*
X102383333Y-78275809D01*
X102383333Y-78513904D01*
X102430952Y-78609142D01*
X102478571Y-78656761D01*
X102573809Y-78704380D01*
X102859523Y-78704380D01*
X102954761Y-78656761D01*
X103002380Y-78609142D01*
%TO.C,TP14*%
X152988095Y-78404380D02*
X152416666Y-78404380D01*
X152702380Y-79404380D02*
X152702380Y-78404380D01*
X152083333Y-79404380D02*
X152083333Y-78404380D01*
X151702380Y-78404380D01*
X151607142Y-78452000D01*
X151559523Y-78499619D01*
X151511904Y-78594857D01*
X151511904Y-78737714D01*
X151559523Y-78832952D01*
X151607142Y-78880571D01*
X151702380Y-78928190D01*
X152083333Y-78928190D01*
X150559523Y-79404380D02*
X151130952Y-79404380D01*
X150845238Y-79404380D02*
X150845238Y-78404380D01*
X150940476Y-78547238D01*
X151035714Y-78642476D01*
X151130952Y-78690095D01*
X149702380Y-78737714D02*
X149702380Y-79404380D01*
X149940476Y-78356761D02*
X150178571Y-79071047D01*
X149559523Y-79071047D01*
%TO.C,TP21*%
X164938095Y-137152380D02*
X164366666Y-137152380D01*
X164652380Y-138152380D02*
X164652380Y-137152380D01*
X164033333Y-138152380D02*
X164033333Y-137152380D01*
X163652380Y-137152380D01*
X163557142Y-137200000D01*
X163509523Y-137247619D01*
X163461904Y-137342857D01*
X163461904Y-137485714D01*
X163509523Y-137580952D01*
X163557142Y-137628571D01*
X163652380Y-137676190D01*
X164033333Y-137676190D01*
X163080952Y-137247619D02*
X163033333Y-137200000D01*
X162938095Y-137152380D01*
X162700000Y-137152380D01*
X162604761Y-137200000D01*
X162557142Y-137247619D01*
X162509523Y-137342857D01*
X162509523Y-137438095D01*
X162557142Y-137580952D01*
X163128571Y-138152380D01*
X162509523Y-138152380D01*
X161557142Y-138152380D02*
X162128571Y-138152380D01*
X161842857Y-138152380D02*
X161842857Y-137152380D01*
X161938095Y-137295238D01*
X162033333Y-137390476D01*
X162128571Y-137438095D01*
%TO.C,TP29*%
X117488095Y-104904380D02*
X116916666Y-104904380D01*
X117202380Y-105904380D02*
X117202380Y-104904380D01*
X116583333Y-105904380D02*
X116583333Y-104904380D01*
X116202380Y-104904380D01*
X116107142Y-104952000D01*
X116059523Y-104999619D01*
X116011904Y-105094857D01*
X116011904Y-105237714D01*
X116059523Y-105332952D01*
X116107142Y-105380571D01*
X116202380Y-105428190D01*
X116583333Y-105428190D01*
X115630952Y-104999619D02*
X115583333Y-104952000D01*
X115488095Y-104904380D01*
X115250000Y-104904380D01*
X115154761Y-104952000D01*
X115107142Y-104999619D01*
X115059523Y-105094857D01*
X115059523Y-105190095D01*
X115107142Y-105332952D01*
X115678571Y-105904380D01*
X115059523Y-105904380D01*
X114583333Y-105904380D02*
X114392857Y-105904380D01*
X114297619Y-105856761D01*
X114250000Y-105809142D01*
X114154761Y-105666285D01*
X114107142Y-105475809D01*
X114107142Y-105094857D01*
X114154761Y-104999619D01*
X114202380Y-104952000D01*
X114297619Y-104904380D01*
X114488095Y-104904380D01*
X114583333Y-104952000D01*
X114630952Y-104999619D01*
X114678571Y-105094857D01*
X114678571Y-105332952D01*
X114630952Y-105428190D01*
X114583333Y-105475809D01*
X114488095Y-105523428D01*
X114297619Y-105523428D01*
X114202380Y-105475809D01*
X114154761Y-105428190D01*
X114107142Y-105332952D01*
%TO.C,JP3*%
X144988333Y-69882380D02*
X144988333Y-70596666D01*
X145035952Y-70739523D01*
X145131190Y-70834761D01*
X145274047Y-70882380D01*
X145369285Y-70882380D01*
X144512142Y-70882380D02*
X144512142Y-69882380D01*
X144131190Y-69882380D01*
X144035952Y-69930000D01*
X143988333Y-69977619D01*
X143940714Y-70072857D01*
X143940714Y-70215714D01*
X143988333Y-70310952D01*
X144035952Y-70358571D01*
X144131190Y-70406190D01*
X144512142Y-70406190D01*
X143607380Y-69882380D02*
X142988333Y-69882380D01*
X143321666Y-70263333D01*
X143178809Y-70263333D01*
X143083571Y-70310952D01*
X143035952Y-70358571D01*
X142988333Y-70453809D01*
X142988333Y-70691904D01*
X143035952Y-70787142D01*
X143083571Y-70834761D01*
X143178809Y-70882380D01*
X143464523Y-70882380D01*
X143559761Y-70834761D01*
X143607380Y-70787142D01*
%TO.C,TP27*%
X165338095Y-61254380D02*
X164766666Y-61254380D01*
X165052380Y-62254380D02*
X165052380Y-61254380D01*
X164433333Y-62254380D02*
X164433333Y-61254380D01*
X164052380Y-61254380D01*
X163957142Y-61302000D01*
X163909523Y-61349619D01*
X163861904Y-61444857D01*
X163861904Y-61587714D01*
X163909523Y-61682952D01*
X163957142Y-61730571D01*
X164052380Y-61778190D01*
X164433333Y-61778190D01*
X163480952Y-61349619D02*
X163433333Y-61302000D01*
X163338095Y-61254380D01*
X163100000Y-61254380D01*
X163004761Y-61302000D01*
X162957142Y-61349619D01*
X162909523Y-61444857D01*
X162909523Y-61540095D01*
X162957142Y-61682952D01*
X163528571Y-62254380D01*
X162909523Y-62254380D01*
X162576190Y-61254380D02*
X161909523Y-61254380D01*
X162338095Y-62254380D01*
%TO.C,JP9*%
X124308333Y-107077380D02*
X124308333Y-107791666D01*
X124355952Y-107934523D01*
X124451190Y-108029761D01*
X124594047Y-108077380D01*
X124689285Y-108077380D01*
X123832142Y-108077380D02*
X123832142Y-107077380D01*
X123451190Y-107077380D01*
X123355952Y-107125000D01*
X123308333Y-107172619D01*
X123260714Y-107267857D01*
X123260714Y-107410714D01*
X123308333Y-107505952D01*
X123355952Y-107553571D01*
X123451190Y-107601190D01*
X123832142Y-107601190D01*
X122784523Y-108077380D02*
X122594047Y-108077380D01*
X122498809Y-108029761D01*
X122451190Y-107982142D01*
X122355952Y-107839285D01*
X122308333Y-107648809D01*
X122308333Y-107267857D01*
X122355952Y-107172619D01*
X122403571Y-107125000D01*
X122498809Y-107077380D01*
X122689285Y-107077380D01*
X122784523Y-107125000D01*
X122832142Y-107172619D01*
X122879761Y-107267857D01*
X122879761Y-107505952D01*
X122832142Y-107601190D01*
X122784523Y-107648809D01*
X122689285Y-107696428D01*
X122498809Y-107696428D01*
X122403571Y-107648809D01*
X122355952Y-107601190D01*
X122308333Y-107505952D01*
%TO.C,JP5*%
X138158333Y-114327380D02*
X138158333Y-115041666D01*
X138205952Y-115184523D01*
X138301190Y-115279761D01*
X138444047Y-115327380D01*
X138539285Y-115327380D01*
X137682142Y-115327380D02*
X137682142Y-114327380D01*
X137301190Y-114327380D01*
X137205952Y-114375000D01*
X137158333Y-114422619D01*
X137110714Y-114517857D01*
X137110714Y-114660714D01*
X137158333Y-114755952D01*
X137205952Y-114803571D01*
X137301190Y-114851190D01*
X137682142Y-114851190D01*
X136205952Y-114327380D02*
X136682142Y-114327380D01*
X136729761Y-114803571D01*
X136682142Y-114755952D01*
X136586904Y-114708333D01*
X136348809Y-114708333D01*
X136253571Y-114755952D01*
X136205952Y-114803571D01*
X136158333Y-114898809D01*
X136158333Y-115136904D01*
X136205952Y-115232142D01*
X136253571Y-115279761D01*
X136348809Y-115327380D01*
X136586904Y-115327380D01*
X136682142Y-115279761D01*
X136729761Y-115232142D01*
%TO.C,TP7*%
X104561904Y-82502380D02*
X103990476Y-82502380D01*
X104276190Y-83502380D02*
X104276190Y-82502380D01*
X103657142Y-83502380D02*
X103657142Y-82502380D01*
X103276190Y-82502380D01*
X103180952Y-82550000D01*
X103133333Y-82597619D01*
X103085714Y-82692857D01*
X103085714Y-82835714D01*
X103133333Y-82930952D01*
X103180952Y-82978571D01*
X103276190Y-83026190D01*
X103657142Y-83026190D01*
X102752380Y-82502380D02*
X102085714Y-82502380D01*
X102514285Y-83502380D01*
%TO.C,JP2*%
X144988333Y-74327380D02*
X144988333Y-75041666D01*
X145035952Y-75184523D01*
X145131190Y-75279761D01*
X145274047Y-75327380D01*
X145369285Y-75327380D01*
X144512142Y-75327380D02*
X144512142Y-74327380D01*
X144131190Y-74327380D01*
X144035952Y-74375000D01*
X143988333Y-74422619D01*
X143940714Y-74517857D01*
X143940714Y-74660714D01*
X143988333Y-74755952D01*
X144035952Y-74803571D01*
X144131190Y-74851190D01*
X144512142Y-74851190D01*
X143559761Y-74422619D02*
X143512142Y-74375000D01*
X143416904Y-74327380D01*
X143178809Y-74327380D01*
X143083571Y-74375000D01*
X143035952Y-74422619D01*
X142988333Y-74517857D01*
X142988333Y-74613095D01*
X143035952Y-74755952D01*
X143607380Y-75327380D01*
X142988333Y-75327380D01*
%TO.C,TP8*%
X143311904Y-76704380D02*
X142740476Y-76704380D01*
X143026190Y-77704380D02*
X143026190Y-76704380D01*
X142407142Y-77704380D02*
X142407142Y-76704380D01*
X142026190Y-76704380D01*
X141930952Y-76752000D01*
X141883333Y-76799619D01*
X141835714Y-76894857D01*
X141835714Y-77037714D01*
X141883333Y-77132952D01*
X141930952Y-77180571D01*
X142026190Y-77228190D01*
X142407142Y-77228190D01*
X141264285Y-77132952D02*
X141359523Y-77085333D01*
X141407142Y-77037714D01*
X141454761Y-76942476D01*
X141454761Y-76894857D01*
X141407142Y-76799619D01*
X141359523Y-76752000D01*
X141264285Y-76704380D01*
X141073809Y-76704380D01*
X140978571Y-76752000D01*
X140930952Y-76799619D01*
X140883333Y-76894857D01*
X140883333Y-76942476D01*
X140930952Y-77037714D01*
X140978571Y-77085333D01*
X141073809Y-77132952D01*
X141264285Y-77132952D01*
X141359523Y-77180571D01*
X141407142Y-77228190D01*
X141454761Y-77323428D01*
X141454761Y-77513904D01*
X141407142Y-77609142D01*
X141359523Y-77656761D01*
X141264285Y-77704380D01*
X141073809Y-77704380D01*
X140978571Y-77656761D01*
X140930952Y-77609142D01*
X140883333Y-77513904D01*
X140883333Y-77323428D01*
X140930952Y-77228190D01*
X140978571Y-77180571D01*
X141073809Y-77132952D01*
%TO.C,TP26*%
X111788095Y-115804380D02*
X111216666Y-115804380D01*
X111502380Y-116804380D02*
X111502380Y-115804380D01*
X110883333Y-116804380D02*
X110883333Y-115804380D01*
X110502380Y-115804380D01*
X110407142Y-115852000D01*
X110359523Y-115899619D01*
X110311904Y-115994857D01*
X110311904Y-116137714D01*
X110359523Y-116232952D01*
X110407142Y-116280571D01*
X110502380Y-116328190D01*
X110883333Y-116328190D01*
X109930952Y-115899619D02*
X109883333Y-115852000D01*
X109788095Y-115804380D01*
X109550000Y-115804380D01*
X109454761Y-115852000D01*
X109407142Y-115899619D01*
X109359523Y-115994857D01*
X109359523Y-116090095D01*
X109407142Y-116232952D01*
X109978571Y-116804380D01*
X109359523Y-116804380D01*
X108502380Y-115804380D02*
X108692857Y-115804380D01*
X108788095Y-115852000D01*
X108835714Y-115899619D01*
X108930952Y-116042476D01*
X108978571Y-116232952D01*
X108978571Y-116613904D01*
X108930952Y-116709142D01*
X108883333Y-116756761D01*
X108788095Y-116804380D01*
X108597619Y-116804380D01*
X108502380Y-116756761D01*
X108454761Y-116709142D01*
X108407142Y-116613904D01*
X108407142Y-116375809D01*
X108454761Y-116280571D01*
X108502380Y-116232952D01*
X108597619Y-116185333D01*
X108788095Y-116185333D01*
X108883333Y-116232952D01*
X108930952Y-116280571D01*
X108978571Y-116375809D01*
%TO.C,TP9*%
X104711904Y-94804380D02*
X104140476Y-94804380D01*
X104426190Y-95804380D02*
X104426190Y-94804380D01*
X103807142Y-95804380D02*
X103807142Y-94804380D01*
X103426190Y-94804380D01*
X103330952Y-94852000D01*
X103283333Y-94899619D01*
X103235714Y-94994857D01*
X103235714Y-95137714D01*
X103283333Y-95232952D01*
X103330952Y-95280571D01*
X103426190Y-95328190D01*
X103807142Y-95328190D01*
X102759523Y-95804380D02*
X102569047Y-95804380D01*
X102473809Y-95756761D01*
X102426190Y-95709142D01*
X102330952Y-95566285D01*
X102283333Y-95375809D01*
X102283333Y-94994857D01*
X102330952Y-94899619D01*
X102378571Y-94852000D01*
X102473809Y-94804380D01*
X102664285Y-94804380D01*
X102759523Y-94852000D01*
X102807142Y-94899619D01*
X102854761Y-94994857D01*
X102854761Y-95232952D01*
X102807142Y-95328190D01*
X102759523Y-95375809D01*
X102664285Y-95423428D01*
X102473809Y-95423428D01*
X102378571Y-95375809D01*
X102330952Y-95328190D01*
X102283333Y-95232952D01*
%TO.C,TP13*%
X169388095Y-67204380D02*
X168816666Y-67204380D01*
X169102380Y-68204380D02*
X169102380Y-67204380D01*
X168483333Y-68204380D02*
X168483333Y-67204380D01*
X168102380Y-67204380D01*
X168007142Y-67252000D01*
X167959523Y-67299619D01*
X167911904Y-67394857D01*
X167911904Y-67537714D01*
X167959523Y-67632952D01*
X168007142Y-67680571D01*
X168102380Y-67728190D01*
X168483333Y-67728190D01*
X166959523Y-68204380D02*
X167530952Y-68204380D01*
X167245238Y-68204380D02*
X167245238Y-67204380D01*
X167340476Y-67347238D01*
X167435714Y-67442476D01*
X167530952Y-67490095D01*
X166626190Y-67204380D02*
X166007142Y-67204380D01*
X166340476Y-67585333D01*
X166197619Y-67585333D01*
X166102380Y-67632952D01*
X166054761Y-67680571D01*
X166007142Y-67775809D01*
X166007142Y-68013904D01*
X166054761Y-68109142D01*
X166102380Y-68156761D01*
X166197619Y-68204380D01*
X166483333Y-68204380D01*
X166578571Y-68156761D01*
X166626190Y-68109142D01*
%TO.C,TP17*%
X195680380Y-91046904D02*
X195680380Y-91618333D01*
X196680380Y-91332619D02*
X195680380Y-91332619D01*
X196680380Y-91951666D02*
X195680380Y-91951666D01*
X195680380Y-92332619D01*
X195728000Y-92427857D01*
X195775619Y-92475476D01*
X195870857Y-92523095D01*
X196013714Y-92523095D01*
X196108952Y-92475476D01*
X196156571Y-92427857D01*
X196204190Y-92332619D01*
X196204190Y-91951666D01*
X196680380Y-93475476D02*
X196680380Y-92904047D01*
X196680380Y-93189761D02*
X195680380Y-93189761D01*
X195823238Y-93094523D01*
X195918476Y-92999285D01*
X195966095Y-92904047D01*
X195680380Y-93808809D02*
X195680380Y-94475476D01*
X196680380Y-94046904D01*
%TO.C,TP5*%
X108161904Y-104952380D02*
X107590476Y-104952380D01*
X107876190Y-105952380D02*
X107876190Y-104952380D01*
X107257142Y-105952380D02*
X107257142Y-104952380D01*
X106876190Y-104952380D01*
X106780952Y-105000000D01*
X106733333Y-105047619D01*
X106685714Y-105142857D01*
X106685714Y-105285714D01*
X106733333Y-105380952D01*
X106780952Y-105428571D01*
X106876190Y-105476190D01*
X107257142Y-105476190D01*
X105780952Y-104952380D02*
X106257142Y-104952380D01*
X106304761Y-105428571D01*
X106257142Y-105380952D01*
X106161904Y-105333333D01*
X105923809Y-105333333D01*
X105828571Y-105380952D01*
X105780952Y-105428571D01*
X105733333Y-105523809D01*
X105733333Y-105761904D01*
X105780952Y-105857142D01*
X105828571Y-105904761D01*
X105923809Y-105952380D01*
X106161904Y-105952380D01*
X106257142Y-105904761D01*
X106304761Y-105857142D01*
%TO.C,TP12*%
X147288095Y-49804380D02*
X146716666Y-49804380D01*
X147002380Y-50804380D02*
X147002380Y-49804380D01*
X146383333Y-50804380D02*
X146383333Y-49804380D01*
X146002380Y-49804380D01*
X145907142Y-49852000D01*
X145859523Y-49899619D01*
X145811904Y-49994857D01*
X145811904Y-50137714D01*
X145859523Y-50232952D01*
X145907142Y-50280571D01*
X146002380Y-50328190D01*
X146383333Y-50328190D01*
X144859523Y-50804380D02*
X145430952Y-50804380D01*
X145145238Y-50804380D02*
X145145238Y-49804380D01*
X145240476Y-49947238D01*
X145335714Y-50042476D01*
X145430952Y-50090095D01*
X144478571Y-49899619D02*
X144430952Y-49852000D01*
X144335714Y-49804380D01*
X144097619Y-49804380D01*
X144002380Y-49852000D01*
X143954761Y-49899619D01*
X143907142Y-49994857D01*
X143907142Y-50090095D01*
X143954761Y-50232952D01*
X144526190Y-50804380D01*
X143907142Y-50804380D01*
%TO.C,TP4*%
X105911904Y-107704380D02*
X105340476Y-107704380D01*
X105626190Y-108704380D02*
X105626190Y-107704380D01*
X105007142Y-108704380D02*
X105007142Y-107704380D01*
X104626190Y-107704380D01*
X104530952Y-107752000D01*
X104483333Y-107799619D01*
X104435714Y-107894857D01*
X104435714Y-108037714D01*
X104483333Y-108132952D01*
X104530952Y-108180571D01*
X104626190Y-108228190D01*
X105007142Y-108228190D01*
X103578571Y-108037714D02*
X103578571Y-108704380D01*
X103816666Y-107656761D02*
X104054761Y-108371047D01*
X103435714Y-108371047D01*
%TO.C,TP19*%
X165888095Y-118104380D02*
X165316666Y-118104380D01*
X165602380Y-119104380D02*
X165602380Y-118104380D01*
X164983333Y-119104380D02*
X164983333Y-118104380D01*
X164602380Y-118104380D01*
X164507142Y-118152000D01*
X164459523Y-118199619D01*
X164411904Y-118294857D01*
X164411904Y-118437714D01*
X164459523Y-118532952D01*
X164507142Y-118580571D01*
X164602380Y-118628190D01*
X164983333Y-118628190D01*
X163459523Y-119104380D02*
X164030952Y-119104380D01*
X163745238Y-119104380D02*
X163745238Y-118104380D01*
X163840476Y-118247238D01*
X163935714Y-118342476D01*
X164030952Y-118390095D01*
X162983333Y-119104380D02*
X162792857Y-119104380D01*
X162697619Y-119056761D01*
X162650000Y-119009142D01*
X162554761Y-118866285D01*
X162507142Y-118675809D01*
X162507142Y-118294857D01*
X162554761Y-118199619D01*
X162602380Y-118152000D01*
X162697619Y-118104380D01*
X162888095Y-118104380D01*
X162983333Y-118152000D01*
X163030952Y-118199619D01*
X163078571Y-118294857D01*
X163078571Y-118532952D01*
X163030952Y-118628190D01*
X162983333Y-118675809D01*
X162888095Y-118723428D01*
X162697619Y-118723428D01*
X162602380Y-118675809D01*
X162554761Y-118628190D01*
X162507142Y-118532952D01*
%TO.C,JP11*%
X124884523Y-99377380D02*
X124884523Y-100091666D01*
X124932142Y-100234523D01*
X125027380Y-100329761D01*
X125170238Y-100377380D01*
X125265476Y-100377380D01*
X124408333Y-100377380D02*
X124408333Y-99377380D01*
X124027380Y-99377380D01*
X123932142Y-99425000D01*
X123884523Y-99472619D01*
X123836904Y-99567857D01*
X123836904Y-99710714D01*
X123884523Y-99805952D01*
X123932142Y-99853571D01*
X124027380Y-99901190D01*
X124408333Y-99901190D01*
X122884523Y-100377380D02*
X123455952Y-100377380D01*
X123170238Y-100377380D02*
X123170238Y-99377380D01*
X123265476Y-99520238D01*
X123360714Y-99615476D01*
X123455952Y-99663095D01*
X121932142Y-100377380D02*
X122503571Y-100377380D01*
X122217857Y-100377380D02*
X122217857Y-99377380D01*
X122313095Y-99520238D01*
X122408333Y-99615476D01*
X122503571Y-99663095D01*
%TO.C,TP11*%
X104888095Y-100004380D02*
X104316666Y-100004380D01*
X104602380Y-101004380D02*
X104602380Y-100004380D01*
X103983333Y-101004380D02*
X103983333Y-100004380D01*
X103602380Y-100004380D01*
X103507142Y-100052000D01*
X103459523Y-100099619D01*
X103411904Y-100194857D01*
X103411904Y-100337714D01*
X103459523Y-100432952D01*
X103507142Y-100480571D01*
X103602380Y-100528190D01*
X103983333Y-100528190D01*
X102459523Y-101004380D02*
X103030952Y-101004380D01*
X102745238Y-101004380D02*
X102745238Y-100004380D01*
X102840476Y-100147238D01*
X102935714Y-100242476D01*
X103030952Y-100290095D01*
X101507142Y-101004380D02*
X102078571Y-101004380D01*
X101792857Y-101004380D02*
X101792857Y-100004380D01*
X101888095Y-100147238D01*
X101983333Y-100242476D01*
X102078571Y-100290095D01*
%TO.C,TP1*%
X174361904Y-51802380D02*
X173790476Y-51802380D01*
X174076190Y-52802380D02*
X174076190Y-51802380D01*
X173457142Y-52802380D02*
X173457142Y-51802380D01*
X173076190Y-51802380D01*
X172980952Y-51850000D01*
X172933333Y-51897619D01*
X172885714Y-51992857D01*
X172885714Y-52135714D01*
X172933333Y-52230952D01*
X172980952Y-52278571D01*
X173076190Y-52326190D01*
X173457142Y-52326190D01*
X171933333Y-52802380D02*
X172504761Y-52802380D01*
X172219047Y-52802380D02*
X172219047Y-51802380D01*
X172314285Y-51945238D01*
X172409523Y-52040476D01*
X172504761Y-52088095D01*
%TO.C,TP2*%
X138811904Y-91904380D02*
X138240476Y-91904380D01*
X138526190Y-92904380D02*
X138526190Y-91904380D01*
X137907142Y-92904380D02*
X137907142Y-91904380D01*
X137526190Y-91904380D01*
X137430952Y-91952000D01*
X137383333Y-91999619D01*
X137335714Y-92094857D01*
X137335714Y-92237714D01*
X137383333Y-92332952D01*
X137430952Y-92380571D01*
X137526190Y-92428190D01*
X137907142Y-92428190D01*
X136954761Y-91999619D02*
X136907142Y-91952000D01*
X136811904Y-91904380D01*
X136573809Y-91904380D01*
X136478571Y-91952000D01*
X136430952Y-91999619D01*
X136383333Y-92094857D01*
X136383333Y-92190095D01*
X136430952Y-92332952D01*
X137002380Y-92904380D01*
X136383333Y-92904380D01*
%TO.C,TP28*%
X161288095Y-61254380D02*
X160716666Y-61254380D01*
X161002380Y-62254380D02*
X161002380Y-61254380D01*
X160383333Y-62254380D02*
X160383333Y-61254380D01*
X160002380Y-61254380D01*
X159907142Y-61302000D01*
X159859523Y-61349619D01*
X159811904Y-61444857D01*
X159811904Y-61587714D01*
X159859523Y-61682952D01*
X159907142Y-61730571D01*
X160002380Y-61778190D01*
X160383333Y-61778190D01*
X159430952Y-61349619D02*
X159383333Y-61302000D01*
X159288095Y-61254380D01*
X159050000Y-61254380D01*
X158954761Y-61302000D01*
X158907142Y-61349619D01*
X158859523Y-61444857D01*
X158859523Y-61540095D01*
X158907142Y-61682952D01*
X159478571Y-62254380D01*
X158859523Y-62254380D01*
X158288095Y-61682952D02*
X158383333Y-61635333D01*
X158430952Y-61587714D01*
X158478571Y-61492476D01*
X158478571Y-61444857D01*
X158430952Y-61349619D01*
X158383333Y-61302000D01*
X158288095Y-61254380D01*
X158097619Y-61254380D01*
X158002380Y-61302000D01*
X157954761Y-61349619D01*
X157907142Y-61444857D01*
X157907142Y-61492476D01*
X157954761Y-61587714D01*
X158002380Y-61635333D01*
X158097619Y-61682952D01*
X158288095Y-61682952D01*
X158383333Y-61730571D01*
X158430952Y-61778190D01*
X158478571Y-61873428D01*
X158478571Y-62063904D01*
X158430952Y-62159142D01*
X158383333Y-62206761D01*
X158288095Y-62254380D01*
X158097619Y-62254380D01*
X158002380Y-62206761D01*
X157954761Y-62159142D01*
X157907142Y-62063904D01*
X157907142Y-61873428D01*
X157954761Y-61778190D01*
X158002380Y-61730571D01*
X158097619Y-61682952D01*
%TO.C,TP16*%
X181988095Y-123504380D02*
X181416666Y-123504380D01*
X181702380Y-124504380D02*
X181702380Y-123504380D01*
X181083333Y-124504380D02*
X181083333Y-123504380D01*
X180702380Y-123504380D01*
X180607142Y-123552000D01*
X180559523Y-123599619D01*
X180511904Y-123694857D01*
X180511904Y-123837714D01*
X180559523Y-123932952D01*
X180607142Y-123980571D01*
X180702380Y-124028190D01*
X181083333Y-124028190D01*
X179559523Y-124504380D02*
X180130952Y-124504380D01*
X179845238Y-124504380D02*
X179845238Y-123504380D01*
X179940476Y-123647238D01*
X180035714Y-123742476D01*
X180130952Y-123790095D01*
X178702380Y-123504380D02*
X178892857Y-123504380D01*
X178988095Y-123552000D01*
X179035714Y-123599619D01*
X179130952Y-123742476D01*
X179178571Y-123932952D01*
X179178571Y-124313904D01*
X179130952Y-124409142D01*
X179083333Y-124456761D01*
X178988095Y-124504380D01*
X178797619Y-124504380D01*
X178702380Y-124456761D01*
X178654761Y-124409142D01*
X178607142Y-124313904D01*
X178607142Y-124075809D01*
X178654761Y-123980571D01*
X178702380Y-123932952D01*
X178797619Y-123885333D01*
X178988095Y-123885333D01*
X179083333Y-123932952D01*
X179130952Y-123980571D01*
X179178571Y-124075809D01*
%TO.C,TP20*%
X122088095Y-119304380D02*
X121516666Y-119304380D01*
X121802380Y-120304380D02*
X121802380Y-119304380D01*
X121183333Y-120304380D02*
X121183333Y-119304380D01*
X120802380Y-119304380D01*
X120707142Y-119352000D01*
X120659523Y-119399619D01*
X120611904Y-119494857D01*
X120611904Y-119637714D01*
X120659523Y-119732952D01*
X120707142Y-119780571D01*
X120802380Y-119828190D01*
X121183333Y-119828190D01*
X120230952Y-119399619D02*
X120183333Y-119352000D01*
X120088095Y-119304380D01*
X119850000Y-119304380D01*
X119754761Y-119352000D01*
X119707142Y-119399619D01*
X119659523Y-119494857D01*
X119659523Y-119590095D01*
X119707142Y-119732952D01*
X120278571Y-120304380D01*
X119659523Y-120304380D01*
X119040476Y-119304380D02*
X118945238Y-119304380D01*
X118850000Y-119352000D01*
X118802380Y-119399619D01*
X118754761Y-119494857D01*
X118707142Y-119685333D01*
X118707142Y-119923428D01*
X118754761Y-120113904D01*
X118802380Y-120209142D01*
X118850000Y-120256761D01*
X118945238Y-120304380D01*
X119040476Y-120304380D01*
X119135714Y-120256761D01*
X119183333Y-120209142D01*
X119230952Y-120113904D01*
X119278571Y-119923428D01*
X119278571Y-119685333D01*
X119230952Y-119494857D01*
X119183333Y-119399619D01*
X119135714Y-119352000D01*
X119040476Y-119304380D01*
%TO.C,TP24*%
X177588095Y-97204380D02*
X177016666Y-97204380D01*
X177302380Y-98204380D02*
X177302380Y-97204380D01*
X176683333Y-98204380D02*
X176683333Y-97204380D01*
X176302380Y-97204380D01*
X176207142Y-97252000D01*
X176159523Y-97299619D01*
X176111904Y-97394857D01*
X176111904Y-97537714D01*
X176159523Y-97632952D01*
X176207142Y-97680571D01*
X176302380Y-97728190D01*
X176683333Y-97728190D01*
X175730952Y-97299619D02*
X175683333Y-97252000D01*
X175588095Y-97204380D01*
X175350000Y-97204380D01*
X175254761Y-97252000D01*
X175207142Y-97299619D01*
X175159523Y-97394857D01*
X175159523Y-97490095D01*
X175207142Y-97632952D01*
X175778571Y-98204380D01*
X175159523Y-98204380D01*
X174302380Y-97537714D02*
X174302380Y-98204380D01*
X174540476Y-97156761D02*
X174778571Y-97871047D01*
X174159523Y-97871047D01*
D11*
%TO.C,JP8*%
X109550000Y-101850000D02*
X109550000Y-100450000D01*
X108250000Y-102550000D02*
X108850000Y-102550000D01*
X108850000Y-99750000D02*
X108250000Y-99750000D01*
X107550000Y-100450000D02*
X107550000Y-101850000D01*
X109550000Y-100450000D02*
G75*
G03*
X108850000Y-99750000I-699999J1D01*
G01*
X108850000Y-102550000D02*
G75*
G03*
X109550000Y-101850000I0J700000D01*
G01*
X108250000Y-99750000D02*
G75*
G03*
X107550000Y-100450000I-1J-699999D01*
G01*
X107550000Y-101850000D02*
G75*
G03*
X108250000Y-102550000I700000J0D01*
G01*
%TO.C,TP6*%
X155950000Y-63750000D02*
X153550000Y-63750000D01*
X153550000Y-63750000D02*
X153550000Y-66150000D01*
X155950000Y-66150000D02*
X155950000Y-63750000D01*
X153550000Y-66150000D02*
X155950000Y-66150000D01*
%TO.C,TP15*%
X138650000Y-98250000D02*
X138650000Y-100650000D01*
X141050000Y-98250000D02*
X138650000Y-98250000D01*
X138650000Y-100650000D02*
X141050000Y-100650000D01*
X141050000Y-100650000D02*
X141050000Y-98250000D01*
%TO.C,TP25*%
X129150000Y-103150000D02*
X131550000Y-103150000D01*
X131550000Y-103150000D02*
X131550000Y-100750000D01*
X131550000Y-100750000D02*
X129150000Y-100750000D01*
X129150000Y-100750000D02*
X129150000Y-103150000D01*
%TO.C,TP22*%
X151950000Y-134950000D02*
X149550000Y-134950000D01*
X149550000Y-134950000D02*
X149550000Y-137350000D01*
X151950000Y-137350000D02*
X151950000Y-134950000D01*
X149550000Y-137350000D02*
X151950000Y-137350000D01*
%TO.C,JP10*%
X121050000Y-100450000D02*
X121650000Y-100450000D01*
X121650000Y-100450000D02*
X121350000Y-100750000D01*
X125500000Y-102950000D02*
X125500000Y-101000000D01*
X120000000Y-102950000D02*
X125500000Y-102950000D01*
X120000000Y-101000000D02*
X120000000Y-102950000D01*
X121350000Y-100750000D02*
X121050000Y-100450000D01*
X125500000Y-101000000D02*
X120000000Y-101000000D01*
%TO.C,JP6*%
X140800000Y-119350000D02*
X135300000Y-119350000D01*
X139150000Y-121850000D02*
X139450000Y-121550000D01*
X139750000Y-121850000D02*
X139150000Y-121850000D01*
X140800000Y-121300000D02*
X140800000Y-119350000D01*
X135300000Y-121300000D02*
X140800000Y-121300000D01*
X135300000Y-119350000D02*
X135300000Y-121300000D01*
X139450000Y-121550000D02*
X139750000Y-121850000D01*
%TO.C,TP18*%
X129350000Y-122450000D02*
X129350000Y-120050000D01*
X126950000Y-120050000D02*
X126950000Y-122450000D01*
X126950000Y-122450000D02*
X129350000Y-122450000D01*
X129350000Y-120050000D02*
X126950000Y-120050000D01*
%TO.C,TP23*%
X181650000Y-97150000D02*
X181650000Y-99550000D01*
X184050000Y-99550000D02*
X184050000Y-97150000D01*
X184050000Y-97150000D02*
X181650000Y-97150000D01*
X181650000Y-99550000D02*
X184050000Y-99550000D01*
%TO.C,TP3*%
X104750000Y-79050000D02*
X102350000Y-79050000D01*
X102350000Y-79050000D02*
X102350000Y-81450000D01*
X102350000Y-81450000D02*
X104750000Y-81450000D01*
X104750000Y-81450000D02*
X104750000Y-79050000D01*
%TO.C,TP14*%
X152450000Y-82150000D02*
X152450000Y-79750000D01*
X150050000Y-82150000D02*
X152450000Y-82150000D01*
X150050000Y-79750000D02*
X150050000Y-82150000D01*
X152450000Y-79750000D02*
X150050000Y-79750000D01*
%TO.C,TP21*%
X162150000Y-133950000D02*
X162150000Y-136350000D01*
X162150000Y-136350000D02*
X164550000Y-136350000D01*
X164550000Y-133950000D02*
X162150000Y-133950000D01*
X164550000Y-136350000D02*
X164550000Y-133950000D01*
%TO.C,TP29*%
X114550000Y-106250000D02*
X114550000Y-108650000D01*
X114550000Y-108650000D02*
X116950000Y-108650000D01*
X116950000Y-108650000D02*
X116950000Y-106250000D01*
X116950000Y-106250000D02*
X114550000Y-106250000D01*
%TO.C,JP3*%
X142030000Y-67455000D02*
X141730000Y-67155000D01*
X146180000Y-67705000D02*
X140680000Y-67705000D01*
X142330000Y-67155000D02*
X142030000Y-67455000D01*
X140680000Y-69655000D02*
X146180000Y-69655000D01*
X141730000Y-67155000D02*
X142330000Y-67155000D01*
X146180000Y-69655000D02*
X146180000Y-67705000D01*
X140680000Y-67705000D02*
X140680000Y-69655000D01*
%TO.C,TP27*%
X164800000Y-65000000D02*
X164800000Y-62600000D01*
X162400000Y-62600000D02*
X162400000Y-65000000D01*
X164800000Y-62600000D02*
X162400000Y-62600000D01*
X162400000Y-65000000D02*
X164800000Y-65000000D01*
%TO.C,JP9*%
X121650000Y-104350000D02*
X121350000Y-104650000D01*
X125500000Y-104900000D02*
X120000000Y-104900000D01*
X120000000Y-104900000D02*
X120000000Y-106850000D01*
X121350000Y-104650000D02*
X121050000Y-104350000D01*
X121050000Y-104350000D02*
X121650000Y-104350000D01*
X125500000Y-106850000D02*
X125500000Y-104900000D01*
X120000000Y-106850000D02*
X125500000Y-106850000D01*
%TO.C,JP5*%
X139150000Y-118150000D02*
X139450000Y-117850000D01*
X139750000Y-118150000D02*
X139150000Y-118150000D01*
X135300000Y-117600000D02*
X140800000Y-117600000D01*
X140800000Y-117600000D02*
X140800000Y-115650000D01*
X139450000Y-117850000D02*
X139750000Y-118150000D01*
X140800000Y-115650000D02*
X135300000Y-115650000D01*
X135300000Y-115650000D02*
X135300000Y-117600000D01*
%TO.C,TP7*%
X102100000Y-84350000D02*
X102100000Y-86750000D01*
X104500000Y-86750000D02*
X104500000Y-84350000D01*
X102100000Y-86750000D02*
X104500000Y-86750000D01*
X104500000Y-84350000D02*
X102100000Y-84350000D01*
%TO.C,JP2*%
X140680000Y-74100000D02*
X146180000Y-74100000D01*
X140680000Y-72150000D02*
X140680000Y-74100000D01*
X142030000Y-71900000D02*
X141730000Y-71600000D01*
X141730000Y-71600000D02*
X142330000Y-71600000D01*
X146180000Y-72150000D02*
X140680000Y-72150000D01*
X146180000Y-74100000D02*
X146180000Y-72150000D01*
X142330000Y-71600000D02*
X142030000Y-71900000D01*
%TO.C,TP8*%
X143250000Y-80450000D02*
X143250000Y-78050000D01*
X143250000Y-78050000D02*
X140850000Y-78050000D01*
X140850000Y-80450000D02*
X143250000Y-80450000D01*
X140850000Y-78050000D02*
X140850000Y-80450000D01*
%TO.C,TP26*%
X111250000Y-117150000D02*
X108850000Y-117150000D01*
X111250000Y-119550000D02*
X111250000Y-117150000D01*
X108850000Y-117150000D02*
X108850000Y-119550000D01*
X108850000Y-119550000D02*
X111250000Y-119550000D01*
%TO.C,TP9*%
X102250000Y-96150000D02*
X102250000Y-98550000D01*
X104650000Y-96150000D02*
X102250000Y-96150000D01*
X104650000Y-98550000D02*
X104650000Y-96150000D01*
X102250000Y-98550000D02*
X104650000Y-98550000D01*
%TO.C,TP13*%
X166450000Y-70950000D02*
X168850000Y-70950000D01*
X168850000Y-68550000D02*
X166450000Y-68550000D01*
X166450000Y-68550000D02*
X166450000Y-70950000D01*
X168850000Y-70950000D02*
X168850000Y-68550000D01*
%TO.C,TP17*%
X193030000Y-91585000D02*
X193030000Y-93985000D01*
X195430000Y-91585000D02*
X193030000Y-91585000D01*
X195430000Y-93985000D02*
X195430000Y-91585000D01*
X193030000Y-93985000D02*
X195430000Y-93985000D01*
%TO.C,TP5*%
X105350000Y-107450000D02*
X105350000Y-105050000D01*
X105350000Y-105050000D02*
X102950000Y-105050000D01*
X102950000Y-107450000D02*
X105350000Y-107450000D01*
X102950000Y-105050000D02*
X102950000Y-107450000D01*
%TO.C,TP12*%
X144350000Y-53550000D02*
X146750000Y-53550000D01*
X144350000Y-51150000D02*
X144350000Y-53550000D01*
X146750000Y-51150000D02*
X144350000Y-51150000D01*
X146750000Y-53550000D02*
X146750000Y-51150000D01*
%TO.C,TP4*%
X103450000Y-109050000D02*
X103450000Y-111450000D01*
X103450000Y-111450000D02*
X105850000Y-111450000D01*
X105850000Y-109050000D02*
X103450000Y-109050000D01*
X105850000Y-111450000D02*
X105850000Y-109050000D01*
%TO.C,TP19*%
X165350000Y-121850000D02*
X165350000Y-119450000D01*
X162950000Y-121850000D02*
X165350000Y-121850000D01*
X165350000Y-119450000D02*
X162950000Y-119450000D01*
X162950000Y-119450000D02*
X162950000Y-121850000D01*
%TO.C,JP11*%
X125600000Y-97200000D02*
X120100000Y-97200000D01*
X121450000Y-96950000D02*
X121150000Y-96650000D01*
X125600000Y-99150000D02*
X125600000Y-97200000D01*
X120100000Y-97200000D02*
X120100000Y-99150000D01*
X121150000Y-96650000D02*
X121750000Y-96650000D01*
X120100000Y-99150000D02*
X125600000Y-99150000D01*
X121750000Y-96650000D02*
X121450000Y-96950000D01*
%TO.C,TP11*%
X101950000Y-103750000D02*
X104350000Y-103750000D01*
X101950000Y-101350000D02*
X101950000Y-103750000D01*
X104350000Y-101350000D02*
X101950000Y-101350000D01*
X104350000Y-103750000D02*
X104350000Y-101350000D01*
%TO.C,TP1*%
X171950000Y-53550000D02*
X171950000Y-55950000D01*
X174350000Y-55950000D02*
X174350000Y-53550000D01*
X171950000Y-55950000D02*
X174350000Y-55950000D01*
X174350000Y-53550000D02*
X171950000Y-53550000D01*
%TO.C,TP2*%
X136350000Y-95650000D02*
X138750000Y-95650000D01*
X138750000Y-93250000D02*
X136350000Y-93250000D01*
X138750000Y-95650000D02*
X138750000Y-93250000D01*
X136350000Y-93250000D02*
X136350000Y-95650000D01*
%TO.C,TP28*%
X160750000Y-65000000D02*
X160750000Y-62600000D01*
X160750000Y-62600000D02*
X158350000Y-62600000D01*
X158350000Y-62600000D02*
X158350000Y-65000000D01*
X158350000Y-65000000D02*
X160750000Y-65000000D01*
%TO.C,TP16*%
X179050000Y-124850000D02*
X179050000Y-127250000D01*
X179050000Y-127250000D02*
X181450000Y-127250000D01*
X181450000Y-124850000D02*
X179050000Y-124850000D01*
X181450000Y-127250000D02*
X181450000Y-124850000D01*
%TO.C,TP20*%
X119150000Y-120650000D02*
X119150000Y-123050000D01*
X121550000Y-120650000D02*
X119150000Y-120650000D01*
X121550000Y-123050000D02*
X121550000Y-120650000D01*
X119150000Y-123050000D02*
X121550000Y-123050000D01*
%TO.C,TP24*%
X177050000Y-98550000D02*
X174650000Y-98550000D01*
X174650000Y-98550000D02*
X174650000Y-100950000D01*
X174650000Y-100950000D02*
X177050000Y-100950000D01*
X177050000Y-100950000D02*
X177050000Y-98550000D01*
%TD*%
%LPC*%
D12*
%TO.C,JP8*%
X108550000Y-100500000D03*
D13*
X108550000Y-101800000D03*
%TD*%
D14*
%TO.C,J3*%
X123610000Y-128866000D03*
X123610000Y-126834000D03*
X128690000Y-127850000D03*
%TD*%
D15*
%TO.C,J8*%
X171857500Y-125817500D03*
D16*
X169317500Y-125817500D03*
X166777500Y-125817500D03*
X164237500Y-125817500D03*
X161697500Y-125817500D03*
X159157500Y-125817500D03*
X156617500Y-125817500D03*
X154077500Y-125817500D03*
X151537500Y-125817500D03*
X148997500Y-125817500D03*
X146457500Y-125817500D03*
X143917500Y-125817500D03*
X141377500Y-125817500D03*
X138837500Y-125817500D03*
X136297500Y-125817500D03*
%TD*%
D15*
%TO.C,J10*%
X146550000Y-96050000D03*
D16*
X146550000Y-93510000D03*
X146550000Y-90970000D03*
%TD*%
D15*
%TO.C,J37*%
X162300000Y-58550000D03*
D16*
X159760000Y-58550000D03*
%TD*%
D15*
%TO.C,J12*%
X128190000Y-51505000D03*
D16*
X128190000Y-54045000D03*
%TD*%
D17*
%TO.C,J1*%
X134590000Y-53655000D03*
%TD*%
%TO.C,J5*%
X161895000Y-53655000D03*
%TD*%
D18*
%TO.C,J2*%
X188350000Y-79100000D03*
%TD*%
D19*
%TO.C,C15*%
X188115000Y-113620000D03*
X188115000Y-98620000D03*
%TD*%
D15*
%TO.C,J11*%
X146550000Y-85050000D03*
D16*
X146550000Y-82510000D03*
X146550000Y-79970000D03*
%TD*%
D15*
%TO.C,J9*%
X168195000Y-51510000D03*
D16*
X168195000Y-54050000D03*
%TD*%
D19*
%TO.C,C14*%
X188115000Y-86950000D03*
X188115000Y-71950000D03*
%TD*%
D15*
%TO.C,J6*%
X110050000Y-105470000D03*
D16*
X110050000Y-108010000D03*
X110050000Y-110550000D03*
X110050000Y-113090000D03*
%TD*%
D18*
%TO.C,J4*%
X188050000Y-106050000D03*
%TD*%
D15*
%TO.C,J7*%
X171857500Y-130467500D03*
D16*
X169317500Y-130467500D03*
X166777500Y-130467500D03*
X164237500Y-130467500D03*
X161697500Y-130467500D03*
X159157500Y-130467500D03*
X156617500Y-130467500D03*
X154077500Y-130467500D03*
X151537500Y-130467500D03*
X148997500Y-130467500D03*
X146457500Y-130467500D03*
X143917500Y-130467500D03*
X141377500Y-130467500D03*
X138837500Y-130467500D03*
X136297500Y-130467500D03*
%TD*%
D20*
%TO.C,TP6*%
X154750000Y-64950000D03*
%TD*%
%TO.C,TP15*%
X139850000Y-99450000D03*
%TD*%
%TO.C,TP25*%
X130350000Y-101950000D03*
%TD*%
%TO.C,TP22*%
X150750000Y-136150000D03*
%TD*%
D21*
%TO.C,JP10*%
X121550000Y-101950000D03*
X123950000Y-101950000D03*
D22*
X120750000Y-101950000D03*
D23*
X124750000Y-101950000D03*
%TD*%
D21*
%TO.C,JP6*%
X136850000Y-120350000D03*
X139250000Y-120350000D03*
D23*
X140050000Y-120350000D03*
D22*
X136050000Y-120350000D03*
%TD*%
D20*
%TO.C,TP18*%
X128150000Y-121250000D03*
%TD*%
%TO.C,TP23*%
X182850000Y-98350000D03*
%TD*%
%TO.C,TP3*%
X103550000Y-80250000D03*
%TD*%
%TO.C,TP14*%
X151250000Y-80950000D03*
%TD*%
%TO.C,TP21*%
X163350000Y-135150000D03*
%TD*%
%TO.C,TP29*%
X115750000Y-107450000D03*
%TD*%
D21*
%TO.C,JP3*%
X142230000Y-68655000D03*
X144630000Y-68655000D03*
D22*
X141430000Y-68655000D03*
D23*
X145430000Y-68655000D03*
%TD*%
D20*
%TO.C,TP27*%
X163600000Y-63800000D03*
%TD*%
D21*
%TO.C,JP9*%
X121550000Y-105850000D03*
X123950000Y-105850000D03*
D22*
X120750000Y-105850000D03*
D23*
X124750000Y-105850000D03*
%TD*%
D21*
%TO.C,JP5*%
X136850000Y-116650000D03*
X139250000Y-116650000D03*
D23*
X140050000Y-116650000D03*
D22*
X136050000Y-116650000D03*
%TD*%
D20*
%TO.C,TP7*%
X103300000Y-85550000D03*
%TD*%
D21*
%TO.C,JP2*%
X144630000Y-73100000D03*
X142230000Y-73100000D03*
D22*
X141430000Y-73100000D03*
D23*
X145430000Y-73100000D03*
%TD*%
D20*
%TO.C,TP8*%
X142050000Y-79250000D03*
%TD*%
%TO.C,TP26*%
X110050000Y-118350000D03*
%TD*%
%TO.C,TP9*%
X103450000Y-97350000D03*
%TD*%
%TO.C,TP13*%
X167650000Y-69750000D03*
%TD*%
%TO.C,TP17*%
X194230000Y-92785000D03*
%TD*%
%TO.C,TP5*%
X104150000Y-106250000D03*
%TD*%
%TO.C,TP12*%
X145550000Y-52350000D03*
%TD*%
%TO.C,TP4*%
X104650000Y-110250000D03*
%TD*%
%TO.C,TP19*%
X164150000Y-120650000D03*
%TD*%
D21*
%TO.C,JP11*%
X124050000Y-98150000D03*
X121650000Y-98150000D03*
D22*
X120850000Y-98150000D03*
D23*
X124850000Y-98150000D03*
%TD*%
D20*
%TO.C,TP11*%
X103150000Y-102550000D03*
%TD*%
%TO.C,TP1*%
X173150000Y-54750000D03*
%TD*%
%TO.C,TP2*%
X137550000Y-94450000D03*
%TD*%
%TO.C,TP28*%
X159550000Y-63800000D03*
%TD*%
%TO.C,TP16*%
X180250000Y-126050000D03*
%TD*%
%TO.C,TP20*%
X120350000Y-121850000D03*
%TD*%
%TO.C,TP24*%
X175850000Y-99750000D03*
%TD*%
M02*
