M48
; DRILL file {KiCad (6.0.7-1)-1} date Sunday, 09 October 2022 at 23:16:26
; FORMAT={-:-/ absolute / inch / decimal}
; #@! TF.CreationDate,2022-10-09T23:16:26+02:00
; #@! TF.GenerationSoftware,Kicad,Pcbnew,(6.0.7-1)-1
; #@! TF.FileFunction,Plated,1,4,PTH
FMAT,2
INCH
; #@! TA.AperFunction,Plated,PTH,ViaDrill
T1C0.0157
; #@! TA.AperFunction,Plated,PTH,ComponentDrill
T2C0.0300
; #@! TA.AperFunction,Plated,PTH,ComponentDrill
T3C0.0394
%
G90
G05
T1
X3.9291Y-3.7677
X3.9547Y-4.0177
X3.9724Y-3.1969
X3.9823Y-3.6909
X3.9862Y-3.9193
X4.1063Y-4.4449
X4.185Y-3.3681
X4.1909Y-4.0768
X4.1949Y-3.1909
X4.1949Y-3.8996
X4.2185Y-4.3563
X4.2244Y-3.8406
X4.2382Y-4.2185
X4.25Y-4.5807
X4.25Y-4.6752
X4.2933Y-3.1909
X4.3228Y-4.7402
X4.3642Y-2.6634
X4.4016Y-3.0531
X4.4252Y-4.1575
X4.4783Y-4.3445
X4.4902Y-3.9685
X4.5098Y-4.8839
X4.5295Y-4.4469
X4.5315Y-4.3976
X4.5689Y-3.6929
X4.5945Y-4.7047
X4.5984Y-3.9488
X4.6004Y-3.2343
X4.6181Y-3.7421
X4.6555Y-3.3051
X4.6575Y-3.9449
X4.6594Y-4.4705
X4.6595Y-3.248
X4.6831Y-4.1516
X4.687Y-4.1949
X4.6909Y-3.9823
X4.6929Y-4.437
X4.7047Y-4.5118
X4.7362Y-4.4409
X4.7402Y-5.185
X4.7441Y-4.3661
X4.7461Y-3.1319
X4.748Y-3.5551
X4.7618Y-3.4862
X4.7657Y-2.5217
X4.7756Y-3.0827
X4.7756Y-3.5906
X4.8135Y-4.3597
X4.8199Y-4.7116
X4.8287Y-4.0965
X4.8307Y-4.7874
X4.8406Y-4.8825
X4.8484Y-5.2303
X4.8681Y-4.0807
X4.8799Y-4.5807
X4.8883Y-4.4345
X4.8996Y-3.624
X4.9016Y-4.685
X4.9134Y-4.5
X4.9252Y-3.5709
X4.9272Y-4.5374
X4.9272Y-4.9193
X4.9646Y-4.748
X4.9783Y-4.1398
X4.9803Y-2.4803
X5.0118Y-3.8996
X5.0256Y-3.065
X5.061Y-4.8563
X5.063Y-3.2323
X5.0965Y-3.5295
X5.0984Y-4.2913
X5.128Y-5.4311
X5.136Y-4.5726
X5.1398Y-2.6594
X5.1496Y-4.1102
X5.1693Y-3.5846
X5.1719Y-2.778
X5.1772Y-4.6024
X5.1791Y-3.6516
X5.1811Y-2.4528
X5.1831Y-4.9626
X5.2067Y-3.0492
X5.2205Y-4.499
X5.2343Y-4.0295
X5.2579Y-5.4626
X5.2638Y-4.4961
X5.2776Y-5.3563
X5.3091Y-3.9075
X5.3346Y-4.3661
X5.3465Y-3.9488
X5.3563Y-4.0728
X5.3937Y-4.1378
X5.3957Y-2.6102
X5.4252Y-3.4862
X5.4311Y-4.8563
X5.435Y-4.8169
X5.4503Y-4.4227
X5.4626Y-4.6634
X5.4941Y-2.7087
X5.4941Y-3.0433
X5.4969Y-2.878
X5.5138Y-5.2382
X5.5138Y-5.3563
X5.5177Y-4.5177
X5.5335Y-5.3169
X5.5965Y-4.7028
X5.6024Y-3.622
X5.6063Y-4.5
X5.6161Y-3.9587
X5.6339Y-4.4449
X5.6417Y-4.3425
X5.6575Y-5.315
X5.6594Y-4.1909
X5.6594Y-4.2736
X5.6614Y-3.5354
X5.6614Y-3.8406
X5.666Y-4.5269
X5.6719Y-2.803
X5.6909Y-5.3563
X5.7028Y-3.9587
X5.7028Y-4.5925
X5.7205Y-4.874
X5.7343Y-2.4705
X5.7382Y-2.1634
X5.7402Y-2.2835
X5.7539Y-5.3012
X5.7618Y-4.6713
X5.7657Y-4.8524
X5.7736Y-2.5846
X5.7894Y-2.2953
X5.7969Y-2.703
X5.8091Y-2.7933
X5.8091Y-2.8366
X5.8386Y-2.4823
X5.8976Y-2.9252
X5.9043Y-4.1548
X5.9173Y-4.3327
X5.9409Y-4.6378
X5.9508Y-4.8287
X5.9626Y-4.7894
X5.9646Y-2.8386
X5.9719Y-2.078
X5.9719Y-2.278
X5.9969Y-2.5307
X6.0Y-2.7992
X6.0197Y-5.0433
X6.0969Y-2.928
X6.1398Y-5.2736
X6.1594Y-5.4311
X6.1634Y-3.0138
X6.187Y-2.6909
X6.2385Y-2.753
X6.2638Y-5.0433
X6.2756Y-4.811
X6.3219Y-2.803
X6.3307Y-2.9646
X6.5374Y-3.1909
X6.5984Y-5.0472
X6.6909Y-2.25
X6.7657Y-4.8642
X6.7933Y-2.7382
X6.8799Y-4.0492
X6.9902Y-2.2067
X7.0571Y-2.7303
X7.0886Y-3.872
X7.1831Y-3.5453
X7.187Y-4.687
X7.5413Y-3.7717
X7.5866Y-3.7362
T2
X7.4061Y-2.8327
X7.4061Y-3.4232
X7.4061Y-3.8827
X7.4061Y-4.4732
T3
X4.3327Y-4.1524
X4.3327Y-4.2524
X4.3327Y-4.3524
X4.3327Y-4.4524
X5.0469Y-2.0278
X5.0469Y-2.1278
X5.366Y-4.9534
X5.366Y-5.1365
X5.466Y-4.9534
X5.466Y-5.1365
X5.566Y-4.9534
X5.566Y-5.1365
X5.666Y-4.9534
X5.666Y-5.1365
X5.766Y-4.9534
X5.766Y-5.1365
X5.7697Y-3.1484
X5.7697Y-3.2484
X5.7697Y-3.3484
X5.7697Y-3.5815
X5.7697Y-3.6815
X5.7697Y-3.7815
X5.866Y-4.9534
X5.866Y-5.1365
X5.966Y-4.9534
X5.966Y-5.1365
X6.066Y-4.9534
X6.066Y-5.1365
X6.166Y-4.9534
X6.166Y-5.1365
X6.266Y-4.9534
X6.266Y-5.1365
X6.2898Y-2.3051
X6.366Y-4.9534
X6.366Y-5.1365
X6.3898Y-2.3051
X6.466Y-4.9534
X6.466Y-5.1365
X6.566Y-4.9534
X6.566Y-5.1365
X6.6219Y-2.028
X6.6219Y-2.128
X6.666Y-4.9534
X6.666Y-5.1365
X6.766Y-4.9534
X6.766Y-5.1365
T0
M30
