%TF.GenerationSoftware,KiCad,Pcbnew,(6.0.7-1)-1*%
%TF.CreationDate,2022-10-09T23:16:26+02:00*%
%TF.ProjectId,Power_Management_Module,506f7765-725f-44d6-916e-6167656d656e,rev?*%
%TF.SameCoordinates,Original*%
%TF.FileFunction,Soldermask,Bot*%
%TF.FilePolarity,Negative*%
%FSLAX46Y46*%
G04 Gerber Fmt 4.6, Leading zero omitted, Abs format (unit mm)*
G04 Created by KiCad (PCBNEW (6.0.7-1)-1) date 2022-10-09 23:16:26*
%MOMM*%
%LPD*%
G01*
G04 APERTURE LIST*
G04 Aperture macros list*
%AMRoundRect*
0 Rectangle with rounded corners*
0 $1 Rounding radius*
0 $2 $3 $4 $5 $6 $7 $8 $9 X,Y pos of 4 corners*
0 Add a 4 corners polygon primitive as box body*
4,1,4,$2,$3,$4,$5,$6,$7,$8,$9,$2,$3,0*
0 Add four circle primitives for the rounded corners*
1,1,$1+$1,$2,$3*
1,1,$1+$1,$4,$5*
1,1,$1+$1,$6,$7*
1,1,$1+$1,$8,$9*
0 Add four rect primitives between the rounded corners*
20,1,$1+$1,$2,$3,$4,$5,0*
20,1,$1+$1,$4,$5,$6,$7,0*
20,1,$1+$1,$6,$7,$8,$9,0*
20,1,$1+$1,$8,$9,$2,$3,0*%
%AMFreePoly0*
4,1,22,0.500000,-0.750000,0.000000,-0.750000,0.000000,-0.745033,-0.079941,-0.743568,-0.215256,-0.701293,-0.333266,-0.622738,-0.424486,-0.514219,-0.481581,-0.384460,-0.499164,-0.250000,-0.500000,-0.250000,-0.500000,0.250000,-0.499164,0.250000,-0.499963,0.256109,-0.478152,0.396186,-0.417904,0.524511,-0.324060,0.630769,-0.204165,0.706417,-0.067858,0.745374,0.000000,0.744959,0.000000,0.750000,
0.500000,0.750000,0.500000,-0.750000,0.500000,-0.750000,$1*%
%AMFreePoly1*
4,1,20,0.000000,0.744959,0.073905,0.744508,0.209726,0.703889,0.328688,0.626782,0.421226,0.519385,0.479903,0.390333,0.500000,0.250000,0.500000,-0.250000,0.499851,-0.262216,0.476331,-0.402017,0.414519,-0.529596,0.319384,-0.634700,0.198574,-0.708877,0.061801,-0.746166,0.000000,-0.745033,0.000000,-0.750000,-0.500000,-0.750000,-0.500000,0.750000,0.000000,0.750000,0.000000,0.744959,
0.000000,0.744959,$1*%
%AMFreePoly2*
4,1,6,1.000000,0.000000,0.500000,-0.750000,-0.500000,-0.750000,-0.500000,0.750000,0.500000,0.750000,1.000000,0.000000,1.000000,0.000000,$1*%
G04 Aperture macros list end*
%ADD10FreePoly0,270.000000*%
%ADD11FreePoly1,270.000000*%
%ADD12C,0.990600*%
%ADD13R,1.700000X1.700000*%
%ADD14O,1.700000X1.700000*%
%ADD15RoundRect,1.250000X-2.500000X-1.250000X2.500000X-1.250000X2.500000X1.250000X-2.500000X1.250000X0*%
%ADD16RoundRect,1.250000X-1.250000X2.500000X-1.250000X-2.500000X1.250000X-2.500000X1.250000X2.500000X0*%
%ADD17C,1.524000*%
%ADD18R,2.000000X2.000000*%
%ADD19R,1.500000X1.500000*%
%ADD20FreePoly2,0.000000*%
%ADD21FreePoly2,180.000000*%
G04 APERTURE END LIST*
D10*
%TO.C,JP8*%
X108550000Y-100500000D03*
D11*
X108550000Y-101800000D03*
%TD*%
D12*
%TO.C,J3*%
X123610000Y-128866000D03*
X123610000Y-126834000D03*
X128690000Y-127850000D03*
%TD*%
D13*
%TO.C,J8*%
X171857500Y-125817500D03*
D14*
X169317500Y-125817500D03*
X166777500Y-125817500D03*
X164237500Y-125817500D03*
X161697500Y-125817500D03*
X159157500Y-125817500D03*
X156617500Y-125817500D03*
X154077500Y-125817500D03*
X151537500Y-125817500D03*
X148997500Y-125817500D03*
X146457500Y-125817500D03*
X143917500Y-125817500D03*
X141377500Y-125817500D03*
X138837500Y-125817500D03*
X136297500Y-125817500D03*
%TD*%
D13*
%TO.C,J10*%
X146550000Y-96050000D03*
D14*
X146550000Y-93510000D03*
X146550000Y-90970000D03*
%TD*%
D13*
%TO.C,J37*%
X162300000Y-58550000D03*
D14*
X159760000Y-58550000D03*
%TD*%
D13*
%TO.C,J12*%
X128190000Y-51505000D03*
D14*
X128190000Y-54045000D03*
%TD*%
D15*
%TO.C,J1*%
X134590000Y-53655000D03*
%TD*%
%TO.C,J5*%
X161895000Y-53655000D03*
%TD*%
D16*
%TO.C,J2*%
X188350000Y-79100000D03*
%TD*%
D17*
%TO.C,C15*%
X188115000Y-113620000D03*
X188115000Y-98620000D03*
%TD*%
D13*
%TO.C,J11*%
X146550000Y-85050000D03*
D14*
X146550000Y-82510000D03*
X146550000Y-79970000D03*
%TD*%
D13*
%TO.C,J9*%
X168195000Y-51510000D03*
D14*
X168195000Y-54050000D03*
%TD*%
D17*
%TO.C,C14*%
X188115000Y-86950000D03*
X188115000Y-71950000D03*
%TD*%
D13*
%TO.C,J6*%
X110050000Y-105470000D03*
D14*
X110050000Y-108010000D03*
X110050000Y-110550000D03*
X110050000Y-113090000D03*
%TD*%
D16*
%TO.C,J4*%
X188050000Y-106050000D03*
%TD*%
D13*
%TO.C,J7*%
X171857500Y-130467500D03*
D14*
X169317500Y-130467500D03*
X166777500Y-130467500D03*
X164237500Y-130467500D03*
X161697500Y-130467500D03*
X159157500Y-130467500D03*
X156617500Y-130467500D03*
X154077500Y-130467500D03*
X151537500Y-130467500D03*
X148997500Y-130467500D03*
X146457500Y-130467500D03*
X143917500Y-130467500D03*
X141377500Y-130467500D03*
X138837500Y-130467500D03*
X136297500Y-130467500D03*
%TD*%
D18*
%TO.C,TP6*%
X154750000Y-64950000D03*
%TD*%
%TO.C,TP15*%
X139850000Y-99450000D03*
%TD*%
%TO.C,TP25*%
X130350000Y-101950000D03*
%TD*%
%TO.C,TP22*%
X150750000Y-136150000D03*
%TD*%
D19*
%TO.C,JP10*%
X121550000Y-101950000D03*
X123950000Y-101950000D03*
D20*
X120750000Y-101950000D03*
D21*
X124750000Y-101950000D03*
%TD*%
D19*
%TO.C,JP6*%
X136850000Y-120350000D03*
X139250000Y-120350000D03*
D21*
X140050000Y-120350000D03*
D20*
X136050000Y-120350000D03*
%TD*%
D18*
%TO.C,TP18*%
X128150000Y-121250000D03*
%TD*%
%TO.C,TP23*%
X182850000Y-98350000D03*
%TD*%
%TO.C,TP3*%
X103550000Y-80250000D03*
%TD*%
%TO.C,TP14*%
X151250000Y-80950000D03*
%TD*%
%TO.C,TP21*%
X163350000Y-135150000D03*
%TD*%
%TO.C,TP29*%
X115750000Y-107450000D03*
%TD*%
D19*
%TO.C,JP3*%
X142230000Y-68655000D03*
X144630000Y-68655000D03*
D20*
X141430000Y-68655000D03*
D21*
X145430000Y-68655000D03*
%TD*%
D18*
%TO.C,TP27*%
X163600000Y-63800000D03*
%TD*%
D19*
%TO.C,JP9*%
X121550000Y-105850000D03*
X123950000Y-105850000D03*
D20*
X120750000Y-105850000D03*
D21*
X124750000Y-105850000D03*
%TD*%
D19*
%TO.C,JP5*%
X136850000Y-116650000D03*
X139250000Y-116650000D03*
D21*
X140050000Y-116650000D03*
D20*
X136050000Y-116650000D03*
%TD*%
D18*
%TO.C,TP7*%
X103300000Y-85550000D03*
%TD*%
D19*
%TO.C,JP2*%
X144630000Y-73100000D03*
X142230000Y-73100000D03*
D20*
X141430000Y-73100000D03*
D21*
X145430000Y-73100000D03*
%TD*%
D18*
%TO.C,TP8*%
X142050000Y-79250000D03*
%TD*%
%TO.C,TP26*%
X110050000Y-118350000D03*
%TD*%
%TO.C,TP9*%
X103450000Y-97350000D03*
%TD*%
%TO.C,TP13*%
X167650000Y-69750000D03*
%TD*%
%TO.C,TP17*%
X194230000Y-92785000D03*
%TD*%
%TO.C,TP5*%
X104150000Y-106250000D03*
%TD*%
%TO.C,TP12*%
X145550000Y-52350000D03*
%TD*%
%TO.C,TP4*%
X104650000Y-110250000D03*
%TD*%
%TO.C,TP19*%
X164150000Y-120650000D03*
%TD*%
D19*
%TO.C,JP11*%
X124050000Y-98150000D03*
X121650000Y-98150000D03*
D20*
X120850000Y-98150000D03*
D21*
X124850000Y-98150000D03*
%TD*%
D18*
%TO.C,TP11*%
X103150000Y-102550000D03*
%TD*%
%TO.C,TP1*%
X173150000Y-54750000D03*
%TD*%
%TO.C,TP2*%
X137550000Y-94450000D03*
%TD*%
%TO.C,TP28*%
X159550000Y-63800000D03*
%TD*%
%TO.C,TP16*%
X180250000Y-126050000D03*
%TD*%
%TO.C,TP20*%
X120350000Y-121850000D03*
%TD*%
%TO.C,TP24*%
X175850000Y-99750000D03*
%TD*%
M02*
