%TF.GenerationSoftware,KiCad,Pcbnew,(6.0.7-1)-1*%
%TF.CreationDate,2022-10-09T23:16:26+02:00*%
%TF.ProjectId,Power_Management_Module,506f7765-725f-44d6-916e-6167656d656e,rev?*%
%TF.SameCoordinates,Original*%
%TF.FileFunction,Paste,Top*%
%TF.FilePolarity,Positive*%
%FSLAX46Y46*%
G04 Gerber Fmt 4.6, Leading zero omitted, Abs format (unit mm)*
G04 Created by KiCad (PCBNEW (6.0.7-1)-1) date 2022-10-09 23:16:26*
%MOMM*%
%LPD*%
G01*
G04 APERTURE LIST*
G04 Aperture macros list*
%AMRoundRect*
0 Rectangle with rounded corners*
0 $1 Rounding radius*
0 $2 $3 $4 $5 $6 $7 $8 $9 X,Y pos of 4 corners*
0 Add a 4 corners polygon primitive as box body*
4,1,4,$2,$3,$4,$5,$6,$7,$8,$9,$2,$3,0*
0 Add four circle primitives for the rounded corners*
1,1,$1+$1,$2,$3*
1,1,$1+$1,$4,$5*
1,1,$1+$1,$6,$7*
1,1,$1+$1,$8,$9*
0 Add four rect primitives between the rounded corners*
20,1,$1+$1,$2,$3,$4,$5,0*
20,1,$1+$1,$4,$5,$6,$7,0*
20,1,$1+$1,$6,$7,$8,$9,0*
20,1,$1+$1,$8,$9,$2,$3,0*%
G04 Aperture macros list end*
%ADD10RoundRect,0.250000X0.325000X0.650000X-0.325000X0.650000X-0.325000X-0.650000X0.325000X-0.650000X0*%
%ADD11RoundRect,0.250000X-0.262500X-0.450000X0.262500X-0.450000X0.262500X0.450000X-0.262500X0.450000X0*%
%ADD12RoundRect,0.135000X0.135000X0.185000X-0.135000X0.185000X-0.135000X-0.185000X0.135000X-0.185000X0*%
%ADD13RoundRect,0.250001X-0.849999X0.462499X-0.849999X-0.462499X0.849999X-0.462499X0.849999X0.462499X0*%
%ADD14RoundRect,0.225000X0.250000X-0.225000X0.250000X0.225000X-0.250000X0.225000X-0.250000X-0.225000X0*%
%ADD15RoundRect,0.225000X-0.225000X-0.250000X0.225000X-0.250000X0.225000X0.250000X-0.225000X0.250000X0*%
%ADD16RoundRect,0.135000X0.185000X-0.135000X0.185000X0.135000X-0.185000X0.135000X-0.185000X-0.135000X0*%
%ADD17RoundRect,0.135000X-0.135000X-0.185000X0.135000X-0.185000X0.135000X0.185000X-0.135000X0.185000X0*%
%ADD18R,1.500000X2.500000*%
%ADD19RoundRect,0.135000X-0.185000X0.135000X-0.185000X-0.135000X0.185000X-0.135000X0.185000X0.135000X0*%
%ADD20RoundRect,0.250000X-0.312500X-0.625000X0.312500X-0.625000X0.312500X0.625000X-0.312500X0.625000X0*%
%ADD21RoundRect,0.150000X-0.825000X-0.150000X0.825000X-0.150000X0.825000X0.150000X-0.825000X0.150000X0*%
%ADD22RoundRect,0.200000X-0.275000X0.200000X-0.275000X-0.200000X0.275000X-0.200000X0.275000X0.200000X0*%
%ADD23RoundRect,0.150000X-0.150000X0.825000X-0.150000X-0.825000X0.150000X-0.825000X0.150000X0.825000X0*%
%ADD24RoundRect,0.225000X0.225000X0.250000X-0.225000X0.250000X-0.225000X-0.250000X0.225000X-0.250000X0*%
%ADD25R,1.000000X1.700000*%
%ADD26R,1.560000X0.650000*%
%ADD27RoundRect,0.100000X0.637500X0.100000X-0.637500X0.100000X-0.637500X-0.100000X0.637500X-0.100000X0*%
%ADD28RoundRect,0.150000X0.150000X-0.587500X0.150000X0.587500X-0.150000X0.587500X-0.150000X-0.587500X0*%
%ADD29RoundRect,0.150000X-0.587500X-0.150000X0.587500X-0.150000X0.587500X0.150000X-0.587500X0.150000X0*%
%ADD30RoundRect,0.075000X-0.650000X-0.075000X0.650000X-0.075000X0.650000X0.075000X-0.650000X0.075000X0*%
%ADD31R,0.650000X0.400000*%
%ADD32RoundRect,0.218750X0.218750X0.256250X-0.218750X0.256250X-0.218750X-0.256250X0.218750X-0.256250X0*%
%ADD33RoundRect,0.250000X-0.325000X-0.650000X0.325000X-0.650000X0.325000X0.650000X-0.325000X0.650000X0*%
%ADD34RoundRect,0.200000X-0.200000X-0.275000X0.200000X-0.275000X0.200000X0.275000X-0.200000X0.275000X0*%
%ADD35RoundRect,0.250000X-0.362500X-1.425000X0.362500X-1.425000X0.362500X1.425000X-0.362500X1.425000X0*%
%ADD36RoundRect,0.200000X0.275000X-0.200000X0.275000X0.200000X-0.275000X0.200000X-0.275000X-0.200000X0*%
%ADD37RoundRect,0.150000X0.825000X0.150000X-0.825000X0.150000X-0.825000X-0.150000X0.825000X-0.150000X0*%
%ADD38R,0.600000X0.450000*%
%ADD39RoundRect,0.218750X0.256250X-0.218750X0.256250X0.218750X-0.256250X0.218750X-0.256250X-0.218750X0*%
%ADD40RoundRect,0.140000X-0.140000X-0.170000X0.140000X-0.170000X0.140000X0.170000X-0.140000X0.170000X0*%
%ADD41RoundRect,0.150000X0.587500X0.150000X-0.587500X0.150000X-0.587500X-0.150000X0.587500X-0.150000X0*%
%ADD42RoundRect,0.140000X0.170000X-0.140000X0.170000X0.140000X-0.170000X0.140000X-0.170000X-0.140000X0*%
%ADD43R,4.550000X5.250000*%
%ADD44R,4.600000X1.100000*%
%ADD45RoundRect,0.249999X0.450001X1.425001X-0.450001X1.425001X-0.450001X-1.425001X0.450001X-1.425001X0*%
%ADD46RoundRect,0.250000X0.625000X-0.312500X0.625000X0.312500X-0.625000X0.312500X-0.625000X-0.312500X0*%
%ADD47RoundRect,0.200000X0.200000X0.275000X-0.200000X0.275000X-0.200000X-0.275000X0.200000X-0.275000X0*%
G04 APERTURE END LIST*
D10*
%TO.C,C18*%
X160780000Y-112470000D03*
X157830000Y-112470000D03*
%TD*%
D11*
%TO.C,R46*%
X108362500Y-70350000D03*
X110187500Y-70350000D03*
%TD*%
D12*
%TO.C,R26*%
X124060000Y-89450000D03*
X123040000Y-89450000D03*
%TD*%
D10*
%TO.C,C26*%
X160775000Y-82050000D03*
X157825000Y-82050000D03*
%TD*%
D13*
%TO.C,L2*%
X114300000Y-83137500D03*
X114300000Y-85462500D03*
%TD*%
D14*
%TO.C,C3*%
X138550000Y-61075000D03*
X138550000Y-59525000D03*
%TD*%
D15*
%TO.C,C2*%
X136305000Y-73100000D03*
X137855000Y-73100000D03*
%TD*%
D10*
%TO.C,C34*%
X155025000Y-93550000D03*
X152075000Y-93550000D03*
%TD*%
D16*
%TO.C,R35*%
X111800000Y-92560000D03*
X111800000Y-91540000D03*
%TD*%
D12*
%TO.C,R15*%
X142720000Y-136000000D03*
X141700000Y-136000000D03*
%TD*%
D17*
%TO.C,R21*%
X152340000Y-135750000D03*
X153360000Y-135750000D03*
%TD*%
D18*
%TO.C,SW2*%
X139000000Y-48335000D03*
X157400000Y-48335000D03*
%TD*%
D16*
%TO.C,R33*%
X130300000Y-84810000D03*
X130300000Y-83790000D03*
%TD*%
D19*
%TO.C,R13*%
X120650000Y-106530000D03*
X120650000Y-107550000D03*
%TD*%
D10*
%TO.C,C27*%
X160775000Y-78300000D03*
X157825000Y-78300000D03*
%TD*%
D20*
%TO.C,R41*%
X107837500Y-74800000D03*
X110762500Y-74800000D03*
%TD*%
D21*
%TO.C,U1*%
X149845000Y-68655000D03*
X149845000Y-69925000D03*
X149845000Y-71195000D03*
X149845000Y-72465000D03*
X154795000Y-72465000D03*
X154795000Y-71195000D03*
X154795000Y-69925000D03*
X154795000Y-68655000D03*
%TD*%
D16*
%TO.C,R12*%
X126050000Y-110760000D03*
X126050000Y-109740000D03*
%TD*%
D15*
%TO.C,C44*%
X117075000Y-98550000D03*
X118625000Y-98550000D03*
%TD*%
D11*
%TO.C,R5*%
X115887500Y-61300000D03*
X117712500Y-61300000D03*
%TD*%
D22*
%TO.C,R8*%
X138650000Y-102425000D03*
X138650000Y-104075000D03*
%TD*%
D23*
%TO.C,U6*%
X117455000Y-103275000D03*
X116185000Y-103275000D03*
X114915000Y-103275000D03*
X113645000Y-103275000D03*
X113645000Y-108225000D03*
X114915000Y-108225000D03*
X116185000Y-108225000D03*
X117455000Y-108225000D03*
%TD*%
D24*
%TO.C,C8*%
X136750000Y-109650000D03*
X135200000Y-109650000D03*
%TD*%
D25*
%TO.C,SW3*%
X179250000Y-65800000D03*
X179250000Y-59500000D03*
X183050000Y-59500000D03*
X183050000Y-65800000D03*
%TD*%
D10*
%TO.C,C36*%
X155025000Y-85800000D03*
X152075000Y-85800000D03*
%TD*%
D15*
%TO.C,C10*%
X102475000Y-76550000D03*
X104025000Y-76550000D03*
%TD*%
D26*
%TO.C,U3*%
X144150000Y-60750000D03*
X144150000Y-59800000D03*
X144150000Y-58850000D03*
X141450000Y-58850000D03*
X141450000Y-60750000D03*
%TD*%
D27*
%TO.C,U5*%
X122412500Y-118075000D03*
X122412500Y-117425000D03*
X122412500Y-116775000D03*
X122412500Y-116125000D03*
X122412500Y-115475000D03*
X122412500Y-114825000D03*
X122412500Y-114175000D03*
X122412500Y-113525000D03*
X122412500Y-112875000D03*
X122412500Y-112225000D03*
X116687500Y-112225000D03*
X116687500Y-112875000D03*
X116687500Y-113525000D03*
X116687500Y-114175000D03*
X116687500Y-114825000D03*
X116687500Y-115475000D03*
X116687500Y-116125000D03*
X116687500Y-116775000D03*
X116687500Y-117425000D03*
X116687500Y-118075000D03*
%TD*%
D17*
%TO.C,R28*%
X112530000Y-115550000D03*
X113550000Y-115550000D03*
%TD*%
D28*
%TO.C,Q13*%
X102700000Y-96587500D03*
X104600000Y-96587500D03*
X103650000Y-94712500D03*
%TD*%
D13*
%TO.C,L1*%
X114300000Y-95137500D03*
X114300000Y-97462500D03*
%TD*%
D17*
%TO.C,R27*%
X152340000Y-121350000D03*
X153360000Y-121350000D03*
%TD*%
D10*
%TO.C,C35*%
X155025000Y-89550000D03*
X152075000Y-89550000D03*
%TD*%
D29*
%TO.C,Q5*%
X128212500Y-106000000D03*
X128212500Y-107900000D03*
X130087500Y-106950000D03*
%TD*%
D14*
%TO.C,C45*%
X129650000Y-78825000D03*
X129650000Y-77275000D03*
%TD*%
D10*
%TO.C,C32*%
X155025000Y-101050000D03*
X152075000Y-101050000D03*
%TD*%
D12*
%TO.C,R36*%
X132250000Y-75550000D03*
X131230000Y-75550000D03*
%TD*%
D30*
%TO.C,U8*%
X113850000Y-90300000D03*
X113850000Y-90800000D03*
X113850000Y-91300000D03*
X113850000Y-91800000D03*
X113850000Y-92300000D03*
X118250000Y-92300000D03*
X118250000Y-91800000D03*
X118250000Y-91300000D03*
X118250000Y-90800000D03*
X118250000Y-90300000D03*
%TD*%
D10*
%TO.C,C20*%
X160780000Y-104850000D03*
X157830000Y-104850000D03*
%TD*%
D17*
%TO.C,R7*%
X146040000Y-56550000D03*
X147060000Y-56550000D03*
%TD*%
D10*
%TO.C,C21*%
X160780000Y-101040000D03*
X157830000Y-101040000D03*
%TD*%
D31*
%TO.C,U7*%
X109100000Y-117900000D03*
X109100000Y-118550000D03*
X109100000Y-119200000D03*
X111000000Y-119200000D03*
X111000000Y-117900000D03*
%TD*%
D28*
%TO.C,Q8*%
X192850000Y-88737500D03*
X194750000Y-88737500D03*
X193800000Y-86862500D03*
%TD*%
D10*
%TO.C,C23*%
X160780000Y-93420000D03*
X157830000Y-93420000D03*
%TD*%
D32*
%TO.C,D2*%
X136750000Y-112750000D03*
X135175000Y-112750000D03*
%TD*%
D24*
%TO.C,C7*%
X136725000Y-107250000D03*
X135175000Y-107250000D03*
%TD*%
D10*
%TO.C,C16*%
X160780000Y-116280000D03*
X157830000Y-116280000D03*
%TD*%
D33*
%TO.C,C47*%
X136075000Y-83800000D03*
X139025000Y-83800000D03*
%TD*%
D34*
%TO.C,R17*%
X192725000Y-84550000D03*
X194375000Y-84550000D03*
%TD*%
D35*
%TO.C,R3*%
X157612500Y-64845000D03*
X163537500Y-64845000D03*
%TD*%
D17*
%TO.C,R18*%
X189540000Y-92300000D03*
X190560000Y-92300000D03*
%TD*%
%TO.C,R24*%
X115530000Y-124050000D03*
X116550000Y-124050000D03*
%TD*%
D36*
%TO.C,R11*%
X129150000Y-112800000D03*
X129150000Y-111150000D03*
%TD*%
D11*
%TO.C,R6*%
X124637500Y-61300000D03*
X126462500Y-61300000D03*
%TD*%
D37*
%TO.C,U4*%
X133125000Y-119955000D03*
X133125000Y-118685000D03*
X133125000Y-117415000D03*
X133125000Y-116145000D03*
X128175000Y-116145000D03*
X128175000Y-117415000D03*
X128175000Y-118685000D03*
X128175000Y-119955000D03*
%TD*%
D12*
%TO.C,R29*%
X116160000Y-110650000D03*
X115140000Y-110650000D03*
%TD*%
D38*
%TO.C,D1*%
X133500000Y-65300000D03*
X135600000Y-65300000D03*
%TD*%
D39*
%TO.C,D3*%
X155050000Y-140137500D03*
X155050000Y-138562500D03*
%TD*%
D15*
%TO.C,C42*%
X107775000Y-79550000D03*
X109325000Y-79550000D03*
%TD*%
D17*
%TO.C,R19*%
X189530000Y-94800000D03*
X190550000Y-94800000D03*
%TD*%
D10*
%TO.C,C31*%
X155025000Y-104800000D03*
X152075000Y-104800000D03*
%TD*%
D17*
%TO.C,R43*%
X132430000Y-105750000D03*
X133450000Y-105750000D03*
%TD*%
D29*
%TO.C,Q9*%
X157912500Y-134900000D03*
X157912500Y-136800000D03*
X159787500Y-135850000D03*
%TD*%
%TO.C,Q7*%
X136112500Y-135100000D03*
X136112500Y-137000000D03*
X137987500Y-136050000D03*
%TD*%
D40*
%TO.C,C17*%
X147320000Y-108550000D03*
X148280000Y-108550000D03*
%TD*%
D15*
%TO.C,C43*%
X125525000Y-80550000D03*
X127075000Y-80550000D03*
%TD*%
D10*
%TO.C,C37*%
X155025000Y-82050000D03*
X152075000Y-82050000D03*
%TD*%
D40*
%TO.C,C12*%
X102690000Y-82250000D03*
X103650000Y-82250000D03*
%TD*%
D15*
%TO.C,C5*%
X142775000Y-56550000D03*
X144325000Y-56550000D03*
%TD*%
D41*
%TO.C,Q11*%
X104887500Y-102000000D03*
X104887500Y-100100000D03*
X103012500Y-101050000D03*
%TD*%
D16*
%TO.C,R22*%
X101150000Y-92470000D03*
X101150000Y-91450000D03*
%TD*%
D11*
%TO.C,R37*%
X116937500Y-86150000D03*
X118762500Y-86150000D03*
%TD*%
D17*
%TO.C,R42*%
X131640000Y-89350000D03*
X132660000Y-89350000D03*
%TD*%
D12*
%TO.C,R20*%
X155760000Y-135850000D03*
X154740000Y-135850000D03*
%TD*%
D39*
%TO.C,D4*%
X152950000Y-140125000D03*
X152950000Y-138550000D03*
%TD*%
D29*
%TO.C,Q14*%
X143512500Y-120800000D03*
X143512500Y-122700000D03*
X145387500Y-121750000D03*
%TD*%
%TO.C,Q4*%
X139412500Y-107700000D03*
X139412500Y-109600000D03*
X141287500Y-108650000D03*
%TD*%
D15*
%TO.C,C11*%
X102475000Y-79550000D03*
X104025000Y-79550000D03*
%TD*%
D29*
%TO.C,Q16*%
X147712500Y-120800000D03*
X147712500Y-122700000D03*
X149587500Y-121750000D03*
%TD*%
D34*
%TO.C,R2*%
X167370000Y-62940000D03*
X169020000Y-62940000D03*
%TD*%
D42*
%TO.C,C1*%
X145450000Y-65010000D03*
X145450000Y-64050000D03*
%TD*%
D40*
%TO.C,C13*%
X102690000Y-84750000D03*
X103650000Y-84750000D03*
%TD*%
D10*
%TO.C,C22*%
X160780000Y-97230000D03*
X157830000Y-97230000D03*
%TD*%
D36*
%TO.C,R10*%
X132450000Y-112800000D03*
X132450000Y-111150000D03*
%TD*%
D12*
%TO.C,R44*%
X156760000Y-122750000D03*
X155740000Y-122750000D03*
%TD*%
D10*
%TO.C,C30*%
X155025000Y-108550000D03*
X152075000Y-108550000D03*
%TD*%
D36*
%TO.C,R34*%
X111800000Y-96125000D03*
X111800000Y-94475000D03*
%TD*%
D10*
%TO.C,C24*%
X160780000Y-89610000D03*
X157830000Y-89610000D03*
%TD*%
%TO.C,C25*%
X160775000Y-85800000D03*
X157825000Y-85800000D03*
%TD*%
D14*
%TO.C,C48*%
X127050000Y-92550000D03*
X127050000Y-91000000D03*
%TD*%
D19*
%TO.C,R4*%
X132635000Y-73100000D03*
X132635000Y-74120000D03*
%TD*%
D35*
%TO.C,R14*%
X164387500Y-120150000D03*
X170312500Y-120150000D03*
%TD*%
D10*
%TO.C,C29*%
X155025000Y-112550000D03*
X152075000Y-112550000D03*
%TD*%
D34*
%TO.C,R1*%
X167370000Y-59765000D03*
X169020000Y-59765000D03*
%TD*%
D43*
%TO.C,U2*%
X120255000Y-67785000D03*
X120255000Y-73335000D03*
X115405000Y-67785000D03*
X115405000Y-73335000D03*
D44*
X126980000Y-73960000D03*
X126980000Y-72260000D03*
X126980000Y-70560000D03*
X126980000Y-68860000D03*
X126980000Y-67160000D03*
%TD*%
D10*
%TO.C,C19*%
X160780000Y-108660000D03*
X157830000Y-108660000D03*
%TD*%
D29*
%TO.C,Q10*%
X148512500Y-135000000D03*
X148512500Y-136900000D03*
X150387500Y-135950000D03*
%TD*%
D45*
%TO.C,R30*%
X126850000Y-96050000D03*
X120750000Y-96050000D03*
%TD*%
D10*
%TO.C,C38*%
X155025000Y-78300000D03*
X152075000Y-78300000D03*
%TD*%
D20*
%TO.C,R38*%
X108337500Y-100800000D03*
X111262500Y-100800000D03*
%TD*%
D10*
%TO.C,C28*%
X155025000Y-116300000D03*
X152075000Y-116300000D03*
%TD*%
D29*
%TO.C,Q3*%
X145612500Y-102100000D03*
X145612500Y-104000000D03*
X147487500Y-103050000D03*
%TD*%
D16*
%TO.C,R23*%
X103650000Y-92470000D03*
X103650000Y-91450000D03*
%TD*%
D14*
%TO.C,C6*%
X141850000Y-104025000D03*
X141850000Y-102475000D03*
%TD*%
D40*
%TO.C,C9*%
X102690000Y-88050000D03*
X103650000Y-88050000D03*
%TD*%
D19*
%TO.C,R16*%
X130550000Y-123530000D03*
X130550000Y-124550000D03*
%TD*%
D29*
%TO.C,Q15*%
X129612500Y-95600000D03*
X129612500Y-97500000D03*
X131487500Y-96550000D03*
%TD*%
D40*
%TO.C,C41*%
X149390000Y-93550000D03*
X150350000Y-93550000D03*
%TD*%
D29*
%TO.C,Q6*%
X123712500Y-106000000D03*
X123712500Y-107900000D03*
X125587500Y-106950000D03*
%TD*%
D16*
%TO.C,R31*%
X120800000Y-93310000D03*
X120800000Y-92290000D03*
%TD*%
D45*
%TO.C,R32*%
X126850000Y-84300000D03*
X120750000Y-84300000D03*
%TD*%
D12*
%TO.C,R25*%
X141560000Y-123050000D03*
X140540000Y-123050000D03*
%TD*%
D29*
%TO.C,Q17*%
X129612500Y-100350000D03*
X129612500Y-102250000D03*
X131487500Y-101300000D03*
%TD*%
D33*
%TO.C,C46*%
X136075000Y-94300000D03*
X139025000Y-94300000D03*
%TD*%
D10*
%TO.C,C40*%
X149275000Y-112550000D03*
X146325000Y-112550000D03*
%TD*%
D25*
%TO.C,SW4*%
X172450000Y-59700000D03*
X172450000Y-66000000D03*
X176250000Y-66000000D03*
X176250000Y-59700000D03*
%TD*%
D10*
%TO.C,C39*%
X149275000Y-116300000D03*
X146325000Y-116300000D03*
%TD*%
D41*
%TO.C,Q2*%
X155162500Y-60715000D03*
X155162500Y-58815000D03*
X153287500Y-59765000D03*
%TD*%
D46*
%TO.C,R39*%
X110800000Y-85512500D03*
X110800000Y-82587500D03*
%TD*%
D47*
%TO.C,R45*%
X110175000Y-65350000D03*
X108525000Y-65350000D03*
%TD*%
D29*
%TO.C,Q12*%
X103212500Y-105100000D03*
X103212500Y-107000000D03*
X105087500Y-106050000D03*
%TD*%
D10*
%TO.C,C33*%
X155025000Y-97300000D03*
X152075000Y-97300000D03*
%TD*%
D17*
%TO.C,R9*%
X134850000Y-105750000D03*
X135870000Y-105750000D03*
%TD*%
D14*
%TO.C,C4*%
X148300000Y-60825000D03*
X148300000Y-59275000D03*
%TD*%
D30*
%TO.C,U9*%
X113850000Y-78550000D03*
X113850000Y-79050000D03*
X113850000Y-79550000D03*
X113850000Y-80050000D03*
X113850000Y-80550000D03*
X118250000Y-80550000D03*
X118250000Y-80050000D03*
X118250000Y-79550000D03*
X118250000Y-79050000D03*
X118250000Y-78550000D03*
%TD*%
D46*
%TO.C,R40*%
X107300000Y-92262500D03*
X107300000Y-89337500D03*
%TD*%
D41*
%TO.C,Q1*%
X155162500Y-56270000D03*
X155162500Y-54370000D03*
X153287500Y-55320000D03*
%TD*%
M02*
